<svg xmlns="http://www.w3.org/2000/svg" viewBox="0 0 375 812" fill="none" aria-hidden="true">
  <path d="M197.815 423.696C199.606 424.48 201.649 424.872 203.943 424.872C206.08 424.872 207.95 424.527 209.553 423.837C211.187 423.147 212.428 422.206 213.277 421.014C214.157 419.791 214.597 418.412 214.597 416.875C214.565 415.056 214.078 413.614 213.135 412.548C212.224 411.45 211.156 410.666 209.93 410.196C208.704 409.694 207.117 409.192 205.169 408.69C203.472 408.314 202.215 407.938 201.398 407.561C200.612 407.185 200.219 406.621 200.219 405.868C200.219 405.241 200.47 404.755 200.973 404.41C201.476 404.034 202.199 403.845 203.142 403.845C204.242 403.845 205.122 404.112 205.782 404.645C206.473 405.178 206.882 405.899 207.007 406.809H214.455C214.173 404.112 213.073 401.948 211.156 400.318C209.27 398.687 206.677 397.872 203.377 397.872C201.146 397.872 199.213 398.232 197.579 398.953C195.976 399.675 194.751 400.663 193.902 401.917C193.085 403.14 192.677 404.504 192.677 406.009C192.677 407.797 193.132 409.223 194.044 410.29C194.955 411.325 196.039 412.093 197.296 412.595C198.553 413.065 200.125 413.52 202.01 413.959C203.77 414.398 205.043 414.805 205.829 415.182C206.614 415.527 207.007 416.075 207.007 416.828C207.007 417.455 206.724 417.973 206.159 418.38C205.624 418.757 204.854 418.945 203.849 418.945C202.749 418.945 201.822 418.663 201.068 418.098C200.313 417.534 199.889 416.797 199.795 415.887H191.828C191.954 417.581 192.535 419.117 193.572 420.497C194.609 421.845 196.024 422.912 197.815 423.696Z" fill="#00DBB2"/>
  <path d="M296.001 424.455V417.638H293.129C292.25 417.638 291.623 417.466 291.246 417.121C290.869 416.776 290.681 416.212 290.681 415.429V404.897H295.954V398.221H290.681V391.827H282.631V398.221H279.43V404.897H282.631V415.335C282.631 418.563 283.447 420.898 285.079 422.34C286.711 423.75 288.986 424.455 291.905 424.455H296.001Z" fill="#00DBB2"/>
  <path fill-rule="evenodd" clip-rule="evenodd" d="M256.375 423.186C258.447 424.283 260.769 424.832 263.343 424.832C265.916 424.832 268.239 424.283 270.31 423.186C272.413 422.089 274.06 420.522 275.253 418.485C276.477 416.416 277.089 414.034 277.089 411.338C277.089 408.643 276.493 406.276 275.3 404.239C274.108 402.17 272.476 400.588 270.404 399.491C268.333 398.394 266.01 397.845 263.437 397.845C260.863 397.845 258.541 398.394 256.469 399.491C254.398 400.588 252.766 402.17 251.573 404.239C250.381 406.276 249.784 408.643 249.784 411.338C249.784 414.065 250.365 416.447 251.526 418.485C252.719 420.522 254.335 422.089 256.375 423.186ZM267.25 416.181C266.183 417.309 264.88 417.873 263.343 417.873C261.805 417.873 260.518 417.309 259.482 416.181C258.478 415.053 257.976 413.438 257.976 411.338C257.976 409.207 258.494 407.593 259.529 406.496C260.565 405.367 261.868 404.803 263.437 404.803C264.975 404.803 266.261 405.367 267.297 406.496C268.364 407.624 268.898 409.238 268.898 411.338C268.898 413.438 268.348 415.053 267.25 416.181Z" fill="#00DBB2"/>
  <path fill-rule="evenodd" clip-rule="evenodd" d="M227.484 401.935C228.268 400.713 229.351 399.726 230.732 398.973C232.113 398.221 233.729 397.845 235.581 397.845C237.746 397.845 239.708 398.394 241.466 399.491C243.223 400.588 244.604 402.155 245.608 404.192C246.644 406.229 247.162 408.596 247.162 411.291C247.162 413.987 246.644 416.369 245.608 418.438C244.604 420.475 243.223 422.058 241.466 423.186C239.708 424.283 237.746 424.832 235.581 424.832C233.761 424.832 232.144 424.455 230.732 423.703C229.351 422.951 228.268 421.979 227.484 420.788V436.961H219.434V398.221H227.484V401.935ZM238.97 411.291C238.97 409.285 238.406 407.718 237.276 406.59C236.177 405.43 234.812 404.85 233.18 404.85C231.579 404.85 230.214 405.43 229.084 406.59C227.986 407.75 227.437 409.332 227.437 411.338C227.437 413.344 227.986 414.927 229.084 416.087C230.214 417.247 231.579 417.826 233.18 417.826C234.781 417.826 236.146 417.247 237.276 416.087C238.406 414.896 238.97 413.297 238.97 411.291Z" fill="#00DBB2"/>
  <path d="M176.754 397.973C180.005 397.973 182.584 398.959 184.49 400.932C186.428 402.905 187.397 405.646 187.397 409.154V422.598C187.397 423.631 186.56 424.469 185.526 424.469H181.297C180.264 424.469 179.427 423.631 179.427 422.598V410.234C179.427 408.543 178.973 407.243 178.067 406.335C177.192 405.395 175.973 404.926 174.41 404.926C172.847 404.926 171.612 405.395 170.706 406.335C169.831 407.243 169.393 408.543 169.393 410.234V422.598C169.393 423.631 168.555 424.469 167.522 424.469H163.293C162.26 424.469 161.422 423.631 161.422 422.598V410.234C161.422 408.543 160.969 407.243 160.063 406.335C159.187 405.395 157.968 404.926 156.405 404.926C154.843 404.926 153.608 405.395 152.701 406.335C151.826 407.243 151.389 408.543 151.389 410.234V422.598C151.389 423.631 150.551 424.469 149.518 424.469H145.242C144.209 424.469 143.371 423.631 143.371 422.598V406.272C143.371 401.844 146.961 398.255 151.389 398.255V401.543C152.201 400.447 153.264 399.586 154.577 398.959C155.89 398.302 157.374 397.973 159.031 397.973C161 397.973 162.751 398.395 164.282 399.241C165.845 400.087 167.064 401.293 167.939 402.858C168.846 401.418 170.081 400.243 171.643 399.335C173.206 398.427 174.91 397.973 176.754 397.973Z" fill="white"/>
  <path d="M133.527 410.44C133.527 407.943 132.902 405.97 131.65 404.521C130.41 403.06 128.718 402.336 126.601 402.336C124.418 402.336 122.703 403.058 121.455 404.501C120.205 405.952 119.58 407.926 119.58 410.44C119.58 412.953 120.195 414.907 121.427 416.31C122.66 417.713 124.36 418.399 126.544 418.399C128.728 418.399 130.477 417.703 131.7 416.302C132.922 414.901 133.527 412.945 133.527 410.431V410.44ZM140.851 424.383H133.799V420.59C132.648 422.562 131.106 423.565 129.568 424.383C127.654 425.401 125.854 425.475 123.667 425.476C120.004 425.476 117.048 424.106 114.8 421.365C112.552 418.625 111.43 415.011 111.434 410.526C111.434 405.846 112.537 402.198 114.742 399.58C116.948 396.962 120.016 395.654 123.946 395.655C125.996 395.655 128.02 395.893 129.568 396.814C131.115 397.734 132.741 398.98 133.95 401.175V384.372H140.851V424.383Z" fill="white"/>
  <path d="M102.094 410.44C102.094 407.943 101.468 405.97 100.216 404.521C98.9762 403.06 97.284 402.336 95.1678 402.336C92.9846 402.336 91.2692 403.058 90.0216 404.501C88.7714 405.952 88.1463 407.926 88.1463 410.44C88.1463 412.953 88.7615 414.907 89.9938 416.31C91.2261 417.713 92.9262 418.399 95.1101 418.399C97.294 418.399 99.0439 417.703 100.266 416.302C101.489 414.901 102.094 412.945 102.094 410.432V410.44ZM109.418 424.383H101.642L101.755 420.381C100.671 422.14 99.3598 423.429 97.8215 424.247C96.2833 425.065 94.4206 425.475 92.2334 425.476C88.5704 425.476 85.6147 424.106 83.3664 421.365C81.1182 418.625 79.996 415.011 80 410.526C80 405.846 81.1029 402.198 83.3087 399.58C85.5145 396.962 88.5823 395.654 92.5121 395.655C94.5626 395.655 96.3616 396.116 97.9091 397.036C99.458 397.965 100.766 399.348 101.813 401.175V396.584H109.418V424.383Z" fill="white"/>
  <path d="M128.507 376.513C128.507 376.513 123.837 375.646 122.38 375.423C116.732 374.553 110.12 375.001 104.759 376.991C99.3973 378.982 94.1028 381.984 90.375 386.334C92.9837 385.43 95.8194 385.265 98.7433 385.716C99.1677 385.781 99.5896 385.863 100.005 385.958C105.866 382.078 113.556 379.569 121.253 380.754C121.484 380.789 123.148 381.212 123.369 381.248C125.082 379.636 128.507 376.513 128.507 376.513Z" fill="#00DBB2"/>
</svg>
