<svg width="47" height="47" viewBox="0 0 47 47" fill="none" xmlns="http://www.w3.org/2000/svg">
<rect width="47" height="47" rx="23.5" fill="#E9EAEB"/>
<g clip-path="url(#clip0_2064_4230)">
<path d="M23.4974 13.2798C21.4784 13.2798 19.5047 13.8751 17.826 14.9904C16.1472 16.1057 14.8388 17.6909 14.0661 19.5455C13.2935 21.4002 13.0913 23.441 13.4852 25.41C13.8791 27.3789 14.8514 29.1874 16.279 30.6069C17.7067 32.0264 19.5256 32.9931 21.5059 33.3848C23.4861 33.7764 25.5386 33.5754 27.404 32.8072C29.2693 32.0389 30.8636 30.738 31.9853 29.0688C33.107 27.3997 33.7057 25.4373 33.7057 23.4298C33.7027 20.7388 32.6262 18.1588 30.7125 16.256C28.7987 14.3531 26.2039 13.2828 23.4974 13.2798ZM15.3307 23.4298C15.3281 21.9103 15.7552 20.4206 16.5631 19.1308C17.371 17.8409 18.5272 16.8028 19.8999 16.1349C21.2726 15.467 22.8065 15.1961 24.3266 15.3532C25.8467 15.5103 27.2917 16.0891 28.4969 17.0235L17.0544 28.4008C15.9377 26.9817 15.3309 25.2317 15.3307 23.4298ZM23.4974 31.5498C21.6852 31.5495 19.9253 30.9463 18.4979 29.8361L29.9404 18.4587C30.8802 19.657 31.4623 21.0938 31.6204 22.6052C31.7784 24.1166 31.506 25.6418 30.8343 27.0066C30.1625 28.3715 29.1185 29.5212 27.8212 30.3245C26.5239 31.1278 25.0257 31.5524 23.4974 31.5498Z" fill="black"/>
</g>
<defs>
<clipPath id="clip0_2064_4230">
<rect width="21" height="21" fill="white" transform="translate(13 13)"/>
</clipPath>
</defs>
</svg>
