<svg width="54" height="54" viewBox="0 0 54 54" fill="none" xmlns="http://www.w3.org/2000/svg">
<rect width="54" height="54" rx="27" fill="#E9EAEB"/>
<path d="M39.793 22.2624C39.793 21.3972 39.4493 20.5674 38.8375 19.9555C38.2257 19.3437 37.3958 19 36.5306 19H17.0866C16.2214 19 15.3916 19.3437 14.7798 19.9555C14.1679 20.5674 13.8242 21.3972 13.8242 22.2624V34.1376C13.8242 35.0028 14.1679 35.8326 14.7798 36.4445C15.3916 37.0563 16.2214 37.4 17.0866 37.4H36.5306C37.3958 37.4 38.2257 37.0563 38.8375 36.4445C39.4493 35.8326 39.793 35.0028 39.793 34.1376V22.2624ZM17.054 20.305H36.5306C37.0497 20.305 37.5476 20.5112 37.9147 20.8783C38.2818 21.2454 38.488 21.7433 38.488 22.2624V23.1106H15.1292V22.2624C15.1292 21.7433 15.3354 21.2454 15.7025 20.8783C16.0696 20.5112 16.5675 20.305 17.0866 20.305H17.054ZM38.488 24.4482V26.4383H15.1292V24.4482H38.488ZM36.5306 36.095H17.0866C16.5675 36.095 16.0696 35.8888 15.7025 35.5217C15.3354 35.1546 15.1292 34.6567 15.1292 34.1376V27.7433H38.488V34.1376C38.488 34.6567 38.2818 35.1546 37.9147 35.5217C37.5476 35.8888 37.0497 36.095 36.5306 36.095Z" fill="black"/>
<path d="M34.8977 31.3318H31.7658C31.5927 31.3318 31.4268 31.4005 31.3044 31.5229C31.182 31.6453 31.1133 31.8112 31.1133 31.9843C31.1133 32.1573 31.182 32.3233 31.3044 32.4456C31.4268 32.568 31.5927 32.6368 31.7658 32.6368H34.9303C35.1034 32.6368 35.2693 32.568 35.3917 32.4456C35.514 32.3233 35.5828 32.1573 35.5828 31.9843C35.5828 31.8112 35.514 31.6453 35.3917 31.5229C35.2693 31.4005 35.1034 31.3318 34.9303 31.3318H34.8977Z" fill="black"/>
</svg>
