<svg width="39" height="39" viewBox="0 0 39 39" fill="none" xmlns="http://www.w3.org/2000/svg">
<rect width="39" height="39" rx="19.5" fill="#F1F5F9"/>
<path d="M12.2765 11.6505L13.4691 11.1084V11.2168H24.2025L24.853 12.0842L25.2866 13.1683L26.2624 17.7218L26.5876 24.1184H28.2139L29.7317 24.3353L30.1654 25.2026V29.7561L29.7317 30.8403H28.2139H23.552L23.0099 29.7561L22.5762 29.1056C20.2633 29.0695 15.0086 28.9755 12.4933 28.8888C9.97804 28.8021 10.1443 27.913 10.5418 27.4794L11.4091 25.4195L12.4933 21.2996L12.8186 19.4565V17.9387C13.2522 16.8111 12.6379 13.2767 12.2765 11.6505Z" fill="#7B9AC1" fill-opacity="0.43"/>
<path d="M16.3063 12.8947C15.184 12.8947 14.2734 13.8052 14.2734 14.9275C14.2734 16.0498 15.184 16.9604 16.3063 16.9604C17.4285 16.9604 18.3391 16.0498 18.3391 14.9275C18.3391 13.8052 17.4285 12.8947 16.3063 12.8947ZM17.5014 14.3965L16.0793 15.8186C16.0318 15.866 15.9674 15.8931 15.8997 15.8931C15.8319 15.8931 15.7676 15.866 15.7201 15.8186L15.112 15.2096C15.0129 15.1105 15.0129 14.9496 15.112 14.8505C15.2111 14.7505 15.372 14.7514 15.4711 14.8505L15.8997 15.2799L17.1423 14.0373C17.2414 13.9382 17.4023 13.9382 17.5014 14.0373C17.6005 14.1364 17.6005 14.2974 17.5014 14.3965Z" fill="#1C4579"/>
<path d="M15.9674 18.0827C14.8451 18.0827 13.9346 18.9932 13.9346 20.1155C13.9346 21.2378 14.8451 22.1483 15.9674 22.1483C17.0897 22.1483 18.0002 21.2378 18.0002 20.1155C18.0002 18.9932 17.0897 18.0827 15.9674 18.0827ZM17.1625 19.5836L15.7404 21.0057C15.6904 21.0557 15.626 21.0803 15.5608 21.0803C15.4956 21.0803 15.4304 21.0557 15.3813 21.0057L14.7731 20.3976C14.674 20.2985 14.674 20.1376 14.7731 20.0385C14.8722 19.9394 15.0331 19.9394 15.1322 20.0385L15.5608 20.4671L16.8034 19.2245C16.9025 19.1245 17.0634 19.1254 17.1625 19.2245C17.2616 19.3236 17.2616 19.4845 17.1625 19.5836Z" fill="#1C4579"/>
<path d="M15.2897 23.2698C14.1674 23.2698 13.2568 24.1804 13.2568 25.3027C13.2568 26.4249 14.1674 27.3355 15.2897 27.3355C16.4119 27.3355 17.3225 26.4249 17.3225 25.3027C17.3225 24.1804 16.4119 23.2698 15.2897 23.2698ZM16.4848 24.7716L15.0627 26.1937C15.0152 26.2411 14.9508 26.2683 14.8831 26.2683C14.8153 26.2683 14.751 26.2411 14.7035 26.1937L14.0954 25.5847C13.9963 25.4856 13.9963 25.3247 14.0954 25.2256C14.1945 25.1256 14.3554 25.1265 14.4545 25.2256L14.8831 25.655L16.1257 24.4125C16.2248 24.3134 16.3857 24.3134 16.4848 24.4125C16.5839 24.5116 16.5839 24.6725 16.4848 24.7716Z" fill="#1C4579"/>
<path d="M19.6916 14.4795H24.5823C24.7229 14.4795 24.8364 14.366 24.8364 14.2254C24.8364 14.0848 24.7229 13.9713 24.5823 13.9713H19.6916C19.551 13.9713 19.4375 14.0848 19.4375 14.2254C19.4375 14.366 19.551 14.4795 19.6916 14.4795Z" fill="#1C4579"/>
<path d="M19.6916 15.8846H23.7776C23.9182 15.8846 24.0317 15.7711 24.0317 15.6305C24.0317 15.4899 23.9182 15.3764 23.7776 15.3764H19.6916C19.551 15.3764 19.4375 15.4899 19.4375 15.6305C19.4375 15.7711 19.551 15.8846 19.6916 15.8846Z" fill="#1C4579"/>
<path d="M19.6916 19.6667H24.5823C24.7229 19.6667 24.8364 19.5532 24.8364 19.4126C24.8364 19.272 24.7229 19.1585 24.5823 19.1585H19.6916C19.551 19.1585 19.4375 19.272 19.4375 19.4126C19.4375 19.5532 19.551 19.6667 19.6916 19.6667Z" fill="#1C4579"/>
<path d="M19.6916 21.0718H23.7776C23.9182 21.0718 24.0317 20.9583 24.0317 20.8176C24.0317 20.677 23.9182 20.5635 23.7776 20.5635H19.6916C19.551 20.5635 19.4375 20.677 19.4375 20.8176C19.4375 20.9582 19.551 21.0718 19.6916 21.0718Z" fill="#1C4579"/>
<path d="M22.5502 24.3464H18.676C18.5354 24.3464 18.4219 24.4599 18.4219 24.6005C18.4219 24.7411 18.5354 24.8546 18.676 24.8546H22.5502C22.6908 24.8546 22.8043 24.7411 22.8043 24.6005C22.8043 24.4599 22.6908 24.3464 22.5502 24.3464Z" fill="#1C4579"/>
<path d="M21.7455 25.7515H18.676C18.5354 25.7515 18.4219 25.865 18.4219 26.0056C18.4219 26.1462 18.5354 26.2597 18.676 26.2597H21.7455C21.8861 26.2597 21.9996 26.1462 21.9996 26.0056C21.9996 25.865 21.8861 25.7515 21.7455 25.7515Z" fill="#1C4579"/>
<path d="M29.5561 23.9864H27.154C27.7452 20.413 27.9722 16.0746 26.4722 13.1141C26.3595 12.8922 26.1249 12.7584 25.8759 12.7584H25.6616C25.5261 12.3577 25.3719 11.9698 25.1881 11.6065C25.034 11.3015 24.718 11.1118 24.3648 11.1118H13.1411C12.8505 11.1118 12.5829 11.2431 12.4042 11.4718C12.2271 11.6988 12.1661 11.9893 12.2365 12.268C12.8234 14.5862 13.8212 20.7373 10.423 27.7792C10.2824 28.0715 10.3002 28.4103 10.473 28.6847C10.6441 28.9566 10.9371 29.1184 11.259 29.1184H12.2398C11.9231 29.5842 12.1712 30.2542 12.7709 30.2567H23.2043V30.338C23.2043 30.8522 23.6219 31.2698 24.136 31.2698H29.5569C30.071 31.2698 30.4886 30.8522 30.4886 30.338V24.9172C30.4886 24.4031 30.071 23.9855 29.5569 23.9855L29.5561 23.9864ZM10.9034 28.4146C10.8246 28.2892 10.8161 28.1342 10.8805 28.0004C14.3507 20.8076 13.3301 14.5153 12.7295 12.1435C12.6973 12.0182 12.7253 11.8869 12.8049 11.7835C12.8862 11.6794 13.0082 11.6201 13.1403 11.6201H24.3632C24.5216 11.6201 24.6665 11.7048 24.7334 11.8361C26.4054 15.1361 25.8853 20.2241 25.1298 23.9864H24.1354C23.6213 23.9864 23.2037 24.4039 23.2037 24.9181V28.6101H11.2591C11.1118 28.6101 10.9822 28.539 10.9034 28.4136L10.9034 28.4146ZM29.9798 30.339C29.9798 30.5728 29.7901 30.7625 29.5563 30.7625H24.1355C23.9017 30.7625 23.712 30.5728 23.712 30.339V24.9181C23.712 24.6844 23.9017 24.4946 24.1355 24.4946H25.6364V26.7011L26.8459 25.6847L28.0554 26.7011V24.4946H29.5563C29.7901 24.4946 29.9798 24.6844 29.9798 24.9181V30.339Z" fill="#1C4579"/>
<path d="M25.2421 29.746H24.4738C24.3332 29.746 24.2197 29.8595 24.2197 30.0001C24.2197 30.1407 24.3332 30.2542 24.4738 30.2542H25.2421C25.3827 30.2542 25.4962 30.1407 25.4962 30.0001C25.4962 29.8595 25.3827 29.746 25.2421 29.746Z" fill="#1C4579"/>
<path d="M26.2585 28.8923H24.4738C24.3332 28.8923 24.2197 29.0058 24.2197 29.1464C24.2197 29.287 24.3332 29.4005 24.4738 29.4005H26.2585C26.3991 29.4005 26.5126 29.287 26.5126 29.1464C26.5126 29.0058 26.3991 28.8923 26.2585 28.8923Z" fill="#1C4579"/>
<path d="M15.9772 12.7829C14.8549 12.7829 13.9443 13.6934 13.9443 14.8157C13.9443 15.938 14.8549 16.8485 15.9772 16.8485C17.0994 16.8485 18.01 15.938 18.01 14.8157C18.01 13.6934 17.0994 12.7829 15.9772 12.7829ZM17.1723 14.2846L15.7502 15.7068C15.7027 15.7542 15.6383 15.7813 15.5706 15.7813C15.5028 15.7813 15.4385 15.7542 15.391 15.7068L14.7829 15.0978C14.6838 14.9987 14.6838 14.8377 14.7829 14.7387C14.882 14.6387 15.0429 14.6396 15.142 14.7387L15.5706 15.1681L16.8132 13.9255C16.9123 13.8264 17.0732 13.8264 17.1723 13.9255C17.2714 14.0246 17.2714 14.1856 17.1723 14.2846Z" fill="#235697"/>
<path d="M15.6383 17.9709C14.516 17.9709 13.6055 18.8814 13.6055 20.0037C13.6055 21.126 14.516 22.0365 15.6383 22.0365C16.7606 22.0365 17.6711 21.126 17.6711 20.0037C17.6711 18.8814 16.7606 17.9709 15.6383 17.9709ZM16.8334 19.4718L15.4113 20.8939C15.3613 20.9439 15.2969 20.9685 15.2317 20.9685C15.1665 20.9685 15.1013 20.9439 15.0522 20.8939L14.444 20.2858C14.3449 20.1867 14.3449 20.0257 14.444 19.9266C14.5431 19.8275 14.704 19.8275 14.8031 19.9266L15.2317 20.3552L16.4743 19.1127C16.5734 19.0127 16.7343 19.0136 16.8334 19.1127C16.9325 19.2118 16.9325 19.3727 16.8334 19.4718Z" fill="#235697"/>
<path d="M14.9606 23.158C13.8383 23.158 12.9277 24.0686 12.9277 25.1908C12.9277 26.3131 13.8383 27.2237 14.9606 27.2237C16.0828 27.2237 16.9934 26.3131 16.9934 25.1908C16.9934 24.0686 16.0828 23.158 14.9606 23.158ZM16.1557 24.6598L14.7336 26.0819C14.6861 26.1293 14.6217 26.1564 14.554 26.1564C14.4862 26.1564 14.4219 26.1293 14.3744 26.0819L13.7663 25.4729C13.6672 25.3738 13.6672 25.2129 13.7663 25.1138C13.8654 25.0138 14.0263 25.0147 14.1254 25.1138L14.554 25.5432L15.7965 24.3006C15.8956 24.2015 16.0566 24.2015 16.1557 24.3006C16.2548 24.3997 16.2548 24.5607 16.1557 24.6598Z" fill="#235697"/>
<path d="M19.3625 14.3678H24.2532C24.3938 14.3678 24.5073 14.2543 24.5073 14.1137C24.5073 13.9731 24.3938 13.8596 24.2532 13.8596H19.3625C19.2219 13.8596 19.1084 13.9731 19.1084 14.1137C19.1084 14.2543 19.2219 14.3678 19.3625 14.3678Z" fill="#627B9A"/>
<path d="M19.3625 15.7728H23.4485C23.5891 15.7728 23.7026 15.6593 23.7026 15.5187C23.7026 15.3781 23.5891 15.2646 23.4485 15.2646H19.3625C19.2219 15.2646 19.1084 15.3781 19.1084 15.5187C19.1084 15.6593 19.2219 15.7728 19.3625 15.7728Z" fill="#627B9A"/>
<path d="M19.3625 19.5548H24.2532C24.3938 19.5548 24.5073 19.4413 24.5073 19.3007C24.5073 19.1601 24.3938 19.0466 24.2532 19.0466H19.3625C19.2219 19.0466 19.1084 19.1601 19.1084 19.3007C19.1084 19.4413 19.2219 19.5548 19.3625 19.5548Z" fill="#627B9A"/>
<path d="M19.3625 20.9599H23.4485C23.5891 20.9599 23.7026 20.8464 23.7026 20.7058C23.7026 20.5652 23.5891 20.4517 23.4485 20.4517H19.3625C19.2219 20.4517 19.1084 20.5652 19.1084 20.7058C19.1084 20.8464 19.2219 20.9599 19.3625 20.9599Z" fill="#627B9A"/>
<path d="M22.2211 24.2346H18.3469C18.2063 24.2346 18.0928 24.3481 18.0928 24.4887C18.0928 24.6293 18.2063 24.7428 18.3469 24.7428H22.2211C22.3617 24.7428 22.4752 24.6293 22.4752 24.4887C22.4752 24.3481 22.3617 24.2346 22.2211 24.2346Z" fill="#627B9A"/>
<path d="M21.4164 25.6396H18.3469C18.2063 25.6396 18.0928 25.7531 18.0928 25.8937C18.0928 26.0343 18.2063 26.1478 18.3469 26.1478H21.4164C21.557 26.1478 21.6705 26.0343 21.6705 25.8937C21.6705 25.7531 21.557 25.6396 21.4164 25.6396Z" fill="#627B9A"/>
<path d="M29.227 23.8746H26.8249C27.4161 20.3012 27.6431 15.9627 26.1431 13.0023C26.0304 12.7804 25.7958 12.6466 25.5468 12.6466H25.3325C25.197 12.2459 25.0428 11.858 24.859 11.4946C24.7049 11.1897 24.3889 11 24.0357 11H12.812C12.5214 11 12.2538 11.1313 12.0751 11.36C11.898 11.587 11.837 11.8775 11.9074 12.1562C12.4943 14.4744 13.4921 20.6255 10.0939 27.6674C9.95331 27.9596 9.97109 28.2984 10.1439 28.5729C10.315 28.8448 10.608 29.0065 10.9299 29.0065H11.9107C11.594 29.4724 11.8421 30.1424 12.4418 30.1449H22.8752V30.2262C22.8752 30.7404 23.2928 31.1579 23.8069 31.1579H29.2278C29.7419 31.1579 30.1595 30.7404 30.1595 30.2262V24.8054C30.1595 24.2912 29.7419 23.8737 29.2278 23.8737L29.227 23.8746ZM10.5743 28.3028C10.4955 28.1774 10.487 28.0224 10.5514 27.8886C14.0216 20.6958 13.001 14.4035 12.4004 12.0317C12.3682 11.9064 12.3962 11.7751 12.4758 11.6717C12.5571 11.5675 12.6791 11.5083 12.8112 11.5083H24.0341C24.1925 11.5083 24.3374 11.593 24.4043 11.7242C26.0763 15.0242 25.5562 20.1123 24.8007 23.8745H23.8063C23.2921 23.8745 22.8746 24.2921 22.8746 24.8063V28.4983H10.93C10.7827 28.4983 10.6531 28.4271 10.5743 28.3018L10.5743 28.3028ZM29.6507 30.2272C29.6507 30.461 29.461 30.6507 29.2272 30.6507H23.8064C23.5726 30.6507 23.3829 30.461 23.3829 30.2272V24.8063C23.3829 24.5726 23.5726 24.3828 23.8064 24.3828H25.3073V26.5893L26.5168 25.5729L27.7263 26.5893V24.3828H29.2272C29.461 24.3828 29.6507 24.5726 29.6507 24.8063V30.2272Z" fill="#235697"/>
<path d="M24.914 29.6342H24.1457C24.0051 29.6342 23.8916 29.7477 23.8916 29.8883C23.8916 30.0289 24.0051 30.1424 24.1457 30.1424H24.914C25.0546 30.1424 25.1681 30.0289 25.1681 29.8883C25.1681 29.7477 25.0546 29.6342 24.914 29.6342Z" fill="#627B9A"/>
<path d="M25.9294 28.7805H24.1447C24.0041 28.7805 23.8906 28.894 23.8906 29.0346C23.8906 29.1752 24.0041 29.2887 24.1447 29.2887H25.9294C26.07 29.2887 26.1835 29.1752 26.1835 29.0346C26.1835 28.894 26.07 28.7805 25.9294 28.7805Z" fill="#627B9A"/>
<path d="M10.5932 9.14912C9.9807 8.80608 9.42006 8.06624 8.9375 7.90688C9.09005 7.59022 9.2688 7.28687 9.4719 7C9.95446 7.46784 10.5151 8.29024 11.1276 8.2416C10.9746 8.55825 10.7959 8.86178 10.5932 9.14912Z" fill="#235697"/>
<path opacity="0.5" d="M10.5932 9.14912C9.9807 8.80608 9.42006 8.06624 8.9375 7.90688C9.09005 7.59022 9.2688 7.28687 9.4719 7C9.95446 7.46784 10.5151 8.29024 11.1276 8.2416C10.9746 8.55825 10.7959 8.86178 10.5932 9.14912Z" fill="white"/>
<path opacity="0.2" d="M10.9827 8.43746C10.9187 8.42978 10.8976 8.35938 10.9373 8.28898C10.4432 8.18274 9.98497 7.58498 9.57793 7.17474C9.56796 7.18727 9.55539 7.19748 9.54109 7.20468C9.52679 7.21188 9.5111 7.21589 9.4951 7.21643C9.4791 7.21698 9.46317 7.21405 9.44841 7.20785C9.43365 7.20165 9.42042 7.19232 9.40961 7.1805C9.28915 7.3575 9.17785 7.54057 9.07617 7.72898C9.10283 7.75166 9.11999 7.78352 9.12426 7.81825C9.12853 7.85298 9.11959 7.88805 9.09921 7.9165C9.50689 8.1341 9.96449 8.6845 10.4592 9.01538C10.483 8.98937 10.5147 8.97193 10.5494 8.9658C10.5842 8.95967 10.6199 8.96517 10.6512 8.98146C10.7713 8.8057 10.8824 8.62392 10.984 8.43682L10.9827 8.43746ZM9.83457 8.2909C9.71297 8.17762 9.68481 8.0029 9.76673 7.9005C9.84865 7.7981 10.0106 7.81858 10.1322 7.9357C10.2538 8.05282 10.2883 8.21986 10.2064 8.3197C10.1245 8.41954 9.95873 8.40546 9.83457 8.2909Z" fill="black"/>
<g opacity="0.2">
<path d="M9.92735 8.22687L9.90559 8.25311L9.88127 8.23071C9.88895 8.22175 9.89599 8.21279 9.90367 8.20447C9.87863 8.17977 9.85977 8.14951 9.84863 8.11615L9.88191 8.10463C9.89043 8.13229 9.90509 8.15767 9.92479 8.17887L9.96383 8.13151C9.93695 8.09439 9.90943 8.05215 9.93695 8.01951C9.96447 7.98687 9.99647 7.99583 10.0445 8.03615C10.0522 8.02783 10.0592 8.01887 10.0669 8.00991L10.0906 8.03295L10.0688 8.05919C10.0889 8.07941 10.105 8.10331 10.1162 8.12959L10.0842 8.14239C10.0752 8.12114 10.0629 8.10147 10.0477 8.08415L10.008 8.13151C10.0349 8.16863 10.0637 8.21087 10.0362 8.24351C10.0086 8.27615 9.97663 8.26911 9.92735 8.22687ZM9.99135 8.10335L10.0259 8.06175C10.0035 8.04447 9.98751 8.04447 9.97919 8.05471C9.97087 8.06495 9.97471 8.08543 9.98815 8.10591L9.99135 8.10335ZM10.0003 8.20959C10.0099 8.19807 10.0003 8.18079 9.98687 8.15967L9.95231 8.20127C9.97279 8.22175 9.98815 8.22239 9.99711 8.21215L10.0003 8.20959Z" fill="black"/>
</g>
<path d="M15.8465 11.8576C15.2833 12.1609 14.4308 12.1993 14.075 12.5008C13.8964 12.1977 13.7411 11.8814 13.6104 11.5549C14.2113 11.4269 15.1297 11.4352 15.3819 10.911C15.5603 11.2144 15.7157 11.5308 15.8465 11.8576Z" fill="#235697"/>
<path opacity="0.5" d="M15.8465 11.8576C15.2833 12.1609 14.4308 12.1993 14.075 12.5008C13.8964 12.1977 13.7411 11.8814 13.6104 11.5549C14.2113 11.4269 15.1297 11.4352 15.3819 10.911C15.5603 11.2144 15.7157 11.5308 15.8465 11.8576Z" fill="white"/>
<path opacity="0.2" d="M15.4676 11.1433C15.4305 11.192 15.3652 11.1683 15.3288 11.0966C15.0088 11.4371 14.3201 11.4742 13.7992 11.5715C13.8048 11.5856 13.8073 11.6008 13.8064 11.6159C13.8056 11.6311 13.8014 11.6459 13.7942 11.6592C13.787 11.6726 13.7769 11.6842 13.7647 11.6933C13.7525 11.7024 13.7385 11.7086 13.7236 11.7117C13.8004 11.8934 13.89 12.0841 14.0001 12.2877C14.05 12.2627 14.1224 12.3017 14.1601 12.3753C14.5262 12.1673 15.1784 12.1046 15.6776 11.8915C15.6681 11.8595 15.6692 11.8252 15.6808 11.7939C15.6923 11.7625 15.7136 11.7357 15.7416 11.7174C15.6654 11.5363 15.5764 11.3462 15.4676 11.1414V11.1433ZM14.8072 11.9901C14.7399 12.0086 14.6681 12.0021 14.6052 11.9718C14.5424 11.9414 14.4927 11.8892 14.4654 11.8249C14.4225 11.7008 14.516 11.5817 14.667 11.5491C14.818 11.5165 14.9665 11.5824 15.0068 11.7053C15.0472 11.8281 14.9556 11.9561 14.8072 11.9901Z" fill="black"/>
<g opacity="0.2">
<path d="M14.8021 11.88C14.8059 11.8909 14.8091 11.9018 14.8123 11.9127L14.7829 11.9197C14.7829 11.9088 14.7758 11.8979 14.7726 11.8871C14.7407 11.8931 14.7077 11.8914 14.6766 11.8819C14.6766 11.8704 14.6811 11.8595 14.6837 11.8487C14.7089 11.8574 14.736 11.8596 14.7624 11.8551C14.7566 11.8359 14.7502 11.8167 14.7438 11.7968C14.7016 11.7968 14.6549 11.7968 14.6421 11.7552C14.6325 11.7258 14.651 11.6944 14.7061 11.6778C14.7022 11.6669 14.699 11.656 14.6952 11.6451L14.7253 11.6387C14.7253 11.6496 14.7317 11.6605 14.7355 11.6714C14.7615 11.6659 14.7883 11.6659 14.8142 11.6714L14.8085 11.704C14.7873 11.7004 14.7656 11.7004 14.7445 11.704C14.7509 11.7232 14.7573 11.7431 14.763 11.7629C14.8059 11.7629 14.8526 11.7629 14.8654 11.8026C14.8763 11.8307 14.8571 11.8627 14.8021 11.88ZM14.7329 11.7616C14.7272 11.7443 14.7221 11.7271 14.7163 11.7098C14.692 11.7187 14.6843 11.7315 14.6881 11.7443C14.692 11.7571 14.7105 11.761 14.7329 11.7616ZM14.8213 11.8141C14.8168 11.8 14.7989 11.7968 14.7758 11.7968C14.7809 11.8141 14.7867 11.8314 14.7918 11.848C14.8174 11.8391 14.8225 11.8269 14.8225 11.8141H14.8213Z" fill="black"/>
</g>
<path d="M20.45 7.82496C19.7857 8.04896 19.1322 8.32608 18.6375 8.75808C18.4621 8.49824 18.2817 8.23392 18.1172 7.9568C18.6708 7.53376 19.3165 7.26688 19.9297 7.02368C20.105 7.28352 20.2855 7.54784 20.45 7.82496Z" fill="#235697"/>
<path opacity="0.5" d="M20.45 7.82496C19.7857 8.04896 19.1322 8.32608 18.6375 8.75808C18.4621 8.49824 18.2817 8.23392 18.1172 7.9568C18.6708 7.53376 19.3165 7.26688 19.9297 7.02368C20.105 7.28352 20.2855 7.54784 20.45 7.82496Z" fill="white"/>
<path opacity="0.2" d="M19.9816 7.18947C19.9476 7.20197 19.9105 7.20305 19.8758 7.19254C19.8412 7.18203 19.8109 7.1605 19.7896 7.13123C19.2814 7.33667 18.7592 7.56387 18.2933 7.88963C18.3106 7.92116 18.3161 7.95787 18.3087 7.9931C18.3013 8.02834 18.2815 8.05975 18.2529 8.08163C18.3579 8.25123 18.4673 8.41635 18.5768 8.57955C18.5892 8.56885 18.6039 8.56098 18.6196 8.55647C18.6354 8.55196 18.652 8.55091 18.6682 8.55341C18.6845 8.5559 18.7 8.56187 18.7137 8.57091C18.7274 8.57995 18.739 8.59185 18.7477 8.60579C19.179 8.27299 19.7077 8.03875 20.2453 7.84483C20.2364 7.83102 20.231 7.81533 20.2294 7.79904C20.2278 7.78274 20.23 7.7663 20.236 7.75103C20.2419 7.73577 20.2513 7.72211 20.2635 7.71116C20.2757 7.70022 20.2902 7.69229 20.3061 7.68803C20.2011 7.51907 20.091 7.35395 19.9822 7.19075L19.9816 7.18947ZM19.3569 8.03107C19.2937 8.06476 19.2202 8.07399 19.1506 8.05699C19.0809 8.04 19.02 7.99796 18.9793 7.93891C18.9617 7.90945 18.9504 7.87659 18.9464 7.84249C18.9423 7.80838 18.9456 7.77381 18.9558 7.74104C18.9661 7.70827 18.9832 7.67804 19.006 7.65236C19.0288 7.62668 19.0568 7.60611 19.0881 7.59203C19.1537 7.55968 19.2289 7.55231 19.2995 7.57126C19.3702 7.59022 19.4315 7.63422 19.4721 7.69507C19.4893 7.72413 19.5 7.75658 19.5034 7.79016C19.5068 7.82375 19.5029 7.85768 19.492 7.88961C19.481 7.92155 19.4633 7.95073 19.44 7.97515C19.4166 7.99957 19.3883 8.01865 19.3569 8.03107Z" fill="black"/>
<g opacity="0.2">
<path d="M19.3193 7.91581L19.3391 7.94845L19.3123 7.96125L19.2924 7.92925C19.2631 7.94293 19.2306 7.94846 19.1983 7.94525C19.1983 7.93309 19.1983 7.92029 19.1951 7.90813C19.2216 7.91153 19.2485 7.908 19.2732 7.89789C19.2617 7.87805 19.2495 7.85885 19.2374 7.83965C19.1964 7.84989 19.1516 7.85885 19.1273 7.81853C19.1087 7.78909 19.1171 7.75069 19.1651 7.72125L19.1446 7.68797L19.1715 7.67517L19.1913 7.70717C19.2155 7.69677 19.2418 7.69195 19.2681 7.69309C19.2681 7.70461 19.2713 7.71677 19.2732 7.72893C19.2515 7.72812 19.2298 7.73137 19.2092 7.73853L19.2451 7.79741C19.286 7.78781 19.3321 7.77885 19.3571 7.81917C19.3763 7.84861 19.3667 7.88573 19.3193 7.91581ZM19.2163 7.80445L19.1843 7.75261C19.1631 7.76733 19.1599 7.78269 19.1676 7.79549C19.1753 7.80829 19.1939 7.80893 19.2163 7.80445ZM19.318 7.84157C19.3091 7.82749 19.2905 7.82813 19.2681 7.83261L19.2995 7.88381C19.3212 7.86909 19.3257 7.85437 19.318 7.84285V7.84157Z" fill="black"/>
</g>
<path d="M8.75424 14.648C8.2704 14.1437 7.48384 14.191 7 13.688C7.15232 13.4098 7.30485 13.1314 7.4576 12.8528C7.94144 13.3571 8.728 13.3104 9.21184 13.8128C9.05952 14.0914 8.90699 14.3698 8.75424 14.648Z" fill="#235697"/>
<path opacity="0.5" d="M8.75424 14.648C8.2704 14.1437 7.48384 14.191 7 13.688C7.15232 13.4098 7.30485 13.1314 7.4576 12.8528C7.94144 13.3571 8.728 13.3104 9.21184 13.8128C9.05952 14.0914 8.90699 14.3698 8.75424 14.648Z" fill="white"/>
<path opacity="0.2" d="M9.08849 13.9331C9.06157 13.9082 9.04334 13.8753 9.03643 13.8393C9.02952 13.8032 9.03431 13.7659 9.05009 13.7328C8.61233 13.3936 8.00817 13.3584 7.57041 13.0186C7.56355 13.0333 7.5532 13.0461 7.54028 13.0559C7.52735 13.0657 7.51222 13.0722 7.49621 13.0749C7.4802 13.0775 7.46379 13.0762 7.44839 13.0711C7.43299 13.066 7.41908 13.0572 7.40785 13.0454L7.12305 13.5664C7.14971 13.5914 7.16774 13.6242 7.17453 13.6601C7.18132 13.696 7.17651 13.7331 7.16081 13.7661C7.59857 14.1059 8.20273 14.1411 8.64049 14.481C8.64728 14.4662 8.65758 14.4533 8.67048 14.4435C8.68337 14.4336 8.69849 14.427 8.7145 14.4243C8.73052 14.4216 8.74696 14.4228 8.76239 14.4279C8.77782 14.433 8.79177 14.4417 8.80305 14.4534L9.08785 13.9331H9.08849ZM7.97489 13.9651C7.94299 13.9548 7.91382 13.9375 7.88954 13.9144C7.86526 13.8912 7.84649 13.863 7.83463 13.8316C7.82277 13.8003 7.81811 13.7667 7.82101 13.7333C7.82391 13.6999 7.83428 13.6676 7.85137 13.6387C7.8891 13.5756 7.94744 13.5273 8.01656 13.5022C8.08569 13.477 8.16138 13.4764 8.23089 13.5005C8.2628 13.5105 8.29203 13.5277 8.31638 13.5507C8.34074 13.5736 8.35959 13.6018 8.37153 13.633C8.38347 13.6643 8.38819 13.6979 8.38533 13.7312C8.38248 13.7645 8.37213 13.7968 8.35505 13.8256C8.31749 13.8891 8.25912 13.9377 8.18984 13.9631C8.12056 13.9886 8.04462 13.9893 7.97489 13.9651Z" fill="black"/>
<g opacity="0.2">
<path d="M8.06118 13.8659C8.05542 13.8774 8.04902 13.8889 8.04262 13.9005L8.0151 13.8902L8.03366 13.8563C8.00569 13.8458 7.98189 13.8265 7.96582 13.8013L7.99782 13.7757C8.01075 13.7966 8.02971 13.8131 8.05222 13.823C8.0631 13.8025 8.07462 13.7821 8.08614 13.759C8.0535 13.7373 8.02214 13.7117 8.04326 13.6688C8.05482 13.6509 8.07226 13.6375 8.0926 13.6311C8.11293 13.6247 8.13486 13.6256 8.15462 13.6336L8.17382 13.5984L8.20134 13.6086L8.18214 13.6425C8.20503 13.6514 8.22499 13.6665 8.23974 13.6861L8.20902 13.7117C8.19686 13.6966 8.18157 13.6844 8.16422 13.6758L8.1303 13.7398C8.16294 13.7616 8.1943 13.7872 8.17382 13.8301C8.16205 13.8481 8.14441 13.8615 8.12389 13.8681C8.10336 13.8746 8.08121 13.8738 8.06118 13.8659ZM8.10598 13.7245L8.13606 13.6694C8.11046 13.6643 8.09446 13.6694 8.08742 13.6854C8.08038 13.7014 8.08998 13.7117 8.10598 13.7245ZM8.12966 13.8179C8.13798 13.8025 8.12966 13.7904 8.10982 13.7776L8.07974 13.832C8.10598 13.8377 8.12198 13.8307 8.12966 13.8179Z" fill="black"/>
</g>
<path d="M24.5851 12.0823C24.1281 12.6339 23.3409 12.3383 22.8839 12.7792C22.7169 12.4765 22.5499 12.1853 22.3828 11.9152C22.8398 11.3635 23.627 11.6592 24.0839 11.2183C24.251 11.521 24.418 11.8109 24.5851 12.0823Z" fill="#235697"/>
<path opacity="0.5" d="M24.5851 12.0823C24.1281 12.6339 23.3409 12.3383 22.8839 12.7792C22.7169 12.4765 22.5499 12.1853 22.3828 11.9152C22.8398 11.3635 23.627 11.6592 24.0839 11.2183C24.251 11.521 24.418 11.8109 24.5851 12.0823Z" fill="white"/>
<path opacity="0.2" d="M24.1424 11.4211C24.0919 11.4665 24.0144 11.439 23.9786 11.3693C23.5594 11.6393 22.9578 11.4928 22.5392 11.8333C22.5567 11.8652 22.5634 11.9019 22.5584 11.938C22.5535 11.974 22.5371 12.0075 22.5117 12.0336C22.6154 12.2083 22.7197 12.3901 22.824 12.5769C22.8746 12.5315 22.952 12.559 22.9879 12.6281C23.4064 12.3581 24.008 12.5046 24.4272 12.1648C24.4097 12.133 24.4028 12.0964 24.4078 12.0604C24.4128 12.0244 24.4292 11.991 24.4548 11.9651C24.3504 11.791 24.2461 11.6086 24.1424 11.4217V11.4211ZM23.6042 12.2493C23.4672 12.2678 23.2964 12.1686 23.2202 12.0246C23.144 11.8806 23.1895 11.7405 23.3258 11.7213C23.4621 11.7021 23.6343 11.8025 23.7098 11.9465C23.7853 12.0905 23.7412 12.2301 23.6042 12.2493Z" fill="black"/>
<g opacity="0.2">
<path d="M23.5654 12.1219L23.5859 12.1609L23.5597 12.1648L23.5386 12.1257C23.5058 12.1285 23.4729 12.1225 23.4432 12.1084L23.4394 12.0707C23.464 12.083 23.4912 12.0889 23.5187 12.088L23.4822 12.0182C23.4598 12.0189 23.4377 12.0137 23.4179 12.0032C23.3981 11.9926 23.3815 11.9771 23.3696 11.9581C23.3641 11.9506 23.3607 11.9419 23.3597 11.9327C23.3587 11.9236 23.3602 11.9143 23.3639 11.9059C23.3677 11.8975 23.3737 11.8902 23.3812 11.8849C23.3887 11.8795 23.3975 11.8763 23.4067 11.8755L23.3856 11.8358L23.4125 11.832L23.433 11.871C23.4595 11.8691 23.4862 11.8731 23.511 11.8825C23.511 11.8953 23.5142 11.9075 23.5162 11.9196C23.4957 11.912 23.474 11.9083 23.4522 11.9088L23.4899 11.9792C23.5123 11.9784 23.5344 11.9835 23.5542 11.9939C23.5739 12.0044 23.5906 12.0198 23.6026 12.0387C23.608 12.0462 23.6114 12.0549 23.6124 12.0641C23.6134 12.0733 23.6119 12.0826 23.6081 12.0911C23.6044 12.0995 23.5984 12.1068 23.5909 12.1122C23.5834 12.1176 23.5746 12.121 23.5654 12.1219ZM23.463 11.976L23.4298 11.912C23.4086 11.9197 23.4054 11.9337 23.4138 11.9491C23.4191 11.9573 23.4264 11.964 23.435 11.9687C23.4436 11.9734 23.4533 11.9759 23.463 11.976ZM23.5667 12.0476C23.5609 12.0397 23.5533 12.0331 23.5445 12.0286C23.5358 12.024 23.526 12.0216 23.5162 12.0214L23.5488 12.0854C23.5674 12.0764 23.5712 12.063 23.5635 12.0476H23.5667Z" fill="black"/>
</g>
<path d="M18.5932 11.1491C17.9807 10.8061 17.4201 10.0662 16.9375 9.90688C17.09 9.59022 17.2688 9.28687 17.4719 9C17.9545 9.46784 18.5151 10.2902 19.1276 10.2416C18.9746 10.5582 18.7959 10.8618 18.5932 11.1491Z" fill="#235697"/>
<path opacity="0.5" d="M18.5932 11.1491C17.9807 10.8061 17.4201 10.0662 16.9375 9.90688C17.09 9.59022 17.2688 9.28687 17.4719 9C17.9545 9.46784 18.5151 10.2902 19.1276 10.2416C18.9746 10.5582 18.7959 10.8618 18.5932 11.1491Z" fill="white"/>
<path opacity="0.2" d="M18.9827 10.4375C18.9187 10.4298 18.8976 10.3594 18.9373 10.289C18.4432 10.1827 17.985 9.58498 17.5779 9.17474C17.568 9.18727 17.5554 9.19748 17.5411 9.20468C17.5268 9.21188 17.5111 9.21589 17.4951 9.21643C17.4791 9.21698 17.4632 9.21405 17.4484 9.20785C17.4337 9.20165 17.4204 9.19232 17.4096 9.1805C17.2891 9.3575 17.1779 9.54057 17.0762 9.72898C17.1028 9.75166 17.12 9.78352 17.1243 9.81825C17.1285 9.85298 17.1196 9.88805 17.0992 9.9165C17.5069 10.1341 17.9645 10.6845 18.4592 11.0154C18.483 10.9894 18.5147 10.9719 18.5494 10.9658C18.5842 10.9597 18.6199 10.9652 18.6512 10.9815C18.7713 10.8057 18.8824 10.6239 18.984 10.4368L18.9827 10.4375ZM17.8346 10.2909C17.713 10.1776 17.6848 10.0029 17.7667 9.9005C17.8487 9.7981 18.0106 9.81858 18.1322 9.9357C18.2538 10.0528 18.2883 10.2199 18.2064 10.3197C18.1245 10.4195 17.9587 10.4055 17.8346 10.2909Z" fill="black"/>
<g opacity="0.2">
<path d="M17.9274 10.2269L17.9056 10.2531L17.8813 10.2307C17.889 10.2217 17.896 10.2128 17.9037 10.2045C17.8786 10.1798 17.8598 10.1495 17.8486 10.1161L17.8819 10.1046C17.8904 10.1323 17.9051 10.1577 17.9248 10.1789L17.9638 10.1315C17.937 10.0944 17.9094 10.0521 17.937 10.0195C17.9645 9.98687 17.9965 9.99583 18.0445 10.0361C18.0522 10.0278 18.0592 10.0189 18.0669 10.0099L18.0906 10.0329L18.0688 10.0592C18.0889 10.0794 18.105 10.1033 18.1162 10.1296L18.0842 10.1424C18.0752 10.1211 18.0629 10.1015 18.0477 10.0841L18.008 10.1315C18.0349 10.1686 18.0637 10.2109 18.0362 10.2435C18.0086 10.2761 17.9766 10.2691 17.9274 10.2269ZM17.9914 10.1033L18.0259 10.0617C18.0035 10.0445 17.9875 10.0445 17.9792 10.0547C17.9709 10.0649 17.9747 10.0854 17.9882 10.1059L17.9914 10.1033ZM18.0003 10.2096C18.0099 10.1981 18.0003 10.1808 17.9869 10.1597L17.9523 10.2013C17.9728 10.2217 17.9882 10.2224 17.9971 10.2121L18.0003 10.2096Z" fill="black"/>
</g>
<path d="M23.8465 13.8576C23.2833 14.1609 22.4308 14.1993 22.075 14.5008C21.8964 14.1977 21.7411 13.8814 21.6104 13.5549C22.2113 13.4269 23.1297 13.4352 23.3819 12.911C23.5603 13.2144 23.7157 13.5308 23.8465 13.8576Z" fill="#235697"/>
<path opacity="0.5" d="M23.8465 13.8576C23.2833 14.1609 22.4308 14.1993 22.075 14.5008C21.8964 14.1977 21.7411 13.8814 21.6104 13.5549C22.2113 13.4269 23.1297 13.4352 23.3819 12.911C23.5603 13.2144 23.7157 13.5308 23.8465 13.8576Z" fill="white"/>
<path opacity="0.2" d="M23.4676 13.1433C23.4305 13.192 23.3652 13.1683 23.3288 13.0966C23.0088 13.4371 22.3201 13.4742 21.7992 13.5715C21.8048 13.5856 21.8073 13.6008 21.8064 13.6159C21.8056 13.6311 21.8014 13.6459 21.7942 13.6592C21.787 13.6726 21.7769 13.6842 21.7647 13.6933C21.7525 13.7024 21.7385 13.7086 21.7236 13.7117C21.8004 13.8934 21.89 14.0841 22.0001 14.2877C22.05 14.2627 22.1224 14.3017 22.1601 14.3753C22.5262 14.1673 23.1784 14.1046 23.6776 13.8915C23.6681 13.8595 23.6692 13.8252 23.6808 13.7939C23.6923 13.7625 23.7136 13.7357 23.7416 13.7174C23.6654 13.5363 23.5764 13.3462 23.4676 13.1414V13.1433ZM22.8072 13.9901C22.7399 14.0086 22.6681 14.0021 22.6052 13.9718C22.5424 13.9414 22.4927 13.8892 22.4654 13.8249C22.4225 13.7008 22.516 13.5817 22.667 13.5491C22.818 13.5165 22.9665 13.5824 23.0068 13.7053C23.0472 13.8281 22.9556 13.9561 22.8072 13.9901Z" fill="black"/>
<g opacity="0.2">
<path d="M22.8021 13.88C22.8059 13.8909 22.8091 13.9018 22.8123 13.9127L22.7829 13.9197C22.7829 13.9088 22.7758 13.8979 22.7726 13.8871C22.7407 13.8931 22.7077 13.8914 22.6766 13.8819C22.6766 13.8704 22.6811 13.8595 22.6837 13.8487C22.7089 13.8574 22.736 13.8596 22.7624 13.8551C22.7566 13.8359 22.7502 13.8167 22.7438 13.7968C22.7016 13.7968 22.6549 13.7968 22.6421 13.7552C22.6325 13.7258 22.651 13.6944 22.7061 13.6778C22.7022 13.6669 22.699 13.656 22.6952 13.6451L22.7253 13.6387C22.7253 13.6496 22.7317 13.6605 22.7355 13.6714C22.7615 13.6659 22.7883 13.6659 22.8142 13.6714L22.8085 13.704C22.7873 13.7004 22.7656 13.7004 22.7445 13.704C22.7509 13.7232 22.7573 13.7431 22.763 13.7629C22.8059 13.7629 22.8526 13.7629 22.8654 13.8026C22.8763 13.8307 22.8571 13.8627 22.8021 13.88ZM22.7329 13.7616C22.7272 13.7443 22.7221 13.7271 22.7163 13.7098C22.692 13.7187 22.6843 13.7315 22.6881 13.7443C22.692 13.7571 22.7105 13.761 22.7329 13.7616ZM22.8213 13.8141C22.8168 13.8 22.7989 13.7968 22.7758 13.7968C22.7809 13.8141 22.7867 13.8314 22.7918 13.848C22.8174 13.8391 22.8225 13.8269 22.8225 13.8141H22.8213Z" fill="black"/>
</g>
<path d="M28.45 9.82496C27.7857 10.049 27.1322 10.3261 26.6375 10.7581C26.4621 10.4982 26.2817 10.2339 26.1172 9.9568C26.6708 9.53376 27.3165 9.26688 27.9297 9.02368C28.105 9.28352 28.2855 9.54784 28.45 9.82496Z" fill="#235697"/>
<path opacity="0.5" d="M28.45 9.82496C27.7857 10.049 27.1322 10.3261 26.6375 10.7581C26.4621 10.4982 26.2817 10.2339 26.1172 9.9568C26.6708 9.53376 27.3165 9.26688 27.9297 9.02368C28.105 9.28352 28.2855 9.54784 28.45 9.82496Z" fill="white"/>
<path opacity="0.2" d="M27.9816 9.18947C27.9476 9.20197 27.9105 9.20305 27.8758 9.19254C27.8412 9.18203 27.8109 9.1605 27.7896 9.13123C27.2814 9.33667 26.7592 9.56387 26.2933 9.88963C26.3106 9.92116 26.3161 9.95787 26.3087 9.9931C26.3013 10.0283 26.2815 10.0597 26.2529 10.0816C26.3579 10.2512 26.4673 10.4163 26.5768 10.5795C26.5892 10.5689 26.6039 10.561 26.6196 10.5565C26.6354 10.552 26.652 10.5509 26.6682 10.5534C26.6845 10.5559 26.7 10.5619 26.7137 10.5709C26.7274 10.58 26.739 10.5918 26.7477 10.6058C27.179 10.273 27.7077 10.0387 28.2453 9.84483C28.2364 9.83102 28.231 9.81533 28.2294 9.79904C28.2278 9.78274 28.23 9.7663 28.236 9.75103C28.2419 9.73577 28.2513 9.72211 28.2635 9.71116C28.2757 9.70022 28.2902 9.69229 28.3061 9.68803C28.2011 9.51907 28.091 9.35395 27.9822 9.19075L27.9816 9.18947ZM27.3569 10.0311C27.2937 10.0648 27.2202 10.074 27.1506 10.057C27.0809 10.04 27.02 9.99796 26.9793 9.93891C26.9617 9.90945 26.9504 9.87659 26.9464 9.84249C26.9423 9.80838 26.9456 9.77381 26.9558 9.74104C26.9661 9.70827 26.9832 9.67804 27.006 9.65236C27.0288 9.62668 27.0568 9.60611 27.0881 9.59203C27.1537 9.55968 27.2289 9.55231 27.2995 9.57126C27.3702 9.59022 27.4315 9.63422 27.4721 9.69507C27.4893 9.72413 27.5 9.75658 27.5034 9.79016C27.5068 9.82375 27.5029 9.85768 27.492 9.88961C27.481 9.92155 27.4633 9.95073 27.44 9.97515C27.4166 9.99957 27.3883 10.0186 27.3569 10.0311Z" fill="black"/>
<g opacity="0.2">
<path d="M27.3193 9.91581L27.3391 9.94845L27.3123 9.96125L27.2924 9.92925C27.2631 9.94293 27.2306 9.94846 27.1983 9.94525C27.1983 9.93309 27.1983 9.92029 27.1951 9.90813C27.2216 9.91153 27.2485 9.908 27.2732 9.89789C27.2617 9.87805 27.2495 9.85885 27.2374 9.83965C27.1964 9.84989 27.1516 9.85885 27.1273 9.81853C27.1087 9.78909 27.1171 9.75069 27.1651 9.72125L27.1446 9.68797L27.1715 9.67517L27.1913 9.70717C27.2155 9.69677 27.2418 9.69195 27.2681 9.69309C27.2681 9.70461 27.2713 9.71677 27.2732 9.72893C27.2515 9.72812 27.2298 9.73137 27.2092 9.73853L27.2451 9.79741C27.286 9.78781 27.3321 9.77885 27.3571 9.81917C27.3763 9.84861 27.3667 9.88573 27.3193 9.91581ZM27.2163 9.80445L27.1843 9.75261C27.1631 9.76733 27.1599 9.78269 27.1676 9.79549C27.1753 9.80829 27.1939 9.80893 27.2163 9.80445ZM27.318 9.84157C27.3091 9.82749 27.2905 9.82813 27.2681 9.83261L27.2995 9.88381C27.3212 9.86909 27.3257 9.85437 27.318 9.84285V9.84157Z" fill="black"/>
</g>
<path d="M16.7542 16.648C16.2704 16.1437 15.4838 16.191 15 15.688C15.1523 15.4098 15.3049 15.1314 15.4576 14.8528C15.9414 15.3571 16.728 15.3104 17.2118 15.8128C17.0595 16.0914 16.907 16.3698 16.7542 16.648Z" fill="#235697"/>
<path opacity="0.5" d="M16.7542 16.648C16.2704 16.1437 15.4838 16.191 15 15.688C15.1523 15.4098 15.3049 15.1314 15.4576 14.8528C15.9414 15.3571 16.728 15.3104 17.2118 15.8128C17.0595 16.0914 16.907 16.3698 16.7542 16.648Z" fill="white"/>
<path opacity="0.2" d="M17.0885 15.9331C17.0616 15.9082 17.0433 15.8753 17.0364 15.8393C17.0295 15.8032 17.0343 15.7659 17.0501 15.7328C16.6123 15.3936 16.0082 15.3584 15.5704 15.0186C15.5635 15.0333 15.5532 15.0461 15.5403 15.0559C15.5273 15.0657 15.5122 15.0722 15.4962 15.0749C15.4802 15.0775 15.4638 15.0762 15.4484 15.0711C15.433 15.066 15.4191 15.0572 15.4078 15.0454L15.123 15.5664C15.1497 15.5914 15.1677 15.6242 15.1745 15.6601C15.1813 15.696 15.1765 15.7331 15.1608 15.7661C15.5986 16.1059 16.2027 16.1411 16.6405 16.481C16.6473 16.4662 16.6576 16.4533 16.6705 16.4435C16.6834 16.4336 16.6985 16.427 16.7145 16.4243C16.7305 16.4216 16.747 16.4228 16.7624 16.4279C16.7778 16.433 16.7918 16.4417 16.803 16.4534L17.0878 15.9331H17.0885ZM15.9749 15.9651C15.943 15.9548 15.9138 15.9375 15.8895 15.9144C15.8653 15.8912 15.8465 15.863 15.8346 15.8316C15.8228 15.8003 15.8181 15.7667 15.821 15.7333C15.8239 15.6999 15.8343 15.6676 15.8514 15.6387C15.8891 15.5756 15.9474 15.5273 16.0166 15.5022C16.0857 15.477 16.1614 15.4764 16.2309 15.5005C16.2628 15.5105 16.292 15.5277 16.3164 15.5507C16.3407 15.5736 16.3596 15.6018 16.3715 15.633C16.3835 15.6643 16.3882 15.6979 16.3853 15.7312C16.3825 15.7645 16.3721 15.7968 16.355 15.8256C16.3175 15.8891 16.2591 15.9377 16.1898 15.9631C16.1206 15.9886 16.0446 15.9893 15.9749 15.9651Z" fill="black"/>
<g opacity="0.2">
<path d="M16.0612 15.8659C16.0554 15.8774 16.049 15.8889 16.0426 15.9005L16.0151 15.8902L16.0337 15.8563C16.0057 15.8458 15.9819 15.8265 15.9658 15.8013L15.9978 15.7757C16.0107 15.7966 16.0297 15.8131 16.0522 15.823C16.0631 15.8025 16.0746 15.7821 16.0861 15.759C16.0535 15.7373 16.0221 15.7117 16.0433 15.6688C16.0548 15.6509 16.0723 15.6375 16.0926 15.6311C16.1129 15.6247 16.1349 15.6256 16.1546 15.6336L16.1738 15.5984L16.2013 15.6086L16.1821 15.6425C16.205 15.6514 16.225 15.6665 16.2397 15.6861L16.209 15.7117C16.1969 15.6966 16.1816 15.6844 16.1642 15.6758L16.1303 15.7398C16.1629 15.7616 16.1943 15.7872 16.1738 15.8301C16.1621 15.8481 16.1444 15.8615 16.1239 15.8681C16.1034 15.8746 16.0812 15.8738 16.0612 15.8659ZM16.106 15.7245L16.1361 15.6694C16.1105 15.6643 16.0945 15.6694 16.0874 15.6854C16.0804 15.7014 16.09 15.7117 16.106 15.7245ZM16.1297 15.8179C16.138 15.8025 16.1297 15.7904 16.1098 15.7776L16.0797 15.832C16.106 15.8377 16.122 15.8307 16.1297 15.8179Z" fill="black"/>
</g>
<path d="M32.5851 14.0823C32.1281 14.6339 31.3409 14.3383 30.8839 14.7792C30.7169 14.4765 30.5499 14.1853 30.3828 13.9152C30.8398 13.3635 31.627 13.6592 32.0839 13.2183C32.251 13.521 32.418 13.8109 32.5851 14.0823Z" fill="#235697"/>
<path opacity="0.5" d="M32.5851 14.0823C32.1281 14.6339 31.3409 14.3383 30.8839 14.7792C30.7169 14.4765 30.5499 14.1853 30.3828 13.9152C30.8398 13.3635 31.627 13.6592 32.0839 13.2183C32.251 13.521 32.418 13.8109 32.5851 14.0823Z" fill="white"/>
<path opacity="0.2" d="M32.1424 13.4211C32.0919 13.4665 32.0144 13.439 31.9786 13.3693C31.5594 13.6393 30.9578 13.4928 30.5392 13.8333C30.5567 13.8652 30.5634 13.9019 30.5584 13.938C30.5535 13.974 30.5371 14.0075 30.5117 14.0336C30.6154 14.2083 30.7197 14.3901 30.824 14.5769C30.8746 14.5315 30.952 14.559 30.9879 14.6281C31.4064 14.3581 32.008 14.5046 32.4272 14.1648C32.4097 14.133 32.4028 14.0964 32.4078 14.0604C32.4128 14.0244 32.4292 13.991 32.4548 13.9651C32.3504 13.791 32.2461 13.6086 32.1424 13.4217V13.4211ZM31.6042 14.2493C31.4672 14.2678 31.2964 14.1686 31.2202 14.0246C31.144 13.8806 31.1895 13.7405 31.3258 13.7213C31.4621 13.7021 31.6343 13.8025 31.7098 13.9465C31.7853 14.0905 31.7412 14.2301 31.6042 14.2493Z" fill="black"/>
<g opacity="0.2">
<path d="M31.5654 14.1219L31.5859 14.1609L31.5597 14.1648L31.5386 14.1257C31.5058 14.1285 31.4729 14.1225 31.4432 14.1084L31.4394 14.0707C31.464 14.083 31.4912 14.0889 31.5187 14.088L31.4822 14.0182C31.4598 14.0189 31.4377 14.0137 31.4179 14.0032C31.3981 13.9926 31.3815 13.9771 31.3696 13.9581C31.3641 13.9506 31.3607 13.9419 31.3597 13.9327C31.3587 13.9236 31.3602 13.9143 31.3639 13.9059C31.3677 13.8975 31.3737 13.8902 31.3812 13.8849C31.3887 13.8795 31.3975 13.8763 31.4067 13.8755L31.3856 13.8358L31.4125 13.832L31.433 13.871C31.4595 13.8691 31.4862 13.8731 31.511 13.8825C31.511 13.8953 31.5142 13.9075 31.5162 13.9196C31.4957 13.912 31.474 13.9083 31.4522 13.9088L31.4899 13.9792C31.5123 13.9784 31.5344 13.9835 31.5542 13.9939C31.5739 14.0044 31.5906 14.0198 31.6026 14.0387C31.608 14.0462 31.6114 14.0549 31.6124 14.0641C31.6134 14.0733 31.6119 14.0826 31.6081 14.0911C31.6044 14.0995 31.5984 14.1068 31.5909 14.1122C31.5834 14.1176 31.5746 14.121 31.5654 14.1219ZM31.463 13.976L31.4298 13.912C31.4086 13.9197 31.4054 13.9337 31.4138 13.9491C31.4191 13.9573 31.4264 13.964 31.435 13.9687C31.4436 13.9734 31.4533 13.9759 31.463 13.976ZM31.5667 14.0476C31.5609 14.0397 31.5533 14.0331 31.5445 14.0286C31.5358 14.024 31.526 14.0216 31.5162 14.0214L31.5488 14.0854C31.5674 14.0764 31.5712 14.063 31.5635 14.0476H31.5667Z" fill="black"/>
</g>
<path d="M36 26.9536H4V26.9696H36V26.9536Z" fill="#EBEBEB"/>
<path d="M32.7935 27.9833H30.6738V27.9993H32.7935V27.9833Z" fill="#EBEBEB"/>
<path d="M25.1978 28.1575H24.6416V28.1735H25.1978V28.1575Z" fill="#EBEBEB"/>
<path d="M30.61 27.3895H29.3818V27.4055H30.61V27.3895Z" fill="#EBEBEB"/>
<path d="M10.1216 27.4969H7.35742V27.5129H10.1216V27.4969Z" fill="#EBEBEB"/>
<path d="M11.0965 27.4969H10.6914V27.5129H11.0965V27.4969Z" fill="#EBEBEB"/>
<path d="M18.4096 27.767H12.4141V27.783H18.4096V27.767Z" fill="#EBEBEB"/>
<path d="M19.1679 24.0992H6.81011C6.7133 24.099 6.62052 24.0605 6.55212 23.9919C6.48373 23.9234 6.44531 23.8306 6.44531 23.7338V6.36224C6.44616 6.26599 6.48494 6.17395 6.55324 6.10613C6.62155 6.0383 6.71385 6.00016 6.81011 6H19.1679C19.2648 6 19.3577 6.0385 19.4263 6.10703C19.4948 6.17557 19.5333 6.26852 19.5333 6.36544V23.7338C19.5333 23.8307 19.4948 23.9236 19.4263 23.9922C19.3577 24.0607 19.2648 24.0992 19.1679 24.0992ZM6.81011 6.0128C6.71755 6.01297 6.62883 6.04986 6.56343 6.11537C6.49804 6.18089 6.46131 6.26967 6.46131 6.36224V23.7338C6.46131 23.8263 6.49804 23.9151 6.56343 23.9806C6.62883 24.0461 6.71755 24.083 6.81011 24.0832H19.1679C19.2605 24.083 19.3493 24.0462 19.4148 23.9807C19.4803 23.9152 19.5171 23.8264 19.5173 23.7338V6.36224C19.5171 6.26961 19.4803 6.18083 19.4148 6.11534C19.3493 6.04984 19.2605 6.01297 19.1679 6.0128H6.81011Z" fill="#EBEBEB"/>
<path d="M33.0119 24.0992H20.6535C20.5567 24.099 20.4638 24.0605 20.3953 23.992C20.3268 23.9235 20.2883 23.8306 20.2881 23.7338V6.36224C20.2891 6.26593 20.328 6.17389 20.3964 6.10609C20.4648 6.03828 20.5572 6.00016 20.6535 6H33.0119C33.1081 6.00033 33.2002 6.03854 33.2684 6.10635C33.3365 6.17416 33.3752 6.2661 33.3761 6.36224V23.7338C33.3761 23.8305 33.3378 23.9232 33.2695 23.9917C33.2012 24.0602 33.1086 24.0989 33.0119 24.0992ZM20.6535 6.0128C20.5609 6.01297 20.4721 6.04984 20.4066 6.11534C20.3411 6.18083 20.3043 6.26961 20.3041 6.36224V23.7338C20.3043 23.8264 20.3411 23.9152 20.4066 23.9807C20.4721 24.0462 20.5609 24.083 20.6535 24.0832H33.0119C33.1046 24.083 33.1933 24.0462 33.2588 23.9807C33.3243 23.9152 33.3612 23.8264 33.3614 23.7338V6.36224C33.3612 6.26961 33.3243 6.18083 33.2588 6.11534C33.1933 6.04984 33.1046 6.01297 33.0119 6.0128H20.6535Z" fill="#EBEBEB"/>
<path d="M18.4058 9.77663L19.0669 9.67999L18.4058 9.58335L18.569 9.32479L18.3104 9.48799L18.2138 8.82751L18.1172 9.48799L17.8586 9.32479L18.0224 9.58335L17.3613 9.67999L18.0224 9.77663L17.8586 10.0352L18.1172 9.87135L18.2138 10.5325L18.3104 9.87135L18.569 10.0352L18.4058 9.77663Z" fill="#F5F5F5"/>
<path d="M25.0513 11.5411L25.7118 11.4445L25.0513 11.3478L25.2145 11.0893L24.956 11.2525L24.8593 10.5914L24.7627 11.2525L24.5041 11.0893L24.668 11.3478L24.0068 11.4445L24.668 11.5411L24.5041 11.7997L24.7627 11.6358L24.8593 12.297L24.956 11.6358L25.2145 11.7997L25.0513 11.5411Z" fill="#F5F5F5"/>
<path d="M15.7567 14.4083L16.4179 14.3117L15.7567 14.2144L15.9206 13.9565L15.662 14.1197L15.5654 13.4586L15.4687 14.1197L15.2102 13.9565L15.374 14.2144L14.7129 14.3117L15.374 14.4083L15.2102 14.6669L15.4687 14.503L15.5654 15.1642L15.662 14.503L15.9206 14.6669L15.7567 14.4083Z" fill="#F5F5F5"/>
<path d="M10.1685 14.4083L10.829 14.3117L10.1685 14.2144L10.3317 13.9565L10.0731 14.1197L9.9765 13.4586L9.87986 14.1197L9.6213 13.9565L9.78514 14.2144L9.12402 14.3117L9.78514 14.4083L9.6213 14.6669L9.87986 14.503L9.9765 15.1642L10.0731 14.503L10.3317 14.6669L10.1685 14.4083Z" fill="#F5F5F5"/>
<path d="M13.3345 18.3437L13.9956 18.247L13.3345 18.1498L13.4984 17.8918L13.2398 18.055L13.1432 17.3939L13.0459 18.055L12.788 17.8918L12.9512 18.1498L12.29 18.247L12.9512 18.3437L12.788 18.6022L13.0459 18.4384L13.1432 19.0995L13.2398 18.4384L13.4984 18.6022L13.3345 18.3437Z" fill="#F5F5F5"/>
<path d="M26.3202 16.2246L26.9813 16.128L26.3202 16.0314L26.484 15.7728L26.2255 15.9366L26.1288 15.2755L26.0322 15.9366L25.7736 15.7728L25.9368 16.0314L25.2764 16.128L25.9368 16.2246L25.7736 16.4832L26.0322 16.32L26.1288 16.9811L26.2255 16.32L26.484 16.4832L26.3202 16.2246Z" fill="#F5F5F5"/>
<path d="M30.9839 22.0826L31.6444 21.9853L30.9839 21.8887L31.1471 21.6307L30.8886 21.7939L30.7919 21.1328L30.6953 21.7939L30.4367 21.6307L30.6006 21.8887L29.9395 21.9853L30.6006 22.0826L30.4367 22.3405L30.6953 22.1773L30.7919 22.8384L30.8886 22.1773L31.1471 22.3405L30.9839 22.0826Z" fill="#F5F5F5"/>
<path d="M25.4683 21.879L26.1294 21.7824L25.4683 21.6851L25.6321 21.4272L25.3736 21.5904L25.2769 20.9293L25.1797 21.5904L24.9217 21.4272L25.0849 21.6851L24.4238 21.7824L25.0849 21.879L24.9217 22.1376L25.1797 21.9737L25.2769 22.6349L25.3736 21.9737L25.6321 22.1376L25.4683 21.879Z" fill="#F5F5F5"/>
<path d="M13.3345 23.2563L13.9956 23.1591L13.3345 23.0624L13.4984 22.8039L13.2398 22.9677L13.1432 22.3066L13.0459 22.9677L12.788 22.8039L12.9512 23.0624L12.29 23.1591L12.9512 23.2563L12.788 23.5143L13.0459 23.3511L13.1432 24.0122L13.2398 23.3511L13.4984 23.5143L13.3345 23.2563Z" fill="#F5F5F5"/>
<path d="M20.5181 20.2515L21.1792 20.1549L20.5181 20.0583L20.682 19.7997L20.4234 19.9629L20.3268 19.3024L20.2301 19.9629L19.9716 19.7997L20.1348 20.0583L19.4736 20.1549L20.1348 20.2515L19.9716 20.5101L20.2301 20.3463L20.3268 21.0074L20.4234 20.3463L20.682 20.5101L20.5181 20.2515Z" fill="#F5F5F5"/>
<path d="M16.7671 27.3703L17.4283 27.2736L16.7671 27.177L16.9303 26.9184L16.6718 27.0816L16.5751 26.4211L16.4785 27.0816L16.2199 26.9184L16.3838 27.177L15.7227 27.2736L16.3838 27.3703L16.2199 27.6288L16.4785 27.465L16.5751 28.1261L16.6718 27.465L16.9303 27.6288L16.7671 27.3703Z" fill="#F5F5F5"/>
<path d="M24.1216 26.9389L24.7828 26.8422L24.1216 26.7456L24.2848 26.487L24.0269 26.6509L23.9296 25.9897L23.833 26.6509L23.5744 26.487L23.7383 26.7456L23.0771 26.8422L23.7383 26.9389L23.5744 27.1974L23.833 27.0336L23.9296 27.6947L24.0269 27.0336L24.2848 27.1974L24.1216 26.9389Z" fill="#F5F5F5"/>
<path d="M24.2048 15.0054C23.8118 14.4237 23.6435 13.511 23.2832 13.1494C23.5622 12.9353 23.8582 12.7444 24.1683 12.5786C24.3891 13.2141 24.5203 14.2003 25.0899 14.4346C24.811 14.6487 24.5149 14.8396 24.2048 15.0054Z" fill="#EBEBEB"/>
<path d="M24.8708 14.5434C24.8158 14.5069 24.8299 14.4352 24.8971 14.3904C24.5028 14.0736 24.3614 13.3363 24.1828 12.7846C24.1683 12.7912 24.1525 12.7946 24.1365 12.7946C24.1206 12.7945 24.1048 12.7911 24.0903 12.7844C24.0758 12.7777 24.0629 12.768 24.0524 12.7559C24.042 12.7438 24.0343 12.7296 24.0299 12.7142C23.8427 12.8179 23.6611 12.9314 23.4859 13.0541C23.4995 13.0863 23.5005 13.1226 23.4886 13.1555C23.4768 13.1885 23.4529 13.2158 23.4219 13.232C23.6888 13.609 23.8513 14.3046 24.1432 14.8243C24.1759 14.8121 24.2118 14.811 24.2453 14.821C24.2788 14.8311 24.3081 14.8518 24.3288 14.88C24.5152 14.7773 24.6962 14.665 24.8708 14.5434ZM23.9108 13.8976C23.8526 13.7421 23.9064 13.5731 24.0254 13.5181C24.1444 13.463 24.2814 13.5546 24.3358 13.7139C24.3902 13.8733 24.348 14.0384 24.2296 14.0909C24.1112 14.1434 23.9684 14.0544 23.9128 13.8976H23.9108Z" fill="#E0E0E0"/>
<path d="M15.2667 13.0963C14.7042 13.3997 13.8511 13.4375 13.4952 13.7395C13.3167 13.4369 13.161 13.1213 13.0293 12.7955C13.6303 12.6675 14.5487 12.6765 14.8008 12.1523C14.9799 12.4547 15.1356 12.7703 15.2667 13.0963Z" fill="#EBEBEB"/>
<path d="M14.8866 12.3814C14.8495 12.4307 14.7835 12.407 14.7471 12.3347C14.4271 12.6758 13.7391 12.7123 13.2175 12.8102C13.2231 12.8242 13.2256 12.8393 13.2248 12.8544C13.224 12.8695 13.2198 12.8842 13.2127 12.8975C13.2056 12.9109 13.1956 12.9224 13.1835 12.9315C13.1713 12.9405 13.1574 12.9467 13.1426 12.9498C13.2187 13.1315 13.309 13.3229 13.4191 13.5258C13.4683 13.5008 13.5407 13.5398 13.5791 13.6128C13.9445 13.4048 14.5967 13.3421 15.0965 13.129C15.0867 13.097 15.0876 13.0628 15.0992 13.0314C15.1107 13.0001 15.1323 12.9734 15.1605 12.9555C15.085 12.7744 14.996 12.5837 14.8872 12.3795L14.8866 12.3814ZM14.2261 13.232C14.1587 13.2502 14.087 13.2435 14.0241 13.2132C13.9613 13.1829 13.9114 13.1309 13.8837 13.0669C13.8408 12.9389 13.9349 12.823 14.0853 12.791C14.2357 12.759 14.3855 12.8237 14.4258 12.9466C14.4661 13.0694 14.3739 13.1949 14.2261 13.232Z" fill="#E0E0E0"/>
<path d="M20.8502 12.2451C20.3721 11.8195 20.0444 11.0291 19.6387 10.8006C19.8618 10.5291 20.105 10.2747 20.3664 10.0397C20.6921 10.5606 20.9987 11.4266 21.5772 11.4835C21.3543 11.7552 21.1113 12.0098 20.8502 12.2451Z" fill="#EBEBEB"/>
<path d="M21.3916 11.6423C21.3333 11.6243 21.3327 11.5546 21.3884 11.4957C20.9602 11.312 20.6882 10.6778 20.4175 10.224C20.4063 10.2342 20.3929 10.2418 20.3784 10.2463C20.3639 10.2507 20.3486 10.2519 20.3336 10.2497C20.3186 10.2474 20.3043 10.2419 20.2917 10.2335C20.2791 10.2251 20.2685 10.214 20.2607 10.201C20.116 10.3354 19.9669 10.4851 19.8127 10.6592C19.853 10.697 19.8408 10.7783 19.7852 10.8391C20.1052 11.1117 20.388 11.7031 20.7599 12.0992C20.7865 12.0791 20.819 12.0683 20.8524 12.0683C20.8857 12.0683 20.9182 12.0791 20.9448 12.0992C21.0888 11.9661 21.2373 11.817 21.3928 11.6448L21.3916 11.6423ZM20.3676 11.312C20.3273 11.2549 20.309 11.1852 20.3161 11.1157C20.3232 11.0462 20.3551 10.9816 20.406 10.9338C20.5084 10.8512 20.6517 10.8986 20.7343 11.0291C20.8168 11.1597 20.806 11.3223 20.7042 11.4023C20.6024 11.4823 20.4527 11.44 20.3695 11.312H20.3676Z" fill="#E0E0E0"/>
<path d="M22.3503 18.9197C22.132 18.3187 22.2191 17.4695 21.9727 17.0733C22.2981 16.9414 22.6329 16.834 22.9743 16.752C23.0133 17.3651 22.8699 18.2727 23.3519 18.5991C23.0265 18.7309 22.6917 18.8381 22.3503 18.9197Z" fill="#EBEBEB"/>
<path d="M23.113 18.6477C23.0702 18.6035 23.1034 18.5427 23.177 18.5197C22.8865 18.1536 22.9511 17.4669 22.9306 16.9369C22.9159 16.9407 22.9005 16.941 22.8855 16.9381C22.8706 16.9351 22.8565 16.9289 22.8443 16.9198C22.832 16.9108 22.8219 16.8991 22.8147 16.8857C22.8075 16.8723 22.8034 16.8574 22.8026 16.8422C22.6106 16.8915 22.409 16.9523 22.1902 17.031C22.2074 17.0835 22.1582 17.1494 22.0801 17.1763C22.2324 17.5686 22.1991 18.2233 22.3361 18.7481C22.3691 18.7435 22.4027 18.7496 22.4319 18.7655C22.4612 18.7814 22.4846 18.8063 22.4986 18.8365C22.6906 18.7878 22.891 18.7277 23.1092 18.6496L23.113 18.6477ZM22.3719 17.8707C22.3634 17.8014 22.3803 17.7314 22.4195 17.6736C22.4587 17.6158 22.5175 17.5742 22.585 17.5565C22.713 17.5321 22.818 17.6422 22.8282 17.7958C22.8385 17.9494 22.7521 18.0877 22.6247 18.1101C22.4974 18.1325 22.3834 18.0224 22.3719 17.8707Z" fill="#E0E0E0"/>
<path d="M30.8521 16.4711C30.3741 16.0455 30.0464 15.2551 29.6406 15.0266C29.8639 14.7552 30.1071 14.5008 30.3683 14.2656C30.6947 14.7866 31.0013 15.6525 31.5798 15.7095C31.3567 15.9812 31.1135 16.2358 30.8521 16.4711Z" fill="#EBEBEB"/>
<path d="M31.3919 15.8688C31.333 15.8503 31.333 15.7805 31.3887 15.7216C30.9593 15.536 30.6879 14.9037 30.4185 14.448C30.4072 14.4582 30.3939 14.4658 30.3794 14.4703C30.3649 14.4747 30.3496 14.4759 30.3346 14.4737C30.3196 14.4714 30.3053 14.4659 30.2927 14.4575C30.28 14.4491 30.2694 14.438 30.2617 14.425C30.117 14.5594 29.9679 14.7091 29.8137 14.8832C29.854 14.921 29.8418 15.0023 29.7861 15.0631C30.1061 15.3357 30.389 15.9271 30.7609 16.3232C30.7875 16.3032 30.82 16.2924 30.8533 16.2924C30.8867 16.2924 30.9191 16.3032 30.9458 16.3232C31.0898 16.1901 31.2383 16.041 31.3938 15.8688H31.3919ZM30.3679 15.536C30.3276 15.4791 30.3092 15.4095 30.3163 15.34C30.3234 15.2706 30.3553 15.2061 30.4063 15.1584C30.5081 15.0752 30.6521 15.1226 30.734 15.2531C30.8159 15.3837 30.8063 15.5463 30.7045 15.6263C30.6028 15.7063 30.4537 15.664 30.3679 15.536Z" fill="#E0E0E0"/>
<path d="M30.4725 15.4957L30.445 15.5168L30.429 15.4918L30.4559 15.4707C30.4391 15.443 30.4294 15.4115 30.4277 15.3792L30.461 15.3734C30.4619 15.4003 30.4692 15.4266 30.4821 15.4502L30.5301 15.4131C30.5154 15.3734 30.5007 15.3293 30.5346 15.303C30.5589 15.2838 30.5954 15.2909 30.6293 15.3369L30.6569 15.3158L30.6729 15.3414L30.646 15.3619C30.6592 15.385 30.6679 15.4104 30.6716 15.4368L30.6389 15.4425C30.6357 15.4216 30.6293 15.4013 30.6197 15.3824L30.5711 15.4201C30.5865 15.4598 30.6025 15.504 30.5711 15.5296C30.5397 15.5552 30.5071 15.5417 30.4725 15.4957ZM30.5596 15.3901L30.6031 15.3574C30.5865 15.3369 30.5717 15.3344 30.5609 15.3427C30.55 15.351 30.5525 15.3689 30.5596 15.3901ZM30.5404 15.4912C30.5525 15.4822 30.5493 15.4643 30.5404 15.4425L30.4975 15.4758C30.5161 15.4963 30.5301 15.4995 30.5404 15.4912Z" fill="#E0E0E0"/>
<path d="M19.5149 15.209C19.0855 15.7626 18.6932 16.3552 18.5197 16.9882C18.2304 16.8685 17.9335 16.7482 17.6436 16.608C17.8708 15.9494 18.2631 15.3715 18.6388 14.8288C18.928 14.9485 19.225 15.0688 19.5149 15.209Z" fill="#EBEBEB"/>
<path d="M18.7731 14.9389C18.7515 14.9678 18.7212 14.989 18.6866 14.9993C18.652 15.0096 18.615 15.0084 18.5811 14.9958C18.2713 15.4483 17.9616 15.9258 17.7529 16.455C17.7844 16.4719 17.8089 16.4995 17.8219 16.5328C17.8349 16.5661 17.8357 16.603 17.824 16.6368C18.0051 16.72 18.1881 16.7974 18.3692 16.873C18.3738 16.8572 18.3816 16.8426 18.3923 16.8301C18.403 16.8177 18.4162 16.8077 18.431 16.8007C18.4459 16.7938 18.4621 16.7902 18.4785 16.79C18.4948 16.7899 18.5111 16.7933 18.526 16.8C18.702 16.2848 19.0112 15.7984 19.3542 15.3382C19.3393 15.3316 19.3261 15.3216 19.3158 15.309C19.3054 15.2963 19.2982 15.2815 19.2946 15.2655C19.2911 15.2496 19.2913 15.233 19.2953 15.2172C19.2993 15.2014 19.307 15.1867 19.3177 15.1744C19.136 15.0912 18.9536 15.0138 18.7725 14.9382L18.7731 14.9389ZM18.72 15.984C18.6859 16.047 18.6298 16.0952 18.5624 16.1196C18.495 16.1439 18.421 16.1425 18.3545 16.1158C18.3236 16.101 18.2961 16.0798 18.2739 16.0535C18.2517 16.0273 18.2353 15.9967 18.2257 15.9638C18.2162 15.9308 18.2137 15.8961 18.2185 15.8621C18.2233 15.8281 18.2352 15.7955 18.2534 15.7664C18.29 15.7034 18.3481 15.6558 18.417 15.6323C18.4859 15.6088 18.561 15.6109 18.6285 15.6384C18.6593 15.6528 18.6867 15.6739 18.7085 15.7C18.7304 15.7262 18.7463 15.7568 18.755 15.7898C18.7637 15.8228 18.7651 15.8572 18.7591 15.8908C18.753 15.9243 18.7397 15.9562 18.72 15.984Z" fill="#E0E0E0"/>
<path d="M18.6222 15.9098L18.6568 15.9258L18.6421 15.9514L18.6075 15.9354C18.5908 15.9626 18.5669 15.9848 18.5384 15.9994L18.5147 15.9706C18.5387 15.9587 18.5592 15.9408 18.5742 15.9187L18.5102 15.8899C18.4821 15.9206 18.4494 15.9539 18.4066 15.9334C18.3752 15.9187 18.3605 15.8822 18.3842 15.831L18.3496 15.815L18.3643 15.7894L18.3989 15.8054C18.4131 15.7831 18.4324 15.7645 18.4552 15.751L18.4789 15.7779C18.4607 15.7891 18.4449 15.8037 18.4322 15.8208L18.4962 15.8496C18.525 15.8189 18.5602 15.7856 18.6018 15.8061C18.6331 15.8221 18.6466 15.856 18.6222 15.9098ZM18.475 15.8739L18.42 15.8483C18.4104 15.872 18.4162 15.8867 18.4296 15.8931C18.443 15.8995 18.459 15.8899 18.475 15.8739ZM18.5806 15.849C18.5653 15.8419 18.5499 15.8522 18.5339 15.8688L18.589 15.8938C18.5986 15.8694 18.5922 15.856 18.5806 15.849Z" fill="#E0E0E0"/>
<path d="M30.428 18.4909C29.9979 19.0445 29.6062 19.6371 29.4328 20.2701C29.1435 20.1504 28.8466 20.0301 28.5566 19.8899C28.7838 19.2314 29.1762 18.6534 29.5512 18.1107C29.8411 18.2304 30.1381 18.352 30.428 18.4909Z" fill="#EBEBEB"/>
<path d="M29.6862 18.2202C29.6648 18.2493 29.6345 18.2707 29.5998 18.2811C29.5652 18.2915 29.5281 18.2903 29.4942 18.2778C29.1844 18.7296 28.8747 19.2077 28.666 19.737C28.6977 19.7535 28.7224 19.7809 28.7355 19.8142C28.7487 19.8474 28.7494 19.8843 28.7377 19.9181C28.9188 20.0019 29.1019 20.0787 29.283 20.1549C29.2874 20.1391 29.2952 20.1244 29.3059 20.1119C29.3165 20.0993 29.3297 20.0893 29.3446 20.0823C29.3595 20.0754 29.3757 20.0718 29.3921 20.0717C29.4086 20.0716 29.4248 20.0751 29.4398 20.0819C29.6158 19.5699 29.9249 19.0803 30.2679 18.6202C30.253 18.6135 30.2398 18.6035 30.2295 18.5909C30.2191 18.5783 30.2119 18.5634 30.2083 18.5474C30.2048 18.5315 30.205 18.515 30.2091 18.4991C30.2131 18.4833 30.2207 18.4686 30.2315 18.4563C30.0503 18.3738 29.8679 18.2963 29.6868 18.2208L29.6862 18.2202ZM29.6299 19.2672C29.5957 19.3302 29.5397 19.3784 29.4723 19.4028C29.4049 19.4271 29.3309 19.4257 29.2644 19.399C29.2334 19.3843 29.2058 19.3631 29.1836 19.3369C29.1613 19.3107 29.1449 19.2801 29.1353 19.247C29.1258 19.214 29.1233 19.1794 29.1281 19.1453C29.133 19.1113 29.1449 19.0787 29.1633 19.0496C29.2007 18.9881 29.2589 18.9421 29.3274 18.9198C29.3958 18.8975 29.4699 18.9004 29.5364 18.928C29.5665 18.9424 29.5932 18.9631 29.6146 18.9887C29.636 19.0142 29.6516 19.0441 29.6605 19.0763C29.6694 19.1084 29.6712 19.1421 29.6659 19.1751C29.6606 19.208 29.6483 19.2394 29.6299 19.2672Z" fill="#E0E0E0"/>
<path d="M29.5363 19.1917L29.5709 19.2077C29.5658 19.216 29.5606 19.2243 29.5562 19.2333L29.5216 19.2173C29.5043 19.2444 29.4803 19.2664 29.4518 19.2813L29.4288 19.2525C29.4526 19.2404 29.4731 19.2226 29.4883 19.2007L29.4243 19.1719C29.3962 19.2026 29.3635 19.2359 29.3206 19.2154C29.2893 19.2007 29.2746 19.1642 29.2982 19.113L29.2637 19.097C29.2682 19.088 29.2733 19.0797 29.2784 19.0714L29.313 19.0874C29.3272 19.0649 29.3465 19.0461 29.3693 19.0323L29.3923 19.0599C29.3745 19.0713 29.3589 19.0858 29.3462 19.1027L29.4102 19.1315C29.439 19.1008 29.4742 19.0675 29.5158 19.088C29.5459 19.104 29.5587 19.1399 29.5363 19.1917ZM29.3891 19.1559L29.3341 19.1303C29.3245 19.1539 29.3302 19.1687 29.3437 19.1751C29.3571 19.1815 29.3718 19.1719 29.3878 19.1559H29.3891ZM29.4947 19.1309C29.4794 19.1239 29.464 19.1341 29.448 19.1501L29.5024 19.1757C29.5114 19.1514 29.5069 19.1367 29.4934 19.1309H29.4947Z" fill="#E0E0E0"/>
<path d="M27.6681 11.0342C27.6341 10.336 27.0095 9.85535 26.9756 9.15711L27.8716 8.82751C27.9061 9.52575 28.5301 10.0064 28.5647 10.704L27.6681 11.0342Z" fill="#EBEBEB"/>
<path d="M28.3896 10.7136C28.3858 10.6772 28.3938 10.6404 28.4123 10.6088C28.4309 10.5772 28.459 10.5522 28.4926 10.5376C28.3844 9.99427 27.9518 9.57123 27.8449 9.02787C27.8301 9.03441 27.8138 9.03725 27.7976 9.03615C27.7814 9.03505 27.7657 9.03003 27.7519 9.02154C27.7381 9.01305 27.7265 9.00133 27.7182 8.98738C27.7098 8.97344 27.705 8.95768 27.7041 8.94147L27.1473 9.14691C27.1511 9.18331 27.1432 9.21996 27.1248 9.25159C27.1064 9.28322 27.0784 9.30819 27.0449 9.32291C27.1518 9.86627 27.5844 10.2899 27.6926 10.8333C27.7074 10.8268 27.7235 10.8239 27.7396 10.825C27.7558 10.826 27.7714 10.831 27.7852 10.8394C27.799 10.8478 27.8105 10.8595 27.8188 10.8734C27.8271 10.8873 27.8319 10.9029 27.8328 10.9191L28.3889 10.7136H28.3896ZM27.5288 10.0096C27.5114 9.98096 27.5007 9.94875 27.4975 9.91538C27.4943 9.88202 27.4987 9.84836 27.5103 9.81692C27.522 9.78549 27.5405 9.75708 27.5647 9.73382C27.5888 9.71056 27.6179 9.69305 27.6497 9.68259C27.7194 9.65977 27.7948 9.66156 27.8633 9.68765C27.9318 9.71374 27.9892 9.76256 28.026 9.82595C28.0436 9.85454 28.0544 9.88673 28.0577 9.92009C28.061 9.95346 28.0566 9.98714 28.0451 10.0186C28.0335 10.0501 28.0149 10.0785 27.9908 10.1018C27.9667 10.1251 27.9376 10.1426 27.9057 10.153C27.8357 10.1757 27.76 10.1737 27.6913 10.1471C27.6226 10.1205 27.5652 10.071 27.5288 10.0071V10.0096Z" fill="#E0E0E0"/>
<path d="M27.6596 9.9891L27.6225 10.0025L27.6084 9.97758L27.6449 9.9635C27.6303 9.93743 27.6249 9.90724 27.6295 9.87774H27.6705C27.6663 9.90205 27.6696 9.92706 27.6801 9.94942L27.7441 9.9251C27.7338 9.88734 27.7255 9.84574 27.771 9.8291C27.7914 9.82327 27.8133 9.82467 27.8329 9.83306C27.8525 9.84146 27.8686 9.85633 27.8785 9.87518L27.9156 9.86174L27.9303 9.88734L27.8932 9.90078C27.9045 9.92248 27.9098 9.94677 27.9086 9.97118H27.8721C27.8731 9.95166 27.8696 9.93218 27.8618 9.91422L27.7978 9.93918C27.8081 9.97694 27.8177 10.0185 27.7716 10.0352C27.7505 10.0423 27.7276 10.0416 27.707 10.0331C27.6864 10.0246 27.6696 10.009 27.6596 9.9891ZM27.7876 9.91166L27.8458 9.8899C27.8298 9.86942 27.8132 9.8643 27.7985 9.86942C27.7838 9.87454 27.7818 9.89182 27.7863 9.91166H27.7876ZM27.7434 9.99742C27.7594 9.99166 27.7594 9.97502 27.755 9.95454L27.6967 9.97566C27.7114 9.99742 27.7281 10.0025 27.7441 9.99742H27.7434Z" fill="#E0E0E0"/>
<path d="M9.53199 19.3043C9.49743 18.608 8.87343 18.1254 8.83887 17.4272L9.73487 17.0976C9.76943 17.7958 10.3934 18.2758 10.428 18.9741L9.53199 19.3043Z" fill="#EBEBEB"/>
<path d="M10.2525 18.9837C10.2487 18.9473 10.2566 18.9107 10.275 18.879C10.2934 18.8474 10.3214 18.8224 10.3549 18.8077C10.2474 18.2643 9.81475 17.8413 9.70723 17.2973C9.69242 17.304 9.67621 17.307 9.66 17.306C9.64379 17.305 9.62807 17.3 9.61419 17.2916C9.60032 17.2831 9.58872 17.2714 9.5804 17.2575C9.57207 17.2435 9.56728 17.2278 9.56643 17.2115L9.00963 17.417C9.01339 17.4534 9.00551 17.49 8.9871 17.5217C8.9687 17.5533 8.94073 17.5783 8.90723 17.593C9.01475 18.1363 9.44739 18.56 9.55491 19.1034C9.56971 19.0967 9.58592 19.0937 9.60213 19.0947C9.61834 19.0957 9.63407 19.1007 9.64794 19.1091C9.66181 19.1176 9.67341 19.1293 9.68174 19.1432C9.69006 19.1572 9.69486 19.1729 9.69571 19.1891L10.2525 18.9837ZM9.39107 18.2797C9.37369 18.251 9.36301 18.2188 9.35982 18.1855C9.35663 18.1521 9.36101 18.1184 9.37264 18.087C9.38427 18.0556 9.40284 18.0272 9.42698 18.0039C9.45111 17.9806 9.48018 17.9631 9.51203 17.9527C9.5816 17.93 9.65684 17.9319 9.7252 17.958C9.79356 17.9841 9.85091 18.0328 9.88771 18.096C9.90522 18.1246 9.91602 18.1568 9.91932 18.1902C9.92261 18.2235 9.91831 18.2572 9.90674 18.2887C9.89516 18.3201 9.87661 18.3486 9.85248 18.3719C9.82834 18.3951 9.79925 18.4126 9.76739 18.4231C9.69744 18.4457 9.62185 18.4435 9.55332 18.4169C9.48479 18.3903 9.42749 18.341 9.39107 18.2771V18.2797Z" fill="#E0E0E0"/>
<path d="M9.5219 18.2592L9.48478 18.2726L9.4707 18.247L9.50718 18.2336C9.49313 18.2073 9.48796 18.1772 9.49246 18.1478H9.53342C9.52889 18.1721 9.53226 18.1972 9.54302 18.2195L9.60702 18.1952C9.59614 18.1574 9.58782 18.1158 9.6339 18.0992C9.65439 18.0932 9.6763 18.0946 9.69591 18.103C9.71552 18.1114 9.7316 18.1263 9.74142 18.1453L9.77854 18.1318L9.79262 18.1574L9.75614 18.1709C9.76768 18.1924 9.77279 18.2169 9.77086 18.2413H9.73054C9.73152 18.2217 9.72802 18.2023 9.7203 18.1843L9.6563 18.2093C9.66718 18.2464 9.67614 18.2886 9.6307 18.3053C9.61004 18.3114 9.58788 18.3102 9.56802 18.3018C9.54817 18.2934 9.53186 18.2783 9.5219 18.2592ZM9.6499 18.1817L9.70878 18.16C9.70415 18.1518 9.69694 18.1453 9.68826 18.1416C9.67958 18.1379 9.66992 18.1372 9.66078 18.1395C9.64414 18.1453 9.64414 18.16 9.64862 18.1817H9.6499ZM9.60574 18.2675C9.62238 18.2617 9.62238 18.2451 9.61726 18.224L9.55902 18.2457C9.57438 18.2675 9.59038 18.2726 9.60446 18.2675H9.60574Z" fill="#E0E0E0"/>
<path d="M11.8178 11.0202C11.5739 11.6935 10.7298 11.68 10.452 12.2509C10.1922 12.0224 9.94 11.8029 9.68848 11.6071C9.93168 10.9338 10.7765 10.9472 11.0542 10.3763C11.3134 10.608 11.5694 10.8224 11.8178 11.0202Z" fill="#EBEBEB"/>
<path d="M11.1779 10.5472C11.1452 10.6073 11.0646 10.6067 11.0057 10.5542C10.7023 10.9497 10.0867 11.015 9.80762 11.4771C9.83485 11.5012 9.8536 11.5335 9.86109 11.5691C9.86858 11.6047 9.86442 11.6418 9.84922 11.6749C10.0058 11.8029 10.165 11.9381 10.3267 12.0806C10.3593 12.0211 10.4399 12.0211 10.4982 12.0736C10.8015 11.6781 11.4172 11.6128 11.6969 11.1507C11.6696 11.1267 11.6508 11.0946 11.6433 11.0591C11.6359 11.0235 11.64 10.9865 11.6553 10.9536C11.4979 10.8256 11.3385 10.6903 11.1772 10.5478L11.1779 10.5472ZM10.9507 11.5072C10.8278 11.5712 10.6307 11.5353 10.5123 11.4259C10.3939 11.3165 10.3843 11.1699 10.5123 11.1059C10.6403 11.0419 10.8323 11.0777 10.9513 11.1878C11.0703 11.2979 11.0729 11.4438 10.9507 11.5085V11.5072Z" fill="#E0E0E0"/>
<path d="M10.871 11.4016C10.8826 11.4118 10.8934 11.4214 10.9037 11.4317L10.88 11.4445L10.8474 11.415C10.8174 11.4282 10.7846 11.4335 10.752 11.4304L10.7354 11.3965C10.7627 11.3996 10.7904 11.3959 10.816 11.3856L10.7578 11.3325C10.7367 11.3411 10.7138 11.344 10.6913 11.3408C10.6688 11.3377 10.6476 11.3286 10.6298 11.3145C10.6219 11.3095 10.6156 11.3024 10.6114 11.294C10.6073 11.2856 10.6055 11.2763 10.6062 11.267C10.6069 11.2577 10.6102 11.2488 10.6155 11.2411C10.6209 11.2335 10.6283 11.2275 10.6368 11.2237L10.6035 11.1936L10.6272 11.1808L10.6598 11.2102C10.6842 11.1995 10.7107 11.1945 10.7373 11.1955L10.7546 11.2288C10.7328 11.2284 10.7111 11.2319 10.6906 11.239L10.7501 11.2934C10.7709 11.2842 10.7939 11.281 10.8165 11.284C10.8391 11.2871 10.8604 11.2963 10.8781 11.3107C10.8857 11.3159 10.8919 11.323 10.8959 11.3314C10.8999 11.3397 10.9017 11.349 10.9009 11.3582C10.9002 11.3674 10.8971 11.3763 10.8918 11.3839C10.8866 11.3915 10.8794 11.3976 10.871 11.4016ZM10.72 11.3005L10.6675 11.2525C10.6641 11.2546 10.6612 11.2576 10.6593 11.2611C10.6573 11.2646 10.6563 11.2686 10.6563 11.2726C10.6563 11.2767 10.6573 11.2806 10.6593 11.2842C10.6612 11.2877 10.6641 11.2907 10.6675 11.2928C10.6752 11.2977 10.6839 11.301 10.6929 11.3023C10.702 11.3036 10.7112 11.303 10.72 11.3005ZM10.8416 11.3331C10.8334 11.3276 10.8241 11.324 10.8143 11.3227C10.8046 11.3213 10.7946 11.3223 10.7853 11.3254L10.8371 11.3728C10.8576 11.3587 10.857 11.3446 10.8442 11.3331H10.8416Z" fill="#E0E0E0"/>
<path d="M12.474 20.5421C12.2308 21.2154 11.386 21.2019 11.1082 21.7728C10.8522 21.5443 10.5962 21.3248 10.3447 21.129C10.5886 20.4557 11.4327 20.4691 11.7105 19.8983C11.9703 20.1267 12.2257 20.3443 12.474 20.5421Z" fill="#EBEBEB"/>
<path d="M11.8341 20.0691C11.8015 20.1286 11.7215 20.1286 11.6626 20.0761C11.3592 20.4717 10.7435 20.5369 10.4639 20.999C10.4913 21.023 10.5102 21.0552 10.5178 21.0909C10.5255 21.1265 10.5213 21.1637 10.5061 21.1968C10.6629 21.3248 10.8223 21.4617 10.9835 21.6025C11.0155 21.543 11.0962 21.543 11.1551 21.5955C11.4578 21.2 12.0741 21.1341 12.3531 20.6726C12.3259 20.6486 12.3071 20.6165 12.2996 20.581C12.2921 20.5454 12.2963 20.5084 12.3115 20.4755C12.155 20.3475 11.9958 20.2122 11.8341 20.0697V20.0691ZM11.6069 21.0291C11.4847 21.0931 11.2869 21.0573 11.1691 20.9478C11.0514 20.8384 11.0411 20.6918 11.1691 20.6278C11.2971 20.5638 11.4891 20.5997 11.6075 20.7097C11.7259 20.8198 11.7291 20.9657 11.6069 21.0304V21.0291Z" fill="#E0E0E0"/>
<path d="M11.5273 20.9235L11.5599 20.9536C11.5516 20.9574 11.5439 20.9619 11.5362 20.9664L11.5036 20.9363C11.4735 20.9498 11.4404 20.9553 11.4076 20.9523C11.4025 20.9408 11.3967 20.9299 11.3916 20.9184C11.419 20.9215 11.4467 20.9177 11.4722 20.9075L11.4134 20.8544C11.3923 20.8629 11.3693 20.8657 11.3468 20.8625C11.3244 20.8592 11.3031 20.85 11.2854 20.8358C11.2777 20.8307 11.2715 20.8236 11.2675 20.8153C11.2634 20.807 11.2617 20.7978 11.2624 20.7886C11.2631 20.7794 11.2663 20.7706 11.2716 20.763C11.2768 20.7555 11.284 20.7494 11.2924 20.7456L11.2598 20.7155L11.2834 20.7027L11.3161 20.7321C11.3403 20.7215 11.3665 20.7163 11.3929 20.7168C11.3986 20.7283 11.405 20.7392 11.4108 20.7501C11.389 20.7498 11.3673 20.7535 11.3468 20.7609L11.4057 20.8147C11.4267 20.8061 11.4496 20.8032 11.4721 20.8063C11.4946 20.8095 11.5159 20.8185 11.5337 20.8326C11.5414 20.8378 11.5476 20.8448 11.5516 20.8532C11.5557 20.8615 11.5575 20.8707 11.5568 20.8799C11.5562 20.8891 11.5531 20.898 11.5479 20.9057C11.5427 20.9133 11.5356 20.9195 11.5273 20.9235ZM11.3782 20.8217L11.3263 20.7744C11.3084 20.7885 11.3103 20.8025 11.3263 20.8147C11.334 20.8195 11.3426 20.8225 11.3515 20.8238C11.3604 20.825 11.3695 20.8243 11.3782 20.8217ZM11.4998 20.855C11.4917 20.8492 11.4824 20.8454 11.4726 20.8441C11.4627 20.8428 11.4527 20.8439 11.4434 20.8473L11.4953 20.8947C11.5132 20.8806 11.5126 20.8665 11.4998 20.855Z" fill="#E0E0E0"/>
<path d="M24.0233 13.8848L23.9913 13.8982C23.9881 13.888 23.9843 13.8778 23.9805 13.8669L24.0118 13.8534C24.0006 13.8203 23.9973 13.785 24.0022 13.7504L24.0368 13.7549C24.0325 13.7833 24.0345 13.8124 24.0425 13.84L24.0982 13.8157C24.0912 13.7702 24.0854 13.7203 24.1251 13.7037C24.1539 13.6909 24.1891 13.7088 24.2134 13.7677L24.2448 13.7536L24.2563 13.785L24.2249 13.7984C24.2338 13.8259 24.2373 13.8548 24.2352 13.8835L24.2013 13.8797C24.2026 13.8568 24.2002 13.8339 24.1942 13.8118L24.1379 13.8362C24.1449 13.8816 24.152 13.9322 24.1129 13.9488C24.0841 13.9603 24.0489 13.9424 24.0233 13.8848ZM24.1328 13.8016L24.1827 13.7798C24.1699 13.7542 24.1558 13.7466 24.1437 13.7523C24.1315 13.7581 24.1296 13.7773 24.1328 13.8016ZM24.0925 13.9002C24.1065 13.8944 24.1072 13.8746 24.1033 13.8496L24.0541 13.8714C24.0669 13.8976 24.0809 13.9053 24.0925 13.9002Z" fill="#E0E0E0"/>
<path d="M14.2217 13.1187C14.2256 13.1289 14.2288 13.1405 14.2326 13.1513L14.2032 13.1577C14.1993 13.1468 14.1961 13.136 14.1929 13.1251C14.161 13.1316 14.128 13.1298 14.0969 13.12C14.0969 13.1091 14.1014 13.0982 14.1033 13.0867C14.1288 13.0954 14.156 13.0978 14.1827 13.0937C14.1763 13.0745 14.1699 13.0547 14.1641 13.0355C14.1212 13.0355 14.0752 13.0355 14.0617 12.9939C14.0528 12.9638 14.0713 12.9299 14.1257 12.9165C14.1225 12.9056 14.1187 12.8947 14.1155 12.8832L14.1449 12.8768C14.1449 12.8877 14.152 12.8985 14.1552 12.9094C14.1811 12.9043 14.2079 12.9043 14.2339 12.9094C14.2339 12.9203 14.2339 12.9312 14.2288 12.9421C14.2076 12.9385 14.1859 12.9385 14.1648 12.9421C14.1705 12.9619 14.1769 12.9811 14.1833 13.0009C14.2256 13.0009 14.2729 13.0009 14.2851 13.0406C14.296 13.0694 14.2768 13.104 14.2217 13.1187ZM14.1526 13.0003C14.1475 12.983 14.1417 12.9651 14.1366 12.9485C14.1116 12.9568 14.104 12.9696 14.1084 12.9824C14.1129 12.9952 14.1302 12.9997 14.1526 13.0003ZM14.2416 13.0528C14.2371 13.0381 14.2185 13.0355 14.1955 13.0349C14.2012 13.0521 14.2064 13.0694 14.2121 13.0867C14.2403 13.0777 14.2454 13.0649 14.2403 13.0528H14.2416Z" fill="#E0E0E0"/>
<path d="M20.4716 11.2698L20.444 11.2909L20.428 11.2659L20.4549 11.2448C20.4381 11.2171 20.4285 11.1857 20.4268 11.1533L20.46 11.1475C20.461 11.1744 20.4682 11.2007 20.4812 11.2243L20.5298 11.1872C20.5144 11.1475 20.4997 11.1034 20.5336 11.0771C20.5676 11.0509 20.5976 11.065 20.6284 11.1111L20.6559 11.0899L20.6719 11.1155L20.645 11.136C20.6582 11.1591 20.6669 11.1845 20.6706 11.2109L20.638 11.2167C20.6348 11.1957 20.6283 11.1754 20.6188 11.1565L20.5701 11.1943C20.5855 11.2339 20.6015 11.2781 20.5701 11.3037C20.5388 11.3293 20.5061 11.3159 20.4716 11.2698ZM20.5586 11.1642L20.6021 11.1315C20.5855 11.1111 20.5708 11.1085 20.5599 11.1162C20.549 11.1239 20.5516 11.1431 20.5586 11.1642ZM20.54 11.2653C20.5516 11.2563 20.5484 11.2384 20.54 11.2167L20.4972 11.2493C20.5151 11.2704 20.5292 11.2736 20.54 11.2653Z" fill="#E0E0E0"/>
<path d="M22.4812 17.8822L22.4473 17.888C22.4473 17.8778 22.4473 17.8675 22.4473 17.8579L22.4812 17.8522C22.4798 17.8197 22.4864 17.7874 22.5004 17.7581L22.5324 17.7696C22.5202 17.7934 22.5138 17.8197 22.5138 17.8464L22.5746 17.8368C22.5797 17.7946 22.5881 17.7491 22.6303 17.7421C22.661 17.737 22.6892 17.76 22.6975 17.817L22.7314 17.8118V17.8419L22.6981 17.847C22.6991 17.8737 22.6947 17.9002 22.6853 17.9251L22.6533 17.9149C22.6611 17.8944 22.6652 17.8728 22.6655 17.8509L22.6047 17.8611C22.5989 17.9034 22.5925 17.9494 22.5503 17.9565C22.5189 17.9622 22.4901 17.9392 22.4812 17.8822ZM22.6092 17.831L22.6629 17.8221C22.6578 17.7965 22.6463 17.7875 22.6329 17.7894C22.6194 17.7914 22.6124 17.8086 22.6085 17.831H22.6092ZM22.5452 17.911C22.5599 17.911 22.5657 17.8912 22.5695 17.8682L22.5157 17.8765C22.5196 17.904 22.5305 17.913 22.5433 17.911H22.5452Z" fill="#E0E0E0"/>
</svg>
