<svg width="47" height="47" viewBox="0 0 47 47" fill="none" xmlns="http://www.w3.org/2000/svg">
<rect width="47" height="47" rx="23.5" fill="#E9EAEB"/>
<path d="M26.112 33.3703H20.9661C18.8286 33.3703 17.0078 31.4147 17.0078 28.9703V21.1481C17.0078 20.6592 17.3245 20.3333 17.7995 20.3333C18.2745 20.3333 18.5911 20.6592 18.5911 21.1481V28.9703C18.5911 30.437 19.6203 31.7407 20.9661 31.7407H26.112C27.3786 31.7407 28.487 30.5184 28.487 28.9703V21.1481C28.487 20.6592 28.8036 20.3333 29.2786 20.3333C29.7536 20.3333 30.0703 20.6592 30.0703 21.1481V28.9703C29.9911 31.4147 28.2495 33.3703 26.112 33.3703Z" fill="black"/>
<path d="M31.0208 17.889H26.825C26.5875 16.1779 25.2417 14.7927 23.5 14.7927C21.7583 14.7927 20.4125 16.1779 20.175 17.889H15.9792C15.5042 17.889 15.1875 18.2149 15.1875 18.7038C15.1875 19.1927 15.5042 19.5187 15.9792 19.5187H31.0208C31.4958 19.5187 31.8125 19.1927 31.8125 18.7038C31.8125 18.2149 31.4958 17.889 31.0208 17.889ZM23.5 16.5038C24.3708 16.5038 25.0833 17.1557 25.2417 17.9705H21.7583C21.9167 17.0742 22.6292 16.5038 23.5 16.5038Z" fill="black"/>
</svg>
