<svg width="47" height="47" viewBox="0 0 47 47" fill="none" xmlns="http://www.w3.org/2000/svg">
<rect width="47" height="47" rx="23.5" fill="#E9EAEB"/>
<path d="M24.2143 13C18.5732 13 14 17.7011 14 23.5C14 29.2989 18.5732 34 24.2143 34C29.8554 34 34.4286 29.2989 34.4286 23.5C34.4286 17.7011 29.8554 13 24.2143 13ZM24.2143 32.0909C19.5946 32.0909 15.8571 28.2489 15.8571 23.5C15.8571 18.7511 19.5946 14.9091 24.2143 14.9091C28.8339 14.9091 32.5714 18.7511 32.5714 23.5C32.5714 28.2489 28.8339 32.0909 24.2143 32.0909Z" fill="black"/>
<path d="M25.1445 19.4431H23.2874V22.5454H20.2695V24.4545H23.2874V27.5568H25.1445V24.4545H28.1624V22.5454H25.1445V19.4431Z" fill="black"/>
</svg>
