<svg width="54" height="54" viewBox="0 0 54 54" fill="none" xmlns="http://www.w3.org/2000/svg">
<rect width="54" height="54" rx="27" fill="#E9EAEB"/>
<path d="M27.0011 15C20.0583 15 14.4297 20.8205 14.4297 28C14.4297 35.1795 20.0583 41 27.0011 41C33.944 41 39.5725 35.1795 39.5725 28C39.5725 20.8205 33.944 15 27.0011 15ZM27.0011 38.6364C21.3154 38.6364 16.7154 33.8795 16.7154 28C16.7154 22.1205 21.3154 17.3636 27.0011 17.3636C32.6868 17.3636 37.2868 22.1205 37.2868 28C37.2868 33.8795 32.6868 38.6364 27.0011 38.6364Z" fill="black"/>
<path d="M28.1445 22.9773H25.8588V26.8182H22.1445V29.1818H25.8588V33.0228H28.1445V29.1818H31.8588V26.8182H28.1445V22.9773Z" fill="black"/>
</svg>
