<svg width="47" height="47" viewBox="0 0 47 47" fill="none" xmlns="http://www.w3.org/2000/svg">
<rect width="47" height="47" rx="23.5" fill="#E9EAEB"/>
<g clip-path="url(#clip0_2062_4213)">
<path fill-rule="evenodd" clip-rule="evenodd" d="M14.25 23.8285C14.25 18.5206 18.6152 14.2178 24 14.2178C29.3848 14.2178 33.75 18.5206 33.75 23.8285C33.75 29.1364 29.3848 33.4392 24 33.4392C18.6152 33.4392 14.25 29.1364 14.25 23.8285ZM24 15.6963C19.4436 15.6963 15.75 19.3372 15.75 23.8285C15.75 28.3197 19.4436 31.9606 24 31.9606C28.5564 31.9606 32.25 28.3197 32.25 23.8285C32.25 19.3372 28.5564 15.6963 24 15.6963Z" fill="black"/>
<path fill-rule="evenodd" clip-rule="evenodd" d="M24 28.5107C23.5858 28.5107 23.25 28.1797 23.25 27.7714V22.8428C23.25 22.4345 23.5858 22.1035 24 22.1035C24.4142 22.1035 24.75 22.4345 24.75 22.8428V27.7714C24.75 28.1797 24.4142 28.5107 24 28.5107Z" fill="black"/>
<path d="M23.25 19.8858C23.25 19.4775 23.5858 19.1465 24 19.1465C24.4142 19.1465 24.75 19.4775 24.75 19.8858C24.75 20.2941 24.4142 20.6251 24 20.6251C23.5858 20.6251 23.25 20.2941 23.25 19.8858Z" fill="black"/>
</g>
<defs>
<clipPath id="clip0_2062_4213">
<rect width="24" height="23" fill="white" transform="translate(12 12)"/>
</clipPath>
</defs>
</svg>
