<svg width="39" height="39" viewBox="0 0 39 39" fill="none" xmlns="http://www.w3.org/2000/svg">
<rect width="39" height="39" rx="19.5" fill="#F1F5F9"/>
<path d="M25.0505 10.7838H9.9764C9.43809 10.7838 9 11.2199 9 11.7596V14.3485C9 14.8865 9.43632 15.3244 9.9764 15.3244H10.5892V13.5092C10.5892 12.8826 11.0973 12.3747 11.7243 12.3747H23.3027C23.9297 12.3747 24.4378 12.8826 24.4378 13.5092V15.3244H25.0506C25.5889 15.3244 26.027 14.8883 26.027 14.3485V11.7596C26.027 11.2217 25.5906 10.7838 25.0505 10.7838Z" fill="#3967A1"/>
<path d="M14.6758 15.8919H21.4866V17.027H14.6758V15.8919Z" fill="#193C6A"/>
<path d="M14.1084 15.8919H20.9192V17.027H14.1084V15.8919Z" fill="#193C6A"/>
<path d="M23.3029 13.0541H11.7246C11.4745 13.0541 11.2705 13.258 11.2705 13.5081V31.2162L14.6759 28.946L17.5138 31.2162L19.6705 29.4905V25.3136C19.6705 24.4374 20.3835 23.7244 21.2597 23.7244H23.757V13.5082C23.757 13.2581 23.553 13.0541 23.3029 13.0541ZM18.0813 27.1298H13.5408C13.2907 27.1298 13.0867 26.9258 13.0867 26.6757C13.0867 26.4256 13.2907 26.2216 13.5408 26.2216H18.0813C18.3314 26.2216 18.5354 26.4256 18.5354 26.6757C18.5354 26.9258 18.3314 27.1298 18.0813 27.1298ZM18.0813 24.8595H13.5408C13.2907 24.8595 13.0867 24.6555 13.0867 24.4054C13.0867 24.1553 13.2907 23.9514 13.5408 23.9514H18.0813C18.3314 23.9514 18.5354 24.1553 18.5354 24.4054C18.5354 24.6555 18.3314 24.8595 18.0813 24.8595ZM18.0813 22.5892H13.5408C13.2907 22.5892 13.0867 22.3852 13.0867 22.1352C13.0867 21.8851 13.2907 21.6811 13.5408 21.6811H18.0813C18.3314 21.6811 18.5354 21.8851 18.5354 22.1352C18.5354 22.3852 18.3314 22.5892 18.0813 22.5892ZM18.0813 20.3189H13.5408C13.2907 20.3189 13.0867 20.115 13.0867 19.8649C13.0867 19.6148 13.2907 19.4108 13.5408 19.4108H18.0813C18.3314 19.4108 18.5354 19.6148 18.5354 19.8649C18.5354 20.115 18.3314 20.3189 18.0813 20.3189ZM21.4867 22.5892H20.3516C20.1015 22.5892 19.8975 22.3852 19.8975 22.1352C19.8975 21.8851 20.1015 21.6811 20.3516 21.6811H21.4867C21.7368 21.6811 21.9408 21.8851 21.9408 22.1352C21.9408 22.3852 21.7368 22.5892 21.4867 22.5892ZM21.4867 20.3189H20.3516C20.1015 20.3189 19.8975 20.115 19.8975 19.8649C19.8975 19.6148 20.1015 19.4108 20.3516 19.4108H21.4867C21.7368 19.4108 21.9408 19.6148 21.9408 19.8649C21.9408 20.115 21.7368 20.3189 21.4867 20.3189ZM21.9408 17.1406C21.9408 17.6425 21.5346 18.0487 21.0327 18.0487H13.9948C13.4929 18.0487 13.0867 17.6425 13.0867 17.1406V15.7784C13.0867 15.2765 13.4929 14.8703 13.9948 14.8703H21.0327C21.5346 14.8703 21.9408 15.2765 21.9408 15.7784V17.1406Z" fill="#3967A1"/>
<path d="M29.4326 25.2567V26.1081H20.3516V25.2567C20.3516 24.7862 20.7577 24.4054 21.2597 24.4054H28.5245C29.0265 24.4054 29.4326 24.7862 29.4326 25.2567Z" fill="#3967A1"/>
<path d="M20.3516 27.2432V30.3333C20.3516 30.8213 20.7577 31.2162 21.2597 31.2162H28.5245C29.0265 31.2162 29.4326 30.8213 29.4326 30.3333V27.2432H20.3516ZM27.1624 29.4504H26.0272C25.7771 29.4504 25.5732 29.2521 25.5732 29.009C25.5732 28.7659 25.7772 28.5675 26.0272 28.5675H27.1624C27.4125 28.5675 27.6164 28.7659 27.6164 29.009C27.6164 29.2521 27.4125 29.4504 27.1624 29.4504Z" fill="#3967A1"/>
<path d="M9.59318 9.14912C8.9807 8.80608 8.42006 8.06624 7.9375 7.90688C8.09005 7.59022 8.2688 7.28687 8.4719 7C8.95446 7.46784 9.5151 8.29024 10.1276 8.2416C9.97463 8.55825 9.7959 8.86178 9.59318 9.14912Z" fill="#235697"/>
<path opacity="0.5" d="M9.59318 9.14912C8.9807 8.80608 8.42006 8.06624 7.9375 7.90688C8.09005 7.59022 8.2688 7.28687 8.4719 7C8.95446 7.46784 9.5151 8.29024 10.1276 8.2416C9.97463 8.55825 9.7959 8.86178 9.59318 9.14912Z" fill="white"/>
<path opacity="0.2" d="M9.98273 8.43746C9.91873 8.42978 9.89761 8.35938 9.93729 8.28898C9.44321 8.18274 8.98497 7.58498 8.57793 7.17474C8.56796 7.18727 8.55539 7.19748 8.54109 7.20468C8.52679 7.21188 8.5111 7.21589 8.4951 7.21643C8.4791 7.21698 8.46317 7.21405 8.44841 7.20785C8.43365 7.20165 8.42042 7.19232 8.40961 7.1805C8.28915 7.3575 8.17785 7.54057 8.07617 7.72898C8.10283 7.75166 8.11999 7.78352 8.12426 7.81825C8.12853 7.85298 8.11959 7.88805 8.09921 7.9165C8.50689 8.1341 8.96449 8.6845 9.45921 9.01538C9.48301 8.98937 9.51473 8.97193 9.54945 8.9658C9.58417 8.95967 9.61994 8.96517 9.65121 8.98146C9.77134 8.8057 9.88242 8.62392 9.98401 8.43682L9.98273 8.43746ZM8.83457 8.2909C8.71297 8.17762 8.68481 8.0029 8.76673 7.9005C8.84865 7.7981 9.01057 7.81858 9.13217 7.9357C9.25377 8.05282 9.28833 8.21986 9.20641 8.3197C9.12449 8.41954 8.95873 8.40546 8.83457 8.2909Z" fill="black"/>
<g opacity="0.2">
<path d="M8.92735 8.22687L8.90559 8.25311L8.88127 8.23071C8.88895 8.22175 8.89599 8.21279 8.90367 8.20447C8.87863 8.17977 8.85977 8.14951 8.84863 8.11615L8.88191 8.10463C8.89043 8.13229 8.90509 8.15767 8.92479 8.17887L8.96383 8.13151C8.93695 8.09439 8.90943 8.05215 8.93695 8.01951C8.96447 7.98687 8.99647 7.99583 9.04447 8.03615C9.05215 8.02783 9.05919 8.01887 9.06687 8.00991L9.09055 8.03295L9.06879 8.05919C9.08893 8.07941 9.10501 8.10331 9.11615 8.12959L9.08415 8.14239C9.0752 8.12114 9.06289 8.10147 9.04767 8.08415L9.00799 8.13151C9.03487 8.16863 9.06367 8.21087 9.03615 8.24351C9.00863 8.27615 8.97663 8.26911 8.92735 8.22687ZM8.99135 8.10335L9.02591 8.06175C9.00351 8.04447 8.98751 8.04447 8.97919 8.05471C8.97087 8.06495 8.97471 8.08543 8.98815 8.10591L8.99135 8.10335ZM9.00031 8.20959C9.00991 8.19807 9.00031 8.18079 8.98687 8.15967L8.95231 8.20127C8.97279 8.22175 8.98815 8.22239 8.99711 8.21215L9.00031 8.20959Z" fill="black"/>
</g>
<path d="M14.8465 11.8576C14.2833 12.1609 13.4308 12.1993 13.075 12.5008C12.8964 12.1977 12.7411 11.8814 12.6104 11.5549C13.2113 11.4269 14.1297 11.4352 14.3819 10.911C14.5603 11.2144 14.7157 11.5308 14.8465 11.8576Z" fill="#235697"/>
<path opacity="0.5" d="M14.8465 11.8576C14.2833 12.1609 13.4308 12.1993 13.075 12.5008C12.8964 12.1977 12.7411 11.8814 12.6104 11.5549C13.2113 11.4269 14.1297 11.4352 14.3819 10.911C14.5603 11.2144 14.7157 11.5308 14.8465 11.8576Z" fill="white"/>
<path opacity="0.2" d="M14.4676 11.1433C14.4305 11.192 14.3652 11.1683 14.3288 11.0966C14.0088 11.4371 13.3201 11.4742 12.7992 11.5715C12.8048 11.5856 12.8073 11.6008 12.8064 11.6159C12.8056 11.6311 12.8014 11.6459 12.7942 11.6592C12.787 11.6726 12.7769 11.6842 12.7647 11.6933C12.7525 11.7024 12.7385 11.7086 12.7236 11.7117C12.8004 11.8934 12.89 12.0841 13.0001 12.2877C13.05 12.2627 13.1224 12.3017 13.1601 12.3753C13.5262 12.1673 14.1784 12.1046 14.6776 11.8915C14.6681 11.8595 14.6692 11.8252 14.6808 11.7939C14.6923 11.7625 14.7136 11.7357 14.7416 11.7174C14.6654 11.5363 14.5764 11.3462 14.4676 11.1414V11.1433ZM13.8072 11.9901C13.7399 12.0086 13.6681 12.0021 13.6052 11.9718C13.5424 11.9414 13.4927 11.8892 13.4654 11.8249C13.4225 11.7008 13.516 11.5817 13.667 11.5491C13.818 11.5165 13.9665 11.5824 14.0068 11.7053C14.0472 11.8281 13.9556 11.9561 13.8072 11.9901Z" fill="black"/>
<g opacity="0.2">
<path d="M13.8021 11.88C13.8059 11.8909 13.8091 11.9018 13.8123 11.9127L13.7829 11.9197C13.7829 11.9088 13.7758 11.8979 13.7726 11.8871C13.7407 11.8931 13.7077 11.8914 13.6766 11.8819C13.6766 11.8704 13.6811 11.8595 13.6837 11.8487C13.7089 11.8574 13.736 11.8596 13.7624 11.8551C13.7566 11.8359 13.7502 11.8167 13.7438 11.7968C13.7016 11.7968 13.6549 11.7968 13.6421 11.7552C13.6325 11.7258 13.651 11.6944 13.7061 11.6778C13.7022 11.6669 13.699 11.656 13.6952 11.6451L13.7253 11.6387C13.7253 11.6496 13.7317 11.6605 13.7355 11.6714C13.7615 11.6659 13.7883 11.6659 13.8142 11.6714L13.8085 11.704C13.7873 11.7004 13.7656 11.7004 13.7445 11.704C13.7509 11.7232 13.7573 11.7431 13.763 11.7629C13.8059 11.7629 13.8526 11.7629 13.8654 11.8026C13.8763 11.8307 13.8571 11.8627 13.8021 11.88ZM13.7329 11.7616C13.7272 11.7443 13.7221 11.7271 13.7163 11.7098C13.692 11.7187 13.6843 11.7315 13.6881 11.7443C13.692 11.7571 13.7105 11.761 13.7329 11.7616ZM13.8213 11.8141C13.8168 11.8 13.7989 11.7968 13.7758 11.7968C13.7809 11.8141 13.7867 11.8314 13.7918 11.848C13.8174 11.8391 13.8225 11.8269 13.8225 11.8141H13.8213Z" fill="black"/>
</g>
<path d="M19.45 7.82496C18.7857 8.04896 18.1322 8.32608 17.6375 8.75808C17.4621 8.49824 17.2817 8.23392 17.1172 7.9568C17.6708 7.53376 18.3165 7.26688 18.9297 7.02368C19.105 7.28352 19.2855 7.54784 19.45 7.82496Z" fill="#235697"/>
<path opacity="0.5" d="M19.45 7.82496C18.7857 8.04896 18.1322 8.32608 17.6375 8.75808C17.4621 8.49824 17.2817 8.23392 17.1172 7.9568C17.6708 7.53376 18.3165 7.26688 18.9297 7.02368C19.105 7.28352 19.2855 7.54784 19.45 7.82496Z" fill="white"/>
<path opacity="0.2" d="M18.9816 7.18947C18.9476 7.20197 18.9105 7.20305 18.8758 7.19254C18.8412 7.18203 18.8109 7.1605 18.7896 7.13123C18.2814 7.33667 17.7592 7.56387 17.2933 7.88963C17.3106 7.92116 17.3161 7.95787 17.3087 7.9931C17.3013 8.02834 17.2815 8.05975 17.2529 8.08163C17.3579 8.25123 17.4673 8.41635 17.5768 8.57955C17.5892 8.56885 17.6039 8.56098 17.6196 8.55647C17.6354 8.55196 17.652 8.55091 17.6682 8.55341C17.6845 8.5559 17.7 8.56187 17.7137 8.57091C17.7274 8.57995 17.739 8.59185 17.7477 8.60579C18.179 8.27299 18.7077 8.03875 19.2453 7.84483C19.2364 7.83102 19.231 7.81533 19.2294 7.79904C19.2278 7.78274 19.23 7.7663 19.236 7.75103C19.2419 7.73577 19.2513 7.72211 19.2635 7.71116C19.2757 7.70022 19.2902 7.69229 19.3061 7.68803C19.2011 7.51907 19.091 7.35395 18.9822 7.19075L18.9816 7.18947ZM18.3569 8.03107C18.2937 8.06476 18.2202 8.07399 18.1506 8.05699C18.0809 8.04 18.02 7.99796 17.9793 7.93891C17.9617 7.90945 17.9504 7.87659 17.9464 7.84249C17.9423 7.80838 17.9456 7.77381 17.9558 7.74104C17.9661 7.70827 17.9832 7.67804 18.006 7.65236C18.0288 7.62668 18.0568 7.60611 18.0881 7.59203C18.1537 7.55968 18.2289 7.55231 18.2995 7.57126C18.3702 7.59022 18.4315 7.63422 18.4721 7.69507C18.4893 7.72413 18.5 7.75658 18.5034 7.79016C18.5068 7.82375 18.5029 7.85768 18.492 7.88961C18.481 7.92155 18.4633 7.95073 18.44 7.97515C18.4166 7.99957 18.3883 8.01865 18.3569 8.03107Z" fill="black"/>
<g opacity="0.2">
<path d="M18.3193 7.91581L18.3391 7.94845L18.3123 7.96125L18.2924 7.92925C18.2631 7.94293 18.2306 7.94846 18.1983 7.94525C18.1983 7.93309 18.1983 7.92029 18.1951 7.90813C18.2216 7.91153 18.2485 7.908 18.2732 7.89789C18.2617 7.87805 18.2495 7.85885 18.2374 7.83965C18.1964 7.84989 18.1516 7.85885 18.1273 7.81853C18.1087 7.78909 18.1171 7.75069 18.1651 7.72125L18.1446 7.68797L18.1715 7.67517L18.1913 7.70717C18.2155 7.69677 18.2418 7.69195 18.2681 7.69309C18.2681 7.70461 18.2713 7.71677 18.2732 7.72893C18.2515 7.72812 18.2298 7.73137 18.2092 7.73853L18.2451 7.79741C18.286 7.78781 18.3321 7.77885 18.3571 7.81917C18.3763 7.84861 18.3667 7.88573 18.3193 7.91581ZM18.2163 7.80445L18.1843 7.75261C18.1631 7.76733 18.1599 7.78269 18.1676 7.79549C18.1753 7.80829 18.1939 7.80893 18.2163 7.80445ZM18.318 7.84157C18.3091 7.82749 18.2905 7.82813 18.2681 7.83261L18.2995 7.88381C18.3212 7.86909 18.3257 7.85437 18.318 7.84285V7.84157Z" fill="black"/>
</g>
<path d="M7.75424 14.648C7.2704 14.1437 6.48384 14.191 6 13.688C6.15232 13.4098 6.30485 13.1314 6.4576 12.8528C6.94144 13.3571 7.728 13.3104 8.21184 13.8128C8.05952 14.0914 7.90699 14.3698 7.75424 14.648Z" fill="#235697"/>
<path opacity="0.5" d="M7.75424 14.648C7.2704 14.1437 6.48384 14.191 6 13.688C6.15232 13.4098 6.30485 13.1314 6.4576 12.8528C6.94144 13.3571 7.728 13.3104 8.21184 13.8128C8.05952 14.0914 7.90699 14.3698 7.75424 14.648Z" fill="white"/>
<path opacity="0.2" d="M8.08849 13.9331C8.06157 13.9082 8.04334 13.8753 8.03643 13.8393C8.02952 13.8032 8.03431 13.7659 8.05009 13.7328C7.61233 13.3936 7.00817 13.3584 6.57041 13.0186C6.56355 13.0333 6.5532 13.0461 6.54028 13.0559C6.52735 13.0657 6.51222 13.0722 6.49621 13.0749C6.4802 13.0775 6.46379 13.0762 6.44839 13.0711C6.43299 13.066 6.41908 13.0572 6.40785 13.0454L6.12305 13.5664C6.14971 13.5914 6.16774 13.6242 6.17453 13.6601C6.18132 13.696 6.17651 13.7331 6.16081 13.7661C6.59857 14.1059 7.20273 14.1411 7.64049 14.481C7.64728 14.4662 7.65758 14.4533 7.67048 14.4435C7.68337 14.4336 7.69849 14.427 7.7145 14.4243C7.73052 14.4216 7.74696 14.4228 7.76239 14.4279C7.77782 14.433 7.79177 14.4417 7.80305 14.4534L8.08785 13.9331H8.08849ZM6.97489 13.9651C6.94299 13.9548 6.91382 13.9375 6.88954 13.9144C6.86526 13.8912 6.84649 13.863 6.83463 13.8316C6.82277 13.8003 6.81811 13.7667 6.82101 13.7333C6.82391 13.6999 6.83428 13.6676 6.85137 13.6387C6.8891 13.5756 6.94744 13.5273 7.01656 13.5022C7.08569 13.477 7.16138 13.4764 7.23089 13.5005C7.2628 13.5105 7.29203 13.5277 7.31638 13.5507C7.34074 13.5736 7.35959 13.6018 7.37153 13.633C7.38347 13.6643 7.38819 13.6979 7.38533 13.7312C7.38248 13.7645 7.37213 13.7968 7.35505 13.8256C7.31749 13.8891 7.25912 13.9377 7.18984 13.9631C7.12056 13.9886 7.04462 13.9893 6.97489 13.9651Z" fill="black"/>
<g opacity="0.2">
<path d="M7.06118 13.8659C7.05542 13.8774 7.04902 13.8889 7.04262 13.9005L7.0151 13.8902L7.03366 13.8563C7.00569 13.8458 6.98189 13.8265 6.96582 13.8013L6.99782 13.7757C7.01075 13.7966 7.02971 13.8131 7.05222 13.823C7.0631 13.8025 7.07462 13.7821 7.08614 13.759C7.0535 13.7373 7.02214 13.7117 7.04326 13.6688C7.05482 13.6509 7.07226 13.6375 7.0926 13.6311C7.11293 13.6247 7.13486 13.6256 7.15462 13.6336L7.17382 13.5984L7.20134 13.6086L7.18214 13.6425C7.20503 13.6514 7.22499 13.6665 7.23974 13.6861L7.20902 13.7117C7.19686 13.6966 7.18157 13.6844 7.16422 13.6758L7.1303 13.7398C7.16294 13.7616 7.1943 13.7872 7.17382 13.8301C7.16205 13.8481 7.14441 13.8615 7.12389 13.8681C7.10336 13.8746 7.08121 13.8738 7.06118 13.8659ZM7.10598 13.7245L7.13606 13.6694C7.11046 13.6643 7.09446 13.6694 7.08742 13.6854C7.08038 13.7014 7.08998 13.7117 7.10598 13.7245ZM7.12966 13.8179C7.13798 13.8025 7.12966 13.7904 7.10982 13.7776L7.07974 13.832C7.10598 13.8377 7.12198 13.8307 7.12966 13.8179Z" fill="black"/>
</g>
<path d="M23.5851 12.0823C23.1281 12.6339 22.3409 12.3383 21.8839 12.7792C21.7169 12.4765 21.5499 12.1853 21.3828 11.9152C21.8398 11.3635 22.627 11.6592 23.0839 11.2183C23.251 11.521 23.418 11.8109 23.5851 12.0823Z" fill="#235697"/>
<path opacity="0.5" d="M23.5851 12.0823C23.1281 12.6339 22.3409 12.3383 21.8839 12.7792C21.7169 12.4765 21.5499 12.1853 21.3828 11.9152C21.8398 11.3635 22.627 11.6592 23.0839 11.2183C23.251 11.521 23.418 11.8109 23.5851 12.0823Z" fill="white"/>
<path opacity="0.2" d="M23.1424 11.4211C23.0919 11.4665 23.0144 11.439 22.9786 11.3693C22.5594 11.6393 21.9578 11.4928 21.5392 11.8333C21.5567 11.8652 21.5634 11.9019 21.5584 11.938C21.5535 11.974 21.5371 12.0075 21.5117 12.0336C21.6154 12.2083 21.7197 12.3901 21.824 12.5769C21.8746 12.5315 21.952 12.559 21.9879 12.6281C22.4064 12.3581 23.008 12.5046 23.4272 12.1648C23.4097 12.133 23.4028 12.0964 23.4078 12.0604C23.4128 12.0244 23.4292 11.991 23.4548 11.9651C23.3504 11.791 23.2461 11.6086 23.1424 11.4217V11.4211ZM22.6042 12.2493C22.4672 12.2678 22.2964 12.1686 22.2202 12.0246C22.144 11.8806 22.1895 11.7405 22.3258 11.7213C22.4621 11.7021 22.6343 11.8025 22.7098 11.9465C22.7853 12.0905 22.7412 12.2301 22.6042 12.2493Z" fill="black"/>
<g opacity="0.2">
<path d="M22.5654 12.1219L22.5859 12.1609L22.5597 12.1648L22.5386 12.1257C22.5058 12.1285 22.4729 12.1225 22.4432 12.1084L22.4394 12.0707C22.464 12.083 22.4912 12.0889 22.5187 12.088L22.4822 12.0182C22.4598 12.0189 22.4377 12.0137 22.4179 12.0032C22.3981 11.9926 22.3815 11.9771 22.3696 11.9581C22.3641 11.9506 22.3607 11.9419 22.3597 11.9327C22.3587 11.9236 22.3602 11.9143 22.3639 11.9059C22.3677 11.8975 22.3737 11.8902 22.3812 11.8849C22.3887 11.8795 22.3975 11.8763 22.4067 11.8755L22.3856 11.8358L22.4125 11.832L22.433 11.871C22.4595 11.8691 22.4862 11.8731 22.511 11.8825C22.511 11.8953 22.5142 11.9075 22.5162 11.9196C22.4957 11.912 22.474 11.9083 22.4522 11.9088L22.4899 11.9792C22.5123 11.9784 22.5344 11.9835 22.5542 11.9939C22.5739 12.0044 22.5906 12.0198 22.6026 12.0387C22.608 12.0462 22.6114 12.0549 22.6124 12.0641C22.6134 12.0733 22.6119 12.0826 22.6081 12.0911C22.6044 12.0995 22.5984 12.1068 22.5909 12.1122C22.5834 12.1176 22.5746 12.121 22.5654 12.1219ZM22.463 11.976L22.4298 11.912C22.4086 11.9197 22.4054 11.9337 22.4138 11.9491C22.4191 11.9573 22.4264 11.964 22.435 11.9687C22.4436 11.9734 22.4533 11.9759 22.463 11.976ZM22.5667 12.0476C22.5609 12.0397 22.5533 12.0331 22.5445 12.0286C22.5358 12.024 22.526 12.0216 22.5162 12.0214L22.5488 12.0854C22.5674 12.0764 22.5712 12.063 22.5635 12.0476H22.5667Z" fill="black"/>
</g>
<path d="M17.5932 11.1491C16.9807 10.8061 16.4201 10.0662 15.9375 9.90688C16.09 9.59022 16.2688 9.28687 16.4719 9C16.9545 9.46784 17.5151 10.2902 18.1276 10.2416C17.9746 10.5582 17.7959 10.8618 17.5932 11.1491Z" fill="#235697"/>
<path opacity="0.5" d="M17.5932 11.1491C16.9807 10.8061 16.4201 10.0662 15.9375 9.90688C16.09 9.59022 16.2688 9.28687 16.4719 9C16.9545 9.46784 17.5151 10.2902 18.1276 10.2416C17.9746 10.5582 17.7959 10.8618 17.5932 11.1491Z" fill="white"/>
<path opacity="0.2" d="M17.9827 10.4375C17.9187 10.4298 17.8976 10.3594 17.9373 10.289C17.4432 10.1827 16.985 9.58498 16.5779 9.17474C16.568 9.18727 16.5554 9.19748 16.5411 9.20468C16.5268 9.21188 16.5111 9.21589 16.4951 9.21643C16.4791 9.21698 16.4632 9.21405 16.4484 9.20785C16.4337 9.20165 16.4204 9.19232 16.4096 9.1805C16.2891 9.3575 16.1779 9.54057 16.0762 9.72898C16.1028 9.75166 16.12 9.78352 16.1243 9.81825C16.1285 9.85298 16.1196 9.88805 16.0992 9.9165C16.5069 10.1341 16.9645 10.6845 17.4592 11.0154C17.483 10.9894 17.5147 10.9719 17.5494 10.9658C17.5842 10.9597 17.6199 10.9652 17.6512 10.9815C17.7713 10.8057 17.8824 10.6239 17.984 10.4368L17.9827 10.4375ZM16.8346 10.2909C16.713 10.1776 16.6848 10.0029 16.7667 9.9005C16.8487 9.7981 17.0106 9.81858 17.1322 9.9357C17.2538 10.0528 17.2883 10.2199 17.2064 10.3197C17.1245 10.4195 16.9587 10.4055 16.8346 10.2909Z" fill="black"/>
<g opacity="0.2">
<path d="M16.9274 10.2269L16.9056 10.2531L16.8813 10.2307C16.889 10.2217 16.896 10.2128 16.9037 10.2045C16.8786 10.1798 16.8598 10.1495 16.8486 10.1161L16.8819 10.1046C16.8904 10.1323 16.9051 10.1577 16.9248 10.1789L16.9638 10.1315C16.937 10.0944 16.9094 10.0521 16.937 10.0195C16.9645 9.98687 16.9965 9.99583 17.0445 10.0361C17.0522 10.0278 17.0592 10.0189 17.0669 10.0099L17.0906 10.0329L17.0688 10.0592C17.0889 10.0794 17.105 10.1033 17.1162 10.1296L17.0842 10.1424C17.0752 10.1211 17.0629 10.1015 17.0477 10.0841L17.008 10.1315C17.0349 10.1686 17.0637 10.2109 17.0362 10.2435C17.0086 10.2761 16.9766 10.2691 16.9274 10.2269ZM16.9914 10.1033L17.0259 10.0617C17.0035 10.0445 16.9875 10.0445 16.9792 10.0547C16.9709 10.0649 16.9747 10.0854 16.9882 10.1059L16.9914 10.1033ZM17.0003 10.2096C17.0099 10.1981 17.0003 10.1808 16.9869 10.1597L16.9523 10.2013C16.9728 10.2217 16.9882 10.2224 16.9971 10.2121L17.0003 10.2096Z" fill="black"/>
</g>
<path d="M22.8465 13.8576C22.2833 14.1609 21.4308 14.1993 21.075 14.5008C20.8964 14.1977 20.7411 13.8814 20.6104 13.5549C21.2113 13.4269 22.1297 13.4352 22.3819 12.911C22.5603 13.2144 22.7157 13.5308 22.8465 13.8576Z" fill="#235697"/>
<path opacity="0.5" d="M22.8465 13.8576C22.2833 14.1609 21.4308 14.1993 21.075 14.5008C20.8964 14.1977 20.7411 13.8814 20.6104 13.5549C21.2113 13.4269 22.1297 13.4352 22.3819 12.911C22.5603 13.2144 22.7157 13.5308 22.8465 13.8576Z" fill="white"/>
<path opacity="0.2" d="M22.4676 13.1433C22.4305 13.192 22.3652 13.1683 22.3288 13.0966C22.0088 13.4371 21.3201 13.4742 20.7992 13.5715C20.8048 13.5856 20.8073 13.6008 20.8064 13.6159C20.8056 13.6311 20.8014 13.6459 20.7942 13.6592C20.787 13.6726 20.7769 13.6842 20.7647 13.6933C20.7525 13.7024 20.7385 13.7086 20.7236 13.7117C20.8004 13.8934 20.89 14.0841 21.0001 14.2877C21.05 14.2627 21.1224 14.3017 21.1601 14.3753C21.5262 14.1673 22.1784 14.1046 22.6776 13.8915C22.6681 13.8595 22.6692 13.8252 22.6808 13.7939C22.6923 13.7625 22.7136 13.7357 22.7416 13.7174C22.6654 13.5363 22.5764 13.3462 22.4676 13.1414V13.1433ZM21.8072 13.9901C21.7399 14.0086 21.6681 14.0021 21.6052 13.9718C21.5424 13.9414 21.4927 13.8892 21.4654 13.8249C21.4225 13.7008 21.516 13.5817 21.667 13.5491C21.818 13.5165 21.9665 13.5824 22.0068 13.7053C22.0472 13.8281 21.9556 13.9561 21.8072 13.9901Z" fill="black"/>
<g opacity="0.2">
<path d="M21.8021 13.88C21.8059 13.8909 21.8091 13.9018 21.8123 13.9127L21.7829 13.9197C21.7829 13.9088 21.7758 13.8979 21.7726 13.8871C21.7407 13.8931 21.7077 13.8914 21.6766 13.8819C21.6766 13.8704 21.6811 13.8595 21.6837 13.8487C21.7089 13.8574 21.736 13.8596 21.7624 13.8551C21.7566 13.8359 21.7502 13.8167 21.7438 13.7968C21.7016 13.7968 21.6549 13.7968 21.6421 13.7552C21.6325 13.7258 21.651 13.6944 21.7061 13.6778C21.7022 13.6669 21.699 13.656 21.6952 13.6451L21.7253 13.6387C21.7253 13.6496 21.7317 13.6605 21.7355 13.6714C21.7615 13.6659 21.7883 13.6659 21.8142 13.6714L21.8085 13.704C21.7873 13.7004 21.7656 13.7004 21.7445 13.704C21.7509 13.7232 21.7573 13.7431 21.763 13.7629C21.8059 13.7629 21.8526 13.7629 21.8654 13.8026C21.8763 13.8307 21.8571 13.8627 21.8021 13.88ZM21.7329 13.7616C21.7272 13.7443 21.7221 13.7271 21.7163 13.7098C21.692 13.7187 21.6843 13.7315 21.6881 13.7443C21.692 13.7571 21.7105 13.761 21.7329 13.7616ZM21.8213 13.8141C21.8168 13.8 21.7989 13.7968 21.7758 13.7968C21.7809 13.8141 21.7867 13.8314 21.7918 13.848C21.8174 13.8391 21.8225 13.8269 21.8225 13.8141H21.8213Z" fill="black"/>
</g>
<path d="M27.45 9.82496C26.7857 10.049 26.1322 10.3261 25.6375 10.7581C25.4621 10.4982 25.2817 10.2339 25.1172 9.9568C25.6708 9.53376 26.3165 9.26688 26.9297 9.02368C27.105 9.28352 27.2855 9.54784 27.45 9.82496Z" fill="#235697"/>
<path opacity="0.5" d="M27.45 9.82496C26.7857 10.049 26.1322 10.3261 25.6375 10.7581C25.4621 10.4982 25.2817 10.2339 25.1172 9.9568C25.6708 9.53376 26.3165 9.26688 26.9297 9.02368C27.105 9.28352 27.2855 9.54784 27.45 9.82496Z" fill="white"/>
<path opacity="0.2" d="M26.9816 9.18947C26.9476 9.20197 26.9105 9.20305 26.8758 9.19254C26.8412 9.18203 26.8109 9.1605 26.7896 9.13123C26.2814 9.33667 25.7592 9.56387 25.2933 9.88963C25.3106 9.92116 25.3161 9.95787 25.3087 9.9931C25.3013 10.0283 25.2815 10.0597 25.2529 10.0816C25.3579 10.2512 25.4673 10.4163 25.5768 10.5795C25.5892 10.5689 25.6039 10.561 25.6196 10.5565C25.6354 10.552 25.652 10.5509 25.6682 10.5534C25.6845 10.5559 25.7 10.5619 25.7137 10.5709C25.7274 10.58 25.739 10.5918 25.7477 10.6058C26.179 10.273 26.7077 10.0387 27.2453 9.84483C27.2364 9.83102 27.231 9.81533 27.2294 9.79904C27.2278 9.78274 27.23 9.7663 27.236 9.75103C27.2419 9.73577 27.2513 9.72211 27.2635 9.71116C27.2757 9.70022 27.2902 9.69229 27.3061 9.68803C27.2011 9.51907 27.091 9.35395 26.9822 9.19075L26.9816 9.18947ZM26.3569 10.0311C26.2937 10.0648 26.2202 10.074 26.1506 10.057C26.0809 10.04 26.02 9.99796 25.9793 9.93891C25.9617 9.90945 25.9504 9.87659 25.9464 9.84249C25.9423 9.80838 25.9456 9.77381 25.9558 9.74104C25.9661 9.70827 25.9832 9.67804 26.006 9.65236C26.0288 9.62668 26.0568 9.60611 26.0881 9.59203C26.1537 9.55968 26.2289 9.55231 26.2995 9.57126C26.3702 9.59022 26.4315 9.63422 26.4721 9.69507C26.4893 9.72413 26.5 9.75658 26.5034 9.79016C26.5068 9.82375 26.5029 9.85768 26.492 9.88961C26.481 9.92155 26.4633 9.95073 26.44 9.97515C26.4166 9.99957 26.3883 10.0186 26.3569 10.0311Z" fill="black"/>
<g opacity="0.2">
<path d="M26.3193 9.91581L26.3391 9.94845L26.3123 9.96125L26.2924 9.92925C26.2631 9.94293 26.2306 9.94846 26.1983 9.94525C26.1983 9.93309 26.1983 9.92029 26.1951 9.90813C26.2216 9.91153 26.2485 9.908 26.2732 9.89789C26.2617 9.87805 26.2495 9.85885 26.2374 9.83965C26.1964 9.84989 26.1516 9.85885 26.1273 9.81853C26.1087 9.78909 26.1171 9.75069 26.1651 9.72125L26.1446 9.68797L26.1715 9.67517L26.1913 9.70717C26.2155 9.69677 26.2418 9.69195 26.2681 9.69309C26.2681 9.70461 26.2713 9.71677 26.2732 9.72893C26.2515 9.72812 26.2298 9.73137 26.2092 9.73853L26.2451 9.79741C26.286 9.78781 26.3321 9.77885 26.3571 9.81917C26.3763 9.84861 26.3667 9.88573 26.3193 9.91581ZM26.2163 9.80445L26.1843 9.75261C26.1631 9.76733 26.1599 9.78269 26.1676 9.79549C26.1753 9.80829 26.1939 9.80893 26.2163 9.80445ZM26.318 9.84157C26.3091 9.82749 26.2905 9.82813 26.2681 9.83261L26.2995 9.88381C26.3212 9.86909 26.3257 9.85437 26.318 9.84285V9.84157Z" fill="black"/>
</g>
<path d="M15.7542 16.648C15.2704 16.1437 14.4838 16.191 14 15.688C14.1523 15.4098 14.3049 15.1314 14.4576 14.8528C14.9414 15.3571 15.728 15.3104 16.2118 15.8128C16.0595 16.0914 15.907 16.3698 15.7542 16.648Z" fill="#235697"/>
<path opacity="0.5" d="M15.7542 16.648C15.2704 16.1437 14.4838 16.191 14 15.688C14.1523 15.4098 14.3049 15.1314 14.4576 14.8528C14.9414 15.3571 15.728 15.3104 16.2118 15.8128C16.0595 16.0914 15.907 16.3698 15.7542 16.648Z" fill="white"/>
<path opacity="0.2" d="M16.0885 15.9331C16.0616 15.9082 16.0433 15.8753 16.0364 15.8393C16.0295 15.8032 16.0343 15.7659 16.0501 15.7328C15.6123 15.3936 15.0082 15.3584 14.5704 15.0186C14.5635 15.0333 14.5532 15.0461 14.5403 15.0559C14.5273 15.0657 14.5122 15.0722 14.4962 15.0749C14.4802 15.0775 14.4638 15.0762 14.4484 15.0711C14.433 15.066 14.4191 15.0572 14.4078 15.0454L14.123 15.5664C14.1497 15.5914 14.1677 15.6242 14.1745 15.6601C14.1813 15.696 14.1765 15.7331 14.1608 15.7661C14.5986 16.1059 15.2027 16.1411 15.6405 16.481C15.6473 16.4662 15.6576 16.4533 15.6705 16.4435C15.6834 16.4336 15.6985 16.427 15.7145 16.4243C15.7305 16.4216 15.747 16.4228 15.7624 16.4279C15.7778 16.433 15.7918 16.4417 15.803 16.4534L16.0878 15.9331H16.0885ZM14.9749 15.9651C14.943 15.9548 14.9138 15.9375 14.8895 15.9144C14.8653 15.8912 14.8465 15.863 14.8346 15.8316C14.8228 15.8003 14.8181 15.7667 14.821 15.7333C14.8239 15.6999 14.8343 15.6676 14.8514 15.6387C14.8891 15.5756 14.9474 15.5273 15.0166 15.5022C15.0857 15.477 15.1614 15.4764 15.2309 15.5005C15.2628 15.5105 15.292 15.5277 15.3164 15.5507C15.3407 15.5736 15.3596 15.6018 15.3715 15.633C15.3835 15.6643 15.3882 15.6979 15.3853 15.7312C15.3825 15.7645 15.3721 15.7968 15.355 15.8256C15.3175 15.8891 15.2591 15.9377 15.1898 15.9631C15.1206 15.9886 15.0446 15.9893 14.9749 15.9651Z" fill="black"/>
<g opacity="0.2">
<path d="M15.0612 15.8659C15.0554 15.8774 15.049 15.8889 15.0426 15.9005L15.0151 15.8902L15.0337 15.8563C15.0057 15.8458 14.9819 15.8265 14.9658 15.8013L14.9978 15.7757C15.0107 15.7966 15.0297 15.8131 15.0522 15.823C15.0631 15.8025 15.0746 15.7821 15.0861 15.759C15.0535 15.7373 15.0221 15.7117 15.0433 15.6688C15.0548 15.6509 15.0723 15.6375 15.0926 15.6311C15.1129 15.6247 15.1349 15.6256 15.1546 15.6336L15.1738 15.5984L15.2013 15.6086L15.1821 15.6425C15.205 15.6514 15.225 15.6665 15.2397 15.6861L15.209 15.7117C15.1969 15.6966 15.1816 15.6844 15.1642 15.6758L15.1303 15.7398C15.1629 15.7616 15.1943 15.7872 15.1738 15.8301C15.1621 15.8481 15.1444 15.8615 15.1239 15.8681C15.1034 15.8746 15.0812 15.8738 15.0612 15.8659ZM15.106 15.7245L15.1361 15.6694C15.1105 15.6643 15.0945 15.6694 15.0874 15.6854C15.0804 15.7014 15.09 15.7117 15.106 15.7245ZM15.1297 15.8179C15.138 15.8025 15.1297 15.7904 15.1098 15.7776L15.0797 15.832C15.106 15.8377 15.122 15.8307 15.1297 15.8179Z" fill="black"/>
</g>
<path d="M31.5851 14.0823C31.1281 14.6339 30.3409 14.3383 29.8839 14.7792C29.7169 14.4765 29.5499 14.1853 29.3828 13.9152C29.8398 13.3635 30.627 13.6592 31.0839 13.2183C31.251 13.521 31.418 13.8109 31.5851 14.0823Z" fill="#235697"/>
<path opacity="0.5" d="M31.5851 14.0823C31.1281 14.6339 30.3409 14.3383 29.8839 14.7792C29.7169 14.4765 29.5499 14.1853 29.3828 13.9152C29.8398 13.3635 30.627 13.6592 31.0839 13.2183C31.251 13.521 31.418 13.8109 31.5851 14.0823Z" fill="white"/>
<path opacity="0.2" d="M31.1424 13.4211C31.0919 13.4665 31.0144 13.439 30.9786 13.3693C30.5594 13.6393 29.9578 13.4928 29.5392 13.8333C29.5567 13.8652 29.5634 13.9019 29.5584 13.938C29.5535 13.974 29.5371 14.0075 29.5117 14.0336C29.6154 14.2083 29.7197 14.3901 29.824 14.5769C29.8746 14.5315 29.952 14.559 29.9879 14.6281C30.4064 14.3581 31.008 14.5046 31.4272 14.1648C31.4097 14.133 31.4028 14.0964 31.4078 14.0604C31.4128 14.0244 31.4292 13.991 31.4548 13.9651C31.3504 13.791 31.2461 13.6086 31.1424 13.4217V13.4211ZM30.6042 14.2493C30.4672 14.2678 30.2964 14.1686 30.2202 14.0246C30.144 13.8806 30.1895 13.7405 30.3258 13.7213C30.4621 13.7021 30.6343 13.8025 30.7098 13.9465C30.7853 14.0905 30.7412 14.2301 30.6042 14.2493Z" fill="black"/>
<g opacity="0.2">
<path d="M30.5654 14.1219L30.5859 14.1609L30.5597 14.1648L30.5386 14.1257C30.5058 14.1285 30.4729 14.1225 30.4432 14.1084L30.4394 14.0707C30.464 14.083 30.4912 14.0889 30.5187 14.088L30.4822 14.0182C30.4598 14.0189 30.4377 14.0137 30.4179 14.0032C30.3981 13.9926 30.3815 13.9771 30.3696 13.9581C30.3641 13.9506 30.3607 13.9419 30.3597 13.9327C30.3587 13.9236 30.3602 13.9143 30.3639 13.9059C30.3677 13.8975 30.3737 13.8902 30.3812 13.8849C30.3887 13.8795 30.3975 13.8763 30.4067 13.8755L30.3856 13.8358L30.4125 13.832L30.433 13.871C30.4595 13.8691 30.4862 13.8731 30.511 13.8825C30.511 13.8953 30.5142 13.9075 30.5162 13.9196C30.4957 13.912 30.474 13.9083 30.4522 13.9088L30.4899 13.9792C30.5123 13.9784 30.5344 13.9835 30.5542 13.9939C30.5739 14.0044 30.5906 14.0198 30.6026 14.0387C30.608 14.0462 30.6114 14.0549 30.6124 14.0641C30.6134 14.0733 30.6119 14.0826 30.6081 14.0911C30.6044 14.0995 30.5984 14.1068 30.5909 14.1122C30.5834 14.1176 30.5746 14.121 30.5654 14.1219ZM30.463 13.976L30.4298 13.912C30.4086 13.9197 30.4054 13.9337 30.4138 13.9491C30.4191 13.9573 30.4264 13.964 30.435 13.9687C30.4436 13.9734 30.4533 13.9759 30.463 13.976ZM30.5667 14.0476C30.5609 14.0397 30.5533 14.0331 30.5445 14.0286C30.5358 14.024 30.526 14.0216 30.5162 14.0214L30.5488 14.0854C30.5674 14.0764 30.5712 14.063 30.5635 14.0476H30.5667Z" fill="black"/>
</g>
<path d="M35 26.9536H3V26.9696H35V26.9536Z" fill="#EBEBEB"/>
<path d="M31.7935 27.9833H29.6738V27.9993H31.7935V27.9833Z" fill="#EBEBEB"/>
<path d="M24.1978 28.1575H23.6416V28.1735H24.1978V28.1575Z" fill="#EBEBEB"/>
<path d="M29.61 27.3895H28.3818V27.4055H29.61V27.3895Z" fill="#EBEBEB"/>
<path d="M9.12158 27.4969H6.35742V27.5129H9.12158V27.4969Z" fill="#EBEBEB"/>
<path d="M10.0965 27.4969H9.69141V27.5129H10.0965V27.4969Z" fill="#EBEBEB"/>
<path d="M17.4096 27.767H11.4141V27.783H17.4096V27.767Z" fill="#EBEBEB"/>
<path d="M18.1679 24.0992H5.81011C5.7133 24.099 5.62052 24.0605 5.55212 23.9919C5.48373 23.9234 5.44531 23.8306 5.44531 23.7338V6.36224C5.44616 6.26599 5.48494 6.17395 5.55324 6.10613C5.62155 6.0383 5.71385 6.00016 5.81011 6H18.1679C18.2648 6 18.3577 6.0385 18.4263 6.10703C18.4948 6.17557 18.5333 6.26852 18.5333 6.36544V23.7338C18.5333 23.8307 18.4948 23.9236 18.4263 23.9922C18.3577 24.0607 18.2648 24.0992 18.1679 24.0992ZM5.81011 6.0128C5.71755 6.01297 5.62883 6.04986 5.56343 6.11537C5.49804 6.18089 5.46131 6.26967 5.46131 6.36224V23.7338C5.46131 23.8263 5.49804 23.9151 5.56343 23.9806C5.62883 24.0461 5.71755 24.083 5.81011 24.0832H18.1679C18.2605 24.083 18.3493 24.0462 18.4148 23.9807C18.4803 23.9152 18.5171 23.8264 18.5173 23.7338V6.36224C18.5171 6.26961 18.4803 6.18083 18.4148 6.11534C18.3493 6.04984 18.2605 6.01297 18.1679 6.0128H5.81011Z" fill="#EBEBEB"/>
<path d="M32.0119 24.0992H19.6535C19.5567 24.099 19.4638 24.0605 19.3953 23.992C19.3268 23.9235 19.2883 23.8306 19.2881 23.7338V6.36224C19.2891 6.26593 19.328 6.17389 19.3964 6.10609C19.4648 6.03828 19.5572 6.00016 19.6535 6H32.0119C32.1081 6.00033 32.2002 6.03854 32.2684 6.10635C32.3365 6.17416 32.3752 6.2661 32.3761 6.36224V23.7338C32.3761 23.8305 32.3378 23.9232 32.2695 23.9917C32.2012 24.0602 32.1086 24.0989 32.0119 24.0992ZM19.6535 6.0128C19.5609 6.01297 19.4721 6.04984 19.4066 6.11534C19.3411 6.18083 19.3043 6.26961 19.3041 6.36224V23.7338C19.3043 23.8264 19.3411 23.9152 19.4066 23.9807C19.4721 24.0462 19.5609 24.083 19.6535 24.0832H32.0119C32.1046 24.083 32.1933 24.0462 32.2588 23.9807C32.3243 23.9152 32.3612 23.8264 32.3614 23.7338V6.36224C32.3612 6.26961 32.3243 6.18083 32.2588 6.11534C32.1933 6.04984 32.1046 6.01297 32.0119 6.0128H19.6535Z" fill="#EBEBEB"/>
<path d="M17.4058 9.77663L18.0669 9.67999L17.4058 9.58335L17.569 9.32479L17.3104 9.48799L17.2138 8.82751L17.1172 9.48799L16.8586 9.32479L17.0224 9.58335L16.3613 9.67999L17.0224 9.77663L16.8586 10.0352L17.1172 9.87135L17.2138 10.5325L17.3104 9.87135L17.569 10.0352L17.4058 9.77663Z" fill="#F5F5F5"/>
<path d="M24.0513 11.5411L24.7118 11.4445L24.0513 11.3478L24.2145 11.0893L23.956 11.2525L23.8593 10.5914L23.7627 11.2525L23.5041 11.0893L23.668 11.3478L23.0068 11.4445L23.668 11.5411L23.5041 11.7997L23.7627 11.6358L23.8593 12.297L23.956 11.6358L24.2145 11.7997L24.0513 11.5411Z" fill="#F5F5F5"/>
<path d="M14.7567 14.4083L15.4179 14.3117L14.7567 14.2144L14.9206 13.9565L14.662 14.1197L14.5654 13.4586L14.4687 14.1197L14.2102 13.9565L14.374 14.2144L13.7129 14.3117L14.374 14.4083L14.2102 14.6669L14.4687 14.503L14.5654 15.1642L14.662 14.503L14.9206 14.6669L14.7567 14.4083Z" fill="#F5F5F5"/>
<path d="M9.1685 14.4083L9.82898 14.3117L9.1685 14.2144L9.3317 13.9565L9.07314 14.1197L8.9765 13.4586L8.87986 14.1197L8.6213 13.9565L8.78514 14.2144L8.12402 14.3117L8.78514 14.4083L8.6213 14.6669L8.87986 14.503L8.9765 15.1642L9.07314 14.503L9.3317 14.6669L9.1685 14.4083Z" fill="#F5F5F5"/>
<path d="M12.3345 18.3437L12.9956 18.247L12.3345 18.1498L12.4984 17.8918L12.2398 18.055L12.1432 17.3939L12.0459 18.055L11.788 17.8918L11.9512 18.1498L11.29 18.247L11.9512 18.3437L11.788 18.6022L12.0459 18.4384L12.1432 19.0995L12.2398 18.4384L12.4984 18.6022L12.3345 18.3437Z" fill="#F5F5F5"/>
<path d="M25.3202 16.2246L25.9813 16.128L25.3202 16.0314L25.484 15.7728L25.2255 15.9366L25.1288 15.2755L25.0322 15.9366L24.7736 15.7728L24.9368 16.0314L24.2764 16.128L24.9368 16.2246L24.7736 16.4832L25.0322 16.32L25.1288 16.9811L25.2255 16.32L25.484 16.4832L25.3202 16.2246Z" fill="#F5F5F5"/>
<path d="M29.9839 22.0826L30.6444 21.9853L29.9839 21.8887L30.1471 21.6307L29.8886 21.7939L29.7919 21.1328L29.6953 21.7939L29.4367 21.6307L29.6006 21.8887L28.9395 21.9853L29.6006 22.0826L29.4367 22.3405L29.6953 22.1773L29.7919 22.8384L29.8886 22.1773L30.1471 22.3405L29.9839 22.0826Z" fill="#F5F5F5"/>
<path d="M24.4683 21.879L25.1294 21.7824L24.4683 21.6851L24.6321 21.4272L24.3736 21.5904L24.2769 20.9293L24.1797 21.5904L23.9217 21.4272L24.0849 21.6851L23.4238 21.7824L24.0849 21.879L23.9217 22.1376L24.1797 21.9737L24.2769 22.6349L24.3736 21.9737L24.6321 22.1376L24.4683 21.879Z" fill="#F5F5F5"/>
<path d="M12.3345 23.2563L12.9956 23.1591L12.3345 23.0624L12.4984 22.8039L12.2398 22.9677L12.1432 22.3066L12.0459 22.9677L11.788 22.8039L11.9512 23.0624L11.29 23.1591L11.9512 23.2563L11.788 23.5143L12.0459 23.3511L12.1432 24.0122L12.2398 23.3511L12.4984 23.5143L12.3345 23.2563Z" fill="#F5F5F5"/>
<path d="M19.5181 20.2515L20.1792 20.1549L19.5181 20.0583L19.682 19.7997L19.4234 19.9629L19.3268 19.3024L19.2301 19.9629L18.9716 19.7997L19.1348 20.0583L18.4736 20.1549L19.1348 20.2515L18.9716 20.5101L19.2301 20.3463L19.3268 21.0074L19.4234 20.3463L19.682 20.5101L19.5181 20.2515Z" fill="#F5F5F5"/>
<path d="M15.7671 27.3703L16.4283 27.2736L15.7671 27.177L15.9303 26.9184L15.6718 27.0816L15.5751 26.4211L15.4785 27.0816L15.2199 26.9184L15.3838 27.177L14.7227 27.2736L15.3838 27.3703L15.2199 27.6288L15.4785 27.465L15.5751 28.1261L15.6718 27.465L15.9303 27.6288L15.7671 27.3703Z" fill="#F5F5F5"/>
<path d="M23.1216 26.9389L23.7828 26.8422L23.1216 26.7456L23.2848 26.487L23.0269 26.6509L22.9296 25.9897L22.833 26.6509L22.5744 26.487L22.7383 26.7456L22.0771 26.8422L22.7383 26.9389L22.5744 27.1974L22.833 27.0336L22.9296 27.6947L23.0269 27.0336L23.2848 27.1974L23.1216 26.9389Z" fill="#F5F5F5"/>
<path d="M23.2048 15.0054C22.8118 14.4237 22.6435 13.511 22.2832 13.1494C22.5622 12.9353 22.8582 12.7444 23.1683 12.5786C23.3891 13.2141 23.5203 14.2003 24.0899 14.4346C23.811 14.6487 23.5149 14.8396 23.2048 15.0054Z" fill="#EBEBEB"/>
<path d="M23.8708 14.5434C23.8158 14.5069 23.8299 14.4352 23.8971 14.3904C23.5028 14.0736 23.3614 13.3363 23.1828 12.7846C23.1683 12.7912 23.1525 12.7946 23.1365 12.7946C23.1206 12.7945 23.1048 12.7911 23.0903 12.7844C23.0758 12.7777 23.0629 12.768 23.0524 12.7559C23.042 12.7438 23.0343 12.7296 23.0299 12.7142C22.8427 12.8179 22.6611 12.9314 22.4859 13.0541C22.4995 13.0863 22.5005 13.1226 22.4886 13.1555C22.4768 13.1885 22.4529 13.2158 22.4219 13.232C22.6888 13.609 22.8513 14.3046 23.1432 14.8243C23.1759 14.8121 23.2118 14.811 23.2453 14.821C23.2788 14.8311 23.3081 14.8518 23.3288 14.88C23.5152 14.7773 23.6962 14.665 23.8708 14.5434ZM22.9108 13.8976C22.8526 13.7421 22.9064 13.5731 23.0254 13.5181C23.1444 13.463 23.2814 13.5546 23.3358 13.7139C23.3902 13.8733 23.348 14.0384 23.2296 14.0909C23.1112 14.1434 22.9684 14.0544 22.9128 13.8976H22.9108Z" fill="#E0E0E0"/>
<path d="M14.2667 13.0963C13.7042 13.3997 12.8511 13.4375 12.4952 13.7395C12.3167 13.4369 12.161 13.1213 12.0293 12.7955C12.6303 12.6675 13.5487 12.6765 13.8008 12.1523C13.9799 12.4547 14.1356 12.7703 14.2667 13.0963Z" fill="#EBEBEB"/>
<path d="M13.8866 12.3814C13.8495 12.4307 13.7835 12.407 13.7471 12.3347C13.4271 12.6758 12.7391 12.7123 12.2175 12.8102C12.2231 12.8242 12.2256 12.8393 12.2248 12.8544C12.224 12.8695 12.2198 12.8842 12.2127 12.8975C12.2056 12.9109 12.1956 12.9224 12.1835 12.9315C12.1713 12.9405 12.1574 12.9467 12.1426 12.9498C12.2187 13.1315 12.309 13.3229 12.4191 13.5258C12.4683 13.5008 12.5407 13.5398 12.5791 13.6128C12.9445 13.4048 13.5967 13.3421 14.0965 13.129C14.0867 13.097 14.0876 13.0628 14.0992 13.0314C14.1107 13.0001 14.1323 12.9734 14.1605 12.9555C14.085 12.7744 13.996 12.5837 13.8872 12.3795L13.8866 12.3814ZM13.2261 13.232C13.1587 13.2502 13.087 13.2435 13.0241 13.2132C12.9613 13.1829 12.9114 13.1309 12.8837 13.0669C12.8408 12.9389 12.9349 12.823 13.0853 12.791C13.2357 12.759 13.3855 12.8237 13.4258 12.9466C13.4661 13.0694 13.3739 13.1949 13.2261 13.232Z" fill="#E0E0E0"/>
<path d="M19.8502 12.2451C19.3721 11.8195 19.0444 11.0291 18.6387 10.8006C18.8618 10.5291 19.105 10.2747 19.3664 10.0397C19.6921 10.5606 19.9987 11.4266 20.5772 11.4835C20.3543 11.7552 20.1113 12.0098 19.8502 12.2451Z" fill="#EBEBEB"/>
<path d="M20.3916 11.6423C20.3333 11.6243 20.3327 11.5546 20.3884 11.4957C19.9602 11.312 19.6882 10.6778 19.4175 10.224C19.4063 10.2342 19.3929 10.2418 19.3784 10.2463C19.3639 10.2507 19.3486 10.2519 19.3336 10.2497C19.3186 10.2474 19.3043 10.2419 19.2917 10.2335C19.2791 10.2251 19.2685 10.214 19.2607 10.201C19.116 10.3354 18.9669 10.4851 18.8127 10.6592C18.853 10.697 18.8408 10.7783 18.7852 10.8391C19.1052 11.1117 19.388 11.7031 19.7599 12.0992C19.7865 12.0791 19.819 12.0683 19.8524 12.0683C19.8857 12.0683 19.9182 12.0791 19.9448 12.0992C20.0888 11.9661 20.2373 11.817 20.3928 11.6448L20.3916 11.6423ZM19.3676 11.312C19.3273 11.2549 19.309 11.1852 19.3161 11.1157C19.3232 11.0462 19.3551 10.9816 19.406 10.9338C19.5084 10.8512 19.6517 10.8986 19.7343 11.0291C19.8168 11.1597 19.806 11.3223 19.7042 11.4023C19.6024 11.4823 19.4527 11.44 19.3695 11.312H19.3676Z" fill="#E0E0E0"/>
<path d="M21.3503 18.9197C21.132 18.3187 21.2191 17.4695 20.9727 17.0733C21.2981 16.9414 21.6329 16.834 21.9743 16.752C22.0133 17.3651 21.8699 18.2727 22.3519 18.5991C22.0265 18.7309 21.6917 18.8381 21.3503 18.9197Z" fill="#EBEBEB"/>
<path d="M22.113 18.6477C22.0702 18.6035 22.1034 18.5427 22.177 18.5197C21.8865 18.1536 21.9511 17.4669 21.9306 16.9369C21.9159 16.9407 21.9005 16.941 21.8855 16.9381C21.8706 16.9351 21.8565 16.9289 21.8443 16.9198C21.832 16.9108 21.8219 16.8991 21.8147 16.8857C21.8075 16.8723 21.8034 16.8574 21.8026 16.8422C21.6106 16.8915 21.409 16.9523 21.1902 17.031C21.2074 17.0835 21.1582 17.1494 21.0801 17.1763C21.2324 17.5686 21.1991 18.2233 21.3361 18.7481C21.3691 18.7435 21.4027 18.7496 21.4319 18.7655C21.4612 18.7814 21.4846 18.8063 21.4986 18.8365C21.6906 18.7878 21.891 18.7277 22.1092 18.6496L22.113 18.6477ZM21.3719 17.8707C21.3634 17.8014 21.3803 17.7314 21.4195 17.6736C21.4587 17.6158 21.5175 17.5742 21.585 17.5565C21.713 17.5321 21.818 17.6422 21.8282 17.7958C21.8385 17.9494 21.7521 18.0877 21.6247 18.1101C21.4974 18.1325 21.3834 18.0224 21.3719 17.8707Z" fill="#E0E0E0"/>
<path d="M29.8521 16.4711C29.3741 16.0455 29.0464 15.2551 28.6406 15.0266C28.8639 14.7552 29.1071 14.5008 29.3683 14.2656C29.6947 14.7866 30.0013 15.6525 30.5798 15.7095C30.3567 15.9812 30.1135 16.2358 29.8521 16.4711Z" fill="#EBEBEB"/>
<path d="M30.3919 15.8688C30.333 15.8503 30.333 15.7805 30.3887 15.7216C29.9593 15.536 29.6879 14.9037 29.4185 14.448C29.4072 14.4582 29.3939 14.4658 29.3794 14.4703C29.3649 14.4747 29.3496 14.4759 29.3346 14.4737C29.3196 14.4714 29.3053 14.4659 29.2927 14.4575C29.28 14.4491 29.2694 14.438 29.2617 14.425C29.117 14.5594 28.9679 14.7091 28.8137 14.8832C28.854 14.921 28.8418 15.0023 28.7861 15.0631C29.1061 15.3357 29.389 15.9271 29.7609 16.3232C29.7875 16.3032 29.82 16.2924 29.8533 16.2924C29.8867 16.2924 29.9191 16.3032 29.9458 16.3232C30.0898 16.1901 30.2383 16.041 30.3938 15.8688H30.3919ZM29.3679 15.536C29.3276 15.4791 29.3092 15.4095 29.3163 15.34C29.3234 15.2706 29.3553 15.2061 29.4063 15.1584C29.5081 15.0752 29.6521 15.1226 29.734 15.2531C29.8159 15.3837 29.8063 15.5463 29.7045 15.6263C29.6028 15.7063 29.4537 15.664 29.3679 15.536Z" fill="#E0E0E0"/>
<path d="M29.4725 15.4957L29.445 15.5168L29.429 15.4918L29.4559 15.4707C29.4391 15.443 29.4294 15.4115 29.4277 15.3792L29.461 15.3734C29.4619 15.4003 29.4692 15.4266 29.4821 15.4502L29.5301 15.4131C29.5154 15.3734 29.5007 15.3293 29.5346 15.303C29.5589 15.2838 29.5954 15.2909 29.6293 15.3369L29.6569 15.3158L29.6729 15.3414L29.646 15.3619C29.6592 15.385 29.6679 15.4104 29.6716 15.4368L29.6389 15.4425C29.6357 15.4216 29.6293 15.4013 29.6197 15.3824L29.5711 15.4201C29.5865 15.4598 29.6025 15.504 29.5711 15.5296C29.5397 15.5552 29.5071 15.5417 29.4725 15.4957ZM29.5596 15.3901L29.6031 15.3574C29.5865 15.3369 29.5717 15.3344 29.5609 15.3427C29.55 15.351 29.5525 15.3689 29.5596 15.3901ZM29.5404 15.4912C29.5525 15.4822 29.5493 15.4643 29.5404 15.4425L29.4975 15.4758C29.5161 15.4963 29.5301 15.4995 29.5404 15.4912Z" fill="#E0E0E0"/>
<path d="M18.5149 15.209C18.0855 15.7626 17.6932 16.3552 17.5197 16.9882C17.2304 16.8685 16.9335 16.7482 16.6436 16.608C16.8708 15.9494 17.2631 15.3715 17.6388 14.8288C17.928 14.9485 18.225 15.0688 18.5149 15.209Z" fill="#EBEBEB"/>
<path d="M17.7731 14.9389C17.7515 14.9678 17.7212 14.989 17.6866 14.9993C17.652 15.0096 17.615 15.0084 17.5811 14.9958C17.2713 15.4483 16.9616 15.9258 16.7529 16.455C16.7844 16.4719 16.8089 16.4995 16.8219 16.5328C16.8349 16.5661 16.8357 16.603 16.824 16.6368C17.0051 16.72 17.1881 16.7974 17.3692 16.873C17.3738 16.8572 17.3816 16.8426 17.3923 16.8301C17.403 16.8177 17.4162 16.8077 17.431 16.8007C17.4459 16.7938 17.4621 16.7902 17.4785 16.79C17.4948 16.7899 17.5111 16.7933 17.526 16.8C17.702 16.2848 18.0112 15.7984 18.3542 15.3382C18.3393 15.3316 18.3261 15.3216 18.3158 15.309C18.3054 15.2963 18.2982 15.2815 18.2946 15.2655C18.2911 15.2496 18.2913 15.233 18.2953 15.2172C18.2993 15.2014 18.307 15.1867 18.3177 15.1744C18.136 15.0912 17.9536 15.0138 17.7725 14.9382L17.7731 14.9389ZM17.72 15.984C17.6859 16.047 17.6298 16.0952 17.5624 16.1196C17.495 16.1439 17.421 16.1425 17.3545 16.1158C17.3236 16.101 17.2961 16.0798 17.2739 16.0535C17.2517 16.0273 17.2353 15.9967 17.2257 15.9638C17.2162 15.9308 17.2137 15.8961 17.2185 15.8621C17.2233 15.8281 17.2352 15.7955 17.2534 15.7664C17.29 15.7034 17.3481 15.6558 17.417 15.6323C17.4859 15.6088 17.561 15.6109 17.6285 15.6384C17.6593 15.6528 17.6867 15.6739 17.7085 15.7C17.7304 15.7262 17.7463 15.7568 17.755 15.7898C17.7637 15.8228 17.7651 15.8572 17.7591 15.8908C17.753 15.9243 17.7397 15.9562 17.72 15.984Z" fill="#E0E0E0"/>
<path d="M17.6222 15.9098L17.6568 15.9258L17.6421 15.9514L17.6075 15.9354C17.5908 15.9626 17.5669 15.9848 17.5384 15.9994L17.5147 15.9706C17.5387 15.9587 17.5592 15.9408 17.5742 15.9187L17.5102 15.8899C17.4821 15.9206 17.4494 15.9539 17.4066 15.9334C17.3752 15.9187 17.3605 15.8822 17.3842 15.831L17.3496 15.815L17.3643 15.7894L17.3989 15.8054C17.4131 15.7831 17.4324 15.7645 17.4552 15.751L17.4789 15.7779C17.4607 15.7891 17.4449 15.8037 17.4322 15.8208L17.4962 15.8496C17.525 15.8189 17.5602 15.7856 17.6018 15.8061C17.6331 15.8221 17.6466 15.856 17.6222 15.9098ZM17.475 15.8739L17.42 15.8483C17.4104 15.872 17.4162 15.8867 17.4296 15.8931C17.443 15.8995 17.459 15.8899 17.475 15.8739ZM17.5806 15.849C17.5653 15.8419 17.5499 15.8522 17.5339 15.8688L17.589 15.8938C17.5986 15.8694 17.5922 15.856 17.5806 15.849Z" fill="#E0E0E0"/>
<path d="M29.428 18.4909C28.9979 19.0445 28.6062 19.6371 28.4328 20.2701C28.1435 20.1504 27.8466 20.0301 27.5566 19.8899C27.7838 19.2314 28.1762 18.6534 28.5512 18.1107C28.8411 18.2304 29.1381 18.352 29.428 18.4909Z" fill="#EBEBEB"/>
<path d="M28.6862 18.2202C28.6648 18.2493 28.6345 18.2707 28.5998 18.2811C28.5652 18.2915 28.5281 18.2903 28.4942 18.2778C28.1844 18.7296 27.8747 19.2077 27.666 19.737C27.6977 19.7535 27.7224 19.7809 27.7355 19.8142C27.7487 19.8474 27.7494 19.8843 27.7377 19.9181C27.9188 20.0019 28.1019 20.0787 28.283 20.1549C28.2874 20.1391 28.2952 20.1244 28.3059 20.1119C28.3165 20.0993 28.3297 20.0893 28.3446 20.0823C28.3595 20.0754 28.3757 20.0718 28.3921 20.0717C28.4086 20.0716 28.4248 20.0751 28.4398 20.0819C28.6158 19.5699 28.9249 19.0803 29.2679 18.6202C29.253 18.6135 29.2398 18.6035 29.2295 18.5909C29.2191 18.5783 29.2119 18.5634 29.2083 18.5474C29.2048 18.5315 29.205 18.515 29.2091 18.4991C29.2131 18.4833 29.2207 18.4686 29.2315 18.4563C29.0503 18.3738 28.8679 18.2963 28.6868 18.2208L28.6862 18.2202ZM28.6299 19.2672C28.5957 19.3302 28.5397 19.3784 28.4723 19.4028C28.4049 19.4271 28.3309 19.4257 28.2644 19.399C28.2334 19.3843 28.2058 19.3631 28.1836 19.3369C28.1613 19.3107 28.1449 19.2801 28.1353 19.247C28.1258 19.214 28.1233 19.1794 28.1281 19.1453C28.133 19.1113 28.1449 19.0787 28.1633 19.0496C28.2007 18.9881 28.2589 18.9421 28.3274 18.9198C28.3958 18.8975 28.4699 18.9004 28.5364 18.928C28.5665 18.9424 28.5932 18.9631 28.6146 18.9887C28.636 19.0142 28.6516 19.0441 28.6605 19.0763C28.6694 19.1084 28.6712 19.1421 28.6659 19.1751C28.6606 19.208 28.6483 19.2394 28.6299 19.2672Z" fill="#E0E0E0"/>
<path d="M28.5363 19.1917L28.5709 19.2077C28.5658 19.216 28.5606 19.2243 28.5562 19.2333L28.5216 19.2173C28.5043 19.2444 28.4803 19.2664 28.4518 19.2813L28.4288 19.2525C28.4526 19.2404 28.4731 19.2226 28.4883 19.2007L28.4243 19.1719C28.3962 19.2026 28.3635 19.2359 28.3206 19.2154C28.2893 19.2007 28.2746 19.1642 28.2982 19.113L28.2637 19.097C28.2682 19.088 28.2733 19.0797 28.2784 19.0714L28.313 19.0874C28.3272 19.0649 28.3465 19.0461 28.3693 19.0323L28.3923 19.0599C28.3745 19.0713 28.3589 19.0858 28.3462 19.1027L28.4102 19.1315C28.439 19.1008 28.4742 19.0675 28.5158 19.088C28.5459 19.104 28.5587 19.1399 28.5363 19.1917ZM28.3891 19.1559L28.3341 19.1303C28.3245 19.1539 28.3302 19.1687 28.3437 19.1751C28.3571 19.1815 28.3718 19.1719 28.3878 19.1559H28.3891ZM28.4947 19.1309C28.4794 19.1239 28.464 19.1341 28.448 19.1501L28.5024 19.1757C28.5114 19.1514 28.5069 19.1367 28.4934 19.1309H28.4947Z" fill="#E0E0E0"/>
<path d="M26.6681 11.0342C26.6341 10.336 26.0095 9.85535 25.9756 9.15711L26.8716 8.82751C26.9061 9.52575 27.5301 10.0064 27.5647 10.704L26.6681 11.0342Z" fill="#EBEBEB"/>
<path d="M27.3896 10.7136C27.3858 10.6772 27.3938 10.6404 27.4123 10.6088C27.4309 10.5772 27.459 10.5522 27.4926 10.5376C27.3844 9.99427 26.9518 9.57123 26.8449 9.02787C26.8301 9.03441 26.8138 9.03725 26.7976 9.03615C26.7814 9.03505 26.7657 9.03003 26.7519 9.02154C26.7381 9.01305 26.7265 9.00133 26.7182 8.98738C26.7098 8.97344 26.705 8.95768 26.7041 8.94147L26.1473 9.14691C26.1511 9.18331 26.1432 9.21996 26.1248 9.25159C26.1064 9.28322 26.0784 9.30819 26.0449 9.32291C26.1518 9.86627 26.5844 10.2899 26.6926 10.8333C26.7074 10.8268 26.7235 10.8239 26.7396 10.825C26.7558 10.826 26.7714 10.831 26.7852 10.8394C26.799 10.8478 26.8105 10.8595 26.8188 10.8734C26.8271 10.8873 26.8319 10.9029 26.8328 10.9191L27.3889 10.7136H27.3896ZM26.5288 10.0096C26.5114 9.98096 26.5007 9.94875 26.4975 9.91538C26.4943 9.88202 26.4987 9.84836 26.5103 9.81692C26.522 9.78549 26.5405 9.75708 26.5647 9.73382C26.5888 9.71056 26.6179 9.69305 26.6497 9.68259C26.7194 9.65977 26.7948 9.66156 26.8633 9.68765C26.9318 9.71374 26.9892 9.76256 27.026 9.82595C27.0436 9.85454 27.0544 9.88673 27.0577 9.92009C27.061 9.95346 27.0566 9.98714 27.0451 10.0186C27.0335 10.0501 27.0149 10.0785 26.9908 10.1018C26.9667 10.1251 26.9376 10.1426 26.9057 10.153C26.8357 10.1757 26.76 10.1737 26.6913 10.1471C26.6226 10.1205 26.5652 10.071 26.5288 10.0071V10.0096Z" fill="#E0E0E0"/>
<path d="M26.6596 9.9891L26.6225 10.0025L26.6084 9.97758L26.6449 9.9635C26.6303 9.93743 26.6249 9.90724 26.6295 9.87774H26.6705C26.6663 9.90205 26.6696 9.92706 26.6801 9.94942L26.7441 9.9251C26.7338 9.88734 26.7255 9.84574 26.771 9.8291C26.7914 9.82327 26.8133 9.82467 26.8329 9.83306C26.8525 9.84146 26.8686 9.85633 26.8785 9.87518L26.9156 9.86174L26.9303 9.88734L26.8932 9.90078C26.9045 9.92248 26.9098 9.94677 26.9086 9.97118H26.8721C26.8731 9.95166 26.8696 9.93218 26.8618 9.91422L26.7978 9.93918C26.8081 9.97694 26.8177 10.0185 26.7716 10.0352C26.7505 10.0423 26.7276 10.0416 26.707 10.0331C26.6864 10.0246 26.6696 10.009 26.6596 9.9891ZM26.7876 9.91166L26.8458 9.8899C26.8298 9.86942 26.8132 9.8643 26.7985 9.86942C26.7838 9.87454 26.7818 9.89182 26.7863 9.91166H26.7876ZM26.7434 9.99742C26.7594 9.99166 26.7594 9.97502 26.755 9.95454L26.6967 9.97566C26.7114 9.99742 26.7281 10.0025 26.7441 9.99742H26.7434Z" fill="#E0E0E0"/>
<path d="M8.53199 19.3043C8.49743 18.608 7.87343 18.1254 7.83887 17.4272L8.73487 17.0976C8.76943 17.7958 9.39343 18.2758 9.42799 18.9741L8.53199 19.3043Z" fill="#EBEBEB"/>
<path d="M9.25251 18.9837C9.24874 18.9473 9.25663 18.9107 9.27503 18.879C9.29343 18.8474 9.3214 18.8224 9.35491 18.8077C9.24739 18.2643 8.81475 17.8413 8.70723 17.2973C8.69242 17.304 8.67621 17.307 8.66 17.306C8.64379 17.305 8.62807 17.3 8.61419 17.2916C8.60032 17.2831 8.58872 17.2714 8.5804 17.2575C8.57207 17.2435 8.56728 17.2278 8.56643 17.2115L8.00963 17.417C8.01339 17.4534 8.00551 17.49 7.9871 17.5217C7.9687 17.5533 7.94073 17.5783 7.90723 17.593C8.01475 18.1363 8.44739 18.56 8.55491 19.1034C8.56971 19.0967 8.58592 19.0937 8.60213 19.0947C8.61834 19.0957 8.63407 19.1007 8.64794 19.1091C8.66181 19.1176 8.67341 19.1293 8.68174 19.1432C8.69006 19.1572 8.69486 19.1729 8.69571 19.1891L9.25251 18.9837ZM8.39107 18.2797C8.37369 18.251 8.36301 18.2188 8.35982 18.1855C8.35663 18.1521 8.36101 18.1184 8.37264 18.087C8.38427 18.0556 8.40284 18.0272 8.42698 18.0039C8.45111 17.9806 8.48018 17.9631 8.51203 17.9527C8.5816 17.93 8.65684 17.9319 8.7252 17.958C8.79356 17.9841 8.85091 18.0328 8.88771 18.096C8.90522 18.1246 8.91602 18.1568 8.91932 18.1902C8.92261 18.2235 8.91831 18.2572 8.90674 18.2887C8.89516 18.3201 8.87661 18.3486 8.85248 18.3719C8.82834 18.3951 8.79925 18.4126 8.76739 18.4231C8.69744 18.4457 8.62185 18.4435 8.55332 18.4169C8.48479 18.3903 8.42749 18.341 8.39107 18.2771V18.2797Z" fill="#E0E0E0"/>
<path d="M8.5219 18.2592L8.48478 18.2726L8.4707 18.247L8.50718 18.2336C8.49313 18.2073 8.48796 18.1772 8.49246 18.1478H8.53342C8.52889 18.1721 8.53226 18.1972 8.54302 18.2195L8.60702 18.1952C8.59614 18.1574 8.58782 18.1158 8.6339 18.0992C8.65439 18.0932 8.6763 18.0946 8.69591 18.103C8.71552 18.1114 8.7316 18.1263 8.74142 18.1453L8.77854 18.1318L8.79262 18.1574L8.75614 18.1709C8.76768 18.1924 8.77279 18.2169 8.77086 18.2413H8.73054C8.73152 18.2217 8.72802 18.2023 8.7203 18.1843L8.6563 18.2093C8.66718 18.2464 8.67614 18.2886 8.6307 18.3053C8.61004 18.3114 8.58788 18.3102 8.56802 18.3018C8.54817 18.2934 8.53186 18.2783 8.5219 18.2592ZM8.6499 18.1817L8.70878 18.16C8.70415 18.1518 8.69694 18.1453 8.68826 18.1416C8.67958 18.1379 8.66992 18.1372 8.66078 18.1395C8.64414 18.1453 8.64414 18.16 8.64862 18.1817H8.6499ZM8.60574 18.2675C8.62238 18.2617 8.62238 18.2451 8.61726 18.224L8.55902 18.2457C8.57438 18.2675 8.59038 18.2726 8.60446 18.2675H8.60574Z" fill="#E0E0E0"/>
<path d="M10.8178 11.0202C10.5739 11.6935 9.72976 11.68 9.452 12.2509C9.19216 12.0224 8.94 11.8029 8.68848 11.6071C8.93168 10.9338 9.77648 10.9472 10.0542 10.3763C10.3134 10.608 10.5694 10.8224 10.8178 11.0202Z" fill="#EBEBEB"/>
<path d="M10.1779 10.5472C10.1452 10.6073 10.0646 10.6067 10.0057 10.5542C9.70234 10.9497 9.08666 11.015 8.80762 11.4771C8.83485 11.5012 8.8536 11.5335 8.86109 11.5691C8.86858 11.6047 8.86442 11.6418 8.84922 11.6749C9.0058 11.8029 9.16495 11.9381 9.32666 12.0806C9.3593 12.0211 9.43994 12.0211 9.49818 12.0736C9.80154 11.6781 10.4172 11.6128 10.6969 11.1507C10.6696 11.1267 10.6508 11.0946 10.6433 11.0591C10.6359 11.0235 10.64 10.9865 10.6553 10.9536C10.4979 10.8256 10.3385 10.6903 10.1772 10.5478L10.1779 10.5472ZM9.95066 11.5072C9.82778 11.5712 9.63066 11.5353 9.51226 11.4259C9.39386 11.3165 9.38426 11.1699 9.51226 11.1059C9.64026 11.0419 9.83226 11.0777 9.9513 11.1878C10.0703 11.2979 10.0729 11.4438 9.95066 11.5085V11.5072Z" fill="#E0E0E0"/>
<path d="M9.87104 11.4016C9.88256 11.4118 9.89344 11.4214 9.90368 11.4317L9.88 11.4445L9.84736 11.415C9.8174 11.4282 9.78457 11.4335 9.752 11.4304L9.73536 11.3965C9.76272 11.3996 9.79044 11.3959 9.816 11.3856L9.75776 11.3325C9.73675 11.3411 9.71382 11.344 9.69133 11.3408C9.66883 11.3377 9.64758 11.3286 9.62976 11.3145C9.62192 11.3095 9.61559 11.3024 9.61145 11.294C9.6073 11.2856 9.6055 11.2763 9.60622 11.267C9.60694 11.2577 9.61016 11.2488 9.61554 11.2411C9.62093 11.2335 9.62827 11.2275 9.6368 11.2237L9.60352 11.1936L9.6272 11.1808L9.65984 11.2102C9.6842 11.1995 9.71068 11.1945 9.73728 11.1955L9.75456 11.2288C9.73279 11.2284 9.71112 11.2319 9.69056 11.239L9.75008 11.2934C9.77093 11.2842 9.79392 11.281 9.81651 11.284C9.83911 11.2871 9.86041 11.2963 9.87808 11.3107C9.88574 11.3159 9.89188 11.323 9.8959 11.3314C9.89991 11.3397 9.90165 11.349 9.90094 11.3582C9.90022 11.3674 9.89708 11.3763 9.89183 11.3839C9.88658 11.3915 9.8794 11.3976 9.87104 11.4016ZM9.72 11.3005L9.66752 11.2525C9.66407 11.2546 9.66123 11.2576 9.65926 11.2611C9.65729 11.2646 9.65626 11.2686 9.65626 11.2726C9.65626 11.2767 9.65729 11.2806 9.65926 11.2842C9.66123 11.2877 9.66407 11.2907 9.66752 11.2928C9.67521 11.2977 9.68387 11.301 9.69292 11.3023C9.70198 11.3036 9.71121 11.303 9.72 11.3005ZM9.8416 11.3331C9.83343 11.3276 9.8241 11.324 9.81433 11.3227C9.80457 11.3213 9.79462 11.3223 9.78528 11.3254L9.83712 11.3728C9.8576 11.3587 9.85696 11.3446 9.84416 11.3331H9.8416Z" fill="#E0E0E0"/>
<path d="M11.474 20.5421C11.2308 21.2154 10.386 21.2019 10.1082 21.7728C9.85225 21.5443 9.59625 21.3248 9.34473 21.129C9.58857 20.4557 10.4327 20.4691 10.7105 19.8983C10.9703 20.1267 11.2257 20.3443 11.474 20.5421Z" fill="#EBEBEB"/>
<path d="M10.8341 20.0691C10.8015 20.1286 10.7215 20.1286 10.6626 20.0761C10.3592 20.4717 9.74355 20.5369 9.46387 20.999C9.49129 21.023 9.51023 21.0552 9.51784 21.0909C9.52545 21.1265 9.52134 21.1637 9.50611 21.1968C9.66291 21.3248 9.82227 21.4617 9.98355 21.6025C10.0155 21.543 10.0962 21.543 10.1551 21.5955C10.4578 21.2 11.0741 21.1341 11.3531 20.6726C11.3259 20.6486 11.3071 20.6165 11.2996 20.581C11.2921 20.5454 11.2963 20.5084 11.3115 20.4755C11.155 20.3475 10.9958 20.2122 10.8341 20.0697V20.0691ZM10.6069 21.0291C10.4847 21.0931 10.2869 21.0573 10.1691 20.9478C10.0514 20.8384 10.0411 20.6918 10.1691 20.6278C10.2971 20.5638 10.4891 20.5997 10.6075 20.7097C10.7259 20.8198 10.7291 20.9657 10.6069 21.0304V21.0291Z" fill="#E0E0E0"/>
<path d="M10.5273 20.9235L10.5599 20.9536C10.5516 20.9574 10.5439 20.9619 10.5362 20.9664L10.5036 20.9363C10.4735 20.9498 10.4404 20.9553 10.4076 20.9523C10.4025 20.9408 10.3967 20.9299 10.3916 20.9184C10.419 20.9215 10.4467 20.9177 10.4722 20.9075L10.4134 20.8544C10.3923 20.8629 10.3693 20.8657 10.3468 20.8625C10.3244 20.8592 10.3031 20.85 10.2854 20.8358C10.2777 20.8307 10.2715 20.8236 10.2675 20.8153C10.2634 20.807 10.2617 20.7978 10.2624 20.7886C10.2631 20.7794 10.2663 20.7706 10.2716 20.763C10.2768 20.7555 10.284 20.7494 10.2924 20.7456L10.2598 20.7155L10.2834 20.7027L10.3161 20.7321C10.3403 20.7215 10.3665 20.7163 10.3929 20.7168C10.3986 20.7283 10.405 20.7392 10.4108 20.7501C10.389 20.7498 10.3673 20.7535 10.3468 20.7609L10.4057 20.8147C10.4267 20.8061 10.4496 20.8032 10.4721 20.8063C10.4946 20.8095 10.5159 20.8185 10.5337 20.8326C10.5414 20.8378 10.5476 20.8448 10.5516 20.8532C10.5557 20.8615 10.5575 20.8707 10.5568 20.8799C10.5562 20.8891 10.5531 20.898 10.5479 20.9057C10.5427 20.9133 10.5356 20.9195 10.5273 20.9235ZM10.3782 20.8217L10.3263 20.7744C10.3084 20.7885 10.3103 20.8025 10.3263 20.8147C10.334 20.8195 10.3426 20.8225 10.3515 20.8238C10.3604 20.825 10.3695 20.8243 10.3782 20.8217ZM10.4998 20.855C10.4917 20.8492 10.4824 20.8454 10.4726 20.8441C10.4627 20.8428 10.4527 20.8439 10.4434 20.8473L10.4953 20.8947C10.5132 20.8806 10.5126 20.8665 10.4998 20.855Z" fill="#E0E0E0"/>
<path d="M23.0233 13.8848L22.9913 13.8982C22.9881 13.888 22.9843 13.8778 22.9805 13.8669L23.0118 13.8534C23.0006 13.8203 22.9973 13.785 23.0022 13.7504L23.0368 13.7549C23.0325 13.7833 23.0345 13.8124 23.0425 13.84L23.0982 13.8157C23.0912 13.7702 23.0854 13.7203 23.1251 13.7037C23.1539 13.6909 23.1891 13.7088 23.2134 13.7677L23.2448 13.7536L23.2563 13.785L23.2249 13.7984C23.2338 13.8259 23.2373 13.8548 23.2352 13.8835L23.2013 13.8797C23.2026 13.8568 23.2002 13.8339 23.1942 13.8118L23.1379 13.8362C23.1449 13.8816 23.152 13.9322 23.1129 13.9488C23.0841 13.9603 23.0489 13.9424 23.0233 13.8848ZM23.1328 13.8016L23.1827 13.7798C23.1699 13.7542 23.1558 13.7466 23.1437 13.7523C23.1315 13.7581 23.1296 13.7773 23.1328 13.8016ZM23.0925 13.9002C23.1065 13.8944 23.1072 13.8746 23.1033 13.8496L23.0541 13.8714C23.0669 13.8976 23.0809 13.9053 23.0925 13.9002Z" fill="#E0E0E0"/>
<path d="M13.2217 13.1187C13.2256 13.1289 13.2288 13.1405 13.2326 13.1513L13.2032 13.1577C13.1993 13.1468 13.1961 13.136 13.1929 13.1251C13.161 13.1316 13.128 13.1298 13.0969 13.12C13.0969 13.1091 13.1014 13.0982 13.1033 13.0867C13.1288 13.0954 13.156 13.0978 13.1827 13.0937C13.1763 13.0745 13.1699 13.0547 13.1641 13.0355C13.1212 13.0355 13.0752 13.0355 13.0617 12.9939C13.0528 12.9638 13.0713 12.9299 13.1257 12.9165C13.1225 12.9056 13.1187 12.8947 13.1155 12.8832L13.1449 12.8768C13.1449 12.8877 13.152 12.8985 13.1552 12.9094C13.1811 12.9043 13.2079 12.9043 13.2339 12.9094C13.2339 12.9203 13.2339 12.9312 13.2288 12.9421C13.2076 12.9385 13.1859 12.9385 13.1648 12.9421C13.1705 12.9619 13.1769 12.9811 13.1833 13.0009C13.2256 13.0009 13.2729 13.0009 13.2851 13.0406C13.296 13.0694 13.2768 13.104 13.2217 13.1187ZM13.1526 13.0003C13.1475 12.983 13.1417 12.9651 13.1366 12.9485C13.1116 12.9568 13.104 12.9696 13.1084 12.9824C13.1129 12.9952 13.1302 12.9997 13.1526 13.0003ZM13.2416 13.0528C13.2371 13.0381 13.2185 13.0355 13.1955 13.0349C13.2012 13.0521 13.2064 13.0694 13.2121 13.0867C13.2403 13.0777 13.2454 13.0649 13.2403 13.0528H13.2416Z" fill="#E0E0E0"/>
<path d="M19.4716 11.2698L19.444 11.2909L19.428 11.2659L19.4549 11.2448C19.4381 11.2171 19.4285 11.1857 19.4268 11.1533L19.46 11.1475C19.461 11.1744 19.4682 11.2007 19.4812 11.2243L19.5298 11.1872C19.5144 11.1475 19.4997 11.1034 19.5336 11.0771C19.5676 11.0509 19.5976 11.065 19.6284 11.1111L19.6559 11.0899L19.6719 11.1155L19.645 11.136C19.6582 11.1591 19.6669 11.1845 19.6706 11.2109L19.638 11.2167C19.6348 11.1957 19.6283 11.1754 19.6188 11.1565L19.5701 11.1943C19.5855 11.2339 19.6015 11.2781 19.5701 11.3037C19.5388 11.3293 19.5061 11.3159 19.4716 11.2698ZM19.5586 11.1642L19.6021 11.1315C19.5855 11.1111 19.5708 11.1085 19.5599 11.1162C19.549 11.1239 19.5516 11.1431 19.5586 11.1642ZM19.54 11.2653C19.5516 11.2563 19.5484 11.2384 19.54 11.2167L19.4972 11.2493C19.5151 11.2704 19.5292 11.2736 19.54 11.2653Z" fill="#E0E0E0"/>
<path d="M21.4812 17.8822L21.4473 17.888C21.4473 17.8778 21.4473 17.8675 21.4473 17.8579L21.4812 17.8522C21.4798 17.8197 21.4864 17.7874 21.5004 17.7581L21.5324 17.7696C21.5202 17.7934 21.5138 17.8197 21.5138 17.8464L21.5746 17.8368C21.5797 17.7946 21.5881 17.7491 21.6303 17.7421C21.661 17.737 21.6892 17.76 21.6975 17.817L21.7314 17.8118V17.8419L21.6981 17.847C21.6991 17.8737 21.6947 17.9002 21.6853 17.9251L21.6533 17.9149C21.6611 17.8944 21.6652 17.8728 21.6655 17.8509L21.6047 17.8611C21.5989 17.9034 21.5925 17.9494 21.5503 17.9565C21.5189 17.9622 21.4901 17.9392 21.4812 17.8822ZM21.6092 17.831L21.6629 17.8221C21.6578 17.7965 21.6463 17.7875 21.6329 17.7894C21.6194 17.7914 21.6124 17.8086 21.6085 17.831H21.6092ZM21.5452 17.911C21.5599 17.911 21.5657 17.8912 21.5695 17.8682L21.5157 17.8765C21.5196 17.904 21.5305 17.913 21.5433 17.911H21.5452Z" fill="#E0E0E0"/>
</svg>
