<svg width="39" height="39" viewBox="0 0 39 39" fill="none" xmlns="http://www.w3.org/2000/svg">
<rect width="39" height="39" rx="19.5" fill="#F1F5F9"/>
<path d="M5.58694 18.222L10.336 28.594C10.4448 28.8297 10.6425 29.0128 10.8859 29.1033C11.1293 29.1937 11.3986 29.1842 11.635 29.0768L12.3889 28.7323L29.8469 20.7394C30.0827 20.6309 30.266 20.4334 30.3566 20.1902C30.4473 19.9469 30.4379 19.6777 30.3306 19.4413L26.134 10.2804L25.5843 9.07024C25.4751 8.83485 25.2773 8.65209 25.0341 8.56169C24.7908 8.47129 24.5218 8.48055 24.2853 8.58746L6.07247 16.9239C5.83665 17.0325 5.6533 17.2298 5.56235 17.473C5.47141 17.7161 5.48024 17.9853 5.58694 18.222Z" fill="#235697"/>
<path d="M27.5086 13.2772L7.51465 22.4312L9.85462 27.5422L29.8486 18.3882L27.5086 13.2772Z" fill="#235697"/>
<path opacity="0.3" d="M27.5086 13.2772L7.51465 22.4312L9.85462 27.5422L29.8486 18.3882L27.5086 13.2772Z" fill="white"/>
<path d="M26.6808 15.6417L14.0459 21.4264L14.8833 23.2555L27.5183 17.4708L26.6808 15.6417Z" fill="#235697"/>
<path opacity="0.8" d="M26.6808 15.6417L14.0459 21.4264L14.8833 23.2555L27.5183 17.4708L26.6808 15.6417Z" fill="white"/>
<path d="M26.8245 11.4146L6.81445 20.6521L8.07425 23.381L28.0843 14.1436L26.8245 11.4146Z" fill="#235697"/>
<path opacity="0.3" d="M26.8245 11.4146L6.81445 20.6521L8.07425 23.381L28.0843 14.1436L26.8245 11.4146Z" fill="black"/>
<path d="M8.30219 18.3521L12.3889 28.7287L29.8468 20.7358C30.0827 20.6272 30.2659 20.4298 30.3566 20.1865C30.4472 19.9433 30.4379 19.674 30.3305 19.4377L26.1339 10.2767L8.85551 17.0815C8.61431 17.1774 8.42081 17.3648 8.31717 17.6028C8.21353 17.8408 8.20814 18.1101 8.30219 18.3521Z" fill="#235697"/>
<path d="M31.4097 15.0721L31.3232 15.1025L31.4663 15.5096L31.5527 15.4792L31.4097 15.0721Z" fill="#235697"/>
<path opacity="0.1" d="M31.4097 15.0721L31.3232 15.1025L31.4663 15.5096L31.5527 15.4792L31.4097 15.0721Z" fill="white"/>
<path d="M30.688 13.026L30.6016 13.0563L31.1649 14.6606L31.2514 14.6302L30.688 13.026Z" fill="#235697"/>
<path opacity="0.1" d="M30.688 13.026L30.6016 13.0563L31.1649 14.6606L31.2514 14.6302L30.688 13.026Z" fill="white"/>
<path d="M9.51792 17.1172L28.4169 10.4801C28.6621 10.3948 28.9311 10.41 29.165 10.5224C29.399 10.6349 29.579 10.8354 29.6655 11.0801L33.4453 21.8433C33.5307 22.0885 33.5157 22.3575 33.4034 22.5916C33.2912 22.8257 33.0908 23.0059 32.8462 23.0929L13.9472 29.7299C13.7019 29.8148 13.433 29.7994 13.199 29.687C12.965 29.5746 12.7848 29.3744 12.6977 29.1299L8.91788 18.3667C8.83252 18.1214 8.84772 17.8523 8.96015 17.6182C9.07258 17.3841 9.27311 17.2039 9.51792 17.1172Z" fill="#235697"/>
<path opacity="0.1" d="M9.51792 17.1172L28.4169 10.4801C28.6621 10.3948 28.9311 10.41 29.165 10.5224C29.399 10.6349 29.579 10.8354 29.6655 11.0801L33.4453 21.8433C33.5307 22.0885 33.5157 22.3575 33.4034 22.5916C33.2912 22.8257 33.0908 23.0059 32.8462 23.0929L13.9472 29.7299C13.7019 29.8148 13.433 29.7994 13.199 29.687C12.965 29.5746 12.7848 29.3744 12.6977 29.1299L8.91788 18.3667C8.83252 18.1214 8.84772 17.8523 8.96015 17.6182C9.07258 17.3841 9.27311 17.2039 9.51792 17.1172Z" fill="white"/>
<path d="M31.113 15.199L10.3652 22.4851L12.0095 27.1673L32.7572 19.8812L31.113 15.199Z" fill="#235697"/>
<path opacity="0.3" d="M31.113 15.199L10.3652 22.4851L12.0095 27.1673L32.7572 19.8812L31.113 15.199Z" fill="white"/>
<path d="M28.6287 12.9204L24.3398 14.4265L24.5745 15.0947L28.8634 13.5885L28.6287 12.9204Z" fill="#235697"/>
<path opacity="0.8" d="M28.6287 12.9204L24.3398 14.4265L24.5745 15.0947L28.8634 13.5885L28.6287 12.9204Z" fill="white"/>
<path d="M31.5025 21.1025L28.0615 22.3109L28.1842 22.66L31.6251 21.4517L31.5025 21.1025Z" fill="#235697"/>
<path opacity="0.8" d="M31.5025 21.1025L28.0615 22.3109L28.1842 22.66L31.6251 21.4517L31.5025 21.1025Z" fill="white"/>
<path d="M31.7368 21.7706L27.3027 23.3277L27.4254 23.6769L31.8595 22.1198L31.7368 21.7706Z" fill="#235697"/>
<path opacity="0.8" d="M31.7368 21.7706L27.3027 23.3277L27.4254 23.6769L31.8595 22.1198L31.7368 21.7706Z" fill="white"/>
<path d="M15.926 26.8715L13.709 27.65L13.9728 28.4011L16.1898 27.6226L15.926 26.8715Z" fill="#235697"/>
<path opacity="0.8" d="M15.926 26.8715L13.709 27.65L13.9728 28.4011L16.1898 27.6226L15.926 26.8715Z" fill="white"/>
<path d="M27.7799 20.438L30.3688 19.5292C30.5052 19.4807 30.617 19.3802 30.6798 19.2496C30.7426 19.1191 30.7513 18.969 30.7041 18.8321C30.6555 18.6956 30.555 18.5838 30.4245 18.521C30.2939 18.4583 30.1438 18.4495 30.0069 18.4968L27.4171 19.4065C27.2806 19.4551 27.1689 19.5555 27.1061 19.6861C27.0433 19.8166 27.0346 19.9667 27.0818 20.1036C27.1306 20.2402 27.2313 20.3519 27.362 20.4145C27.4928 20.4771 27.643 20.4856 27.7799 20.438Z" fill="#235697"/>
<path d="M23.3454 21.9954L25.9352 21.0857C26.0706 21.037 26.1815 20.937 26.2441 20.8073C26.3066 20.6776 26.3157 20.5286 26.2695 20.3923C26.2208 20.2559 26.1202 20.1444 25.9897 20.0818C25.8592 20.0192 25.7092 20.0106 25.5724 20.0579L22.9835 20.9676C22.847 21.0161 22.7353 21.1166 22.6725 21.2472C22.6097 21.3777 22.601 21.5278 22.6482 21.6647C22.6977 21.8003 22.7986 21.9111 22.929 21.9729C23.0595 22.0348 23.209 22.0429 23.3454 21.9954Z" fill="#235697"/>
<path d="M18.9136 23.5527L21.5034 22.643C21.6385 22.5939 21.749 22.4938 21.8112 22.3642C21.8733 22.2345 21.8822 22.0857 21.8359 21.9496C21.7872 21.8133 21.6866 21.7017 21.5561 21.6391C21.4256 21.5765 21.2756 21.5679 21.1388 21.6152L18.5472 22.5212C18.4109 22.57 18.2993 22.6705 18.2367 22.801C18.1741 22.9316 18.1655 23.0815 18.2128 23.2184C18.2615 23.3555 18.3627 23.4678 18.494 23.5305C18.6254 23.5931 18.7763 23.6012 18.9136 23.5527Z" fill="#235697"/>
<path d="M14.4762 25.1101L17.066 24.2004C17.2016 24.1518 17.3128 24.0519 17.3755 23.9222C17.4382 23.7925 17.4475 23.6434 17.4013 23.5069C17.3526 23.3706 17.252 23.2591 17.1215 23.1965C16.991 23.1338 16.841 23.1253 16.7042 23.1726L14.1144 24.0822C13.9779 24.1308 13.8661 24.2313 13.8033 24.3618C13.7405 24.4924 13.7318 24.6425 13.7791 24.7794C13.8286 24.915 13.9294 25.0258 14.0599 25.0876C14.1903 25.1495 14.3399 25.1576 14.4762 25.1101Z" fill="#235697"/>
<g opacity="0.8">
<path d="M27.7809 20.438L30.3697 19.5292C30.5062 19.4807 30.618 19.3802 30.6808 19.2496C30.7436 19.1191 30.7523 18.969 30.705 18.8321C30.6565 18.6956 30.556 18.5838 30.4254 18.521C30.2949 18.4583 30.1448 18.4495 30.0079 18.4968L27.4181 19.4065C27.2816 19.4551 27.1698 19.5555 27.107 19.6861C27.0443 19.8166 27.0355 19.9667 27.0828 20.1036C27.1316 20.2402 27.2323 20.3519 27.363 20.4145C27.4937 20.4771 27.6439 20.4856 27.7809 20.438Z" fill="white"/>
<path d="M23.3454 21.9954L25.9352 21.0857C26.0706 21.0369 26.1815 20.9369 26.2441 20.8073C26.3066 20.6776 26.3157 20.5285 26.2695 20.3922C26.2208 20.2559 26.1202 20.1443 25.9897 20.0817C25.8592 20.0191 25.7092 20.0105 25.5724 20.0578L22.9835 20.9675C22.847 21.0161 22.7353 21.1166 22.6725 21.2471C22.6097 21.3776 22.601 21.5277 22.6482 21.6646C22.6977 21.8003 22.7986 21.911 22.929 21.9729C23.0595 22.0348 23.209 22.0428 23.3454 21.9954Z" fill="white"/>
<path d="M18.9136 23.5527L21.5034 22.643C21.6385 22.5939 21.749 22.4938 21.8112 22.3642C21.8733 22.2345 21.8822 22.0857 21.8359 21.9496C21.7872 21.8133 21.6866 21.7017 21.5561 21.6391C21.4256 21.5765 21.2756 21.5679 21.1388 21.6152L18.5472 22.5212C18.4109 22.57 18.2993 22.6705 18.2367 22.801C18.1741 22.9316 18.1655 23.0815 18.2128 23.2184C18.2615 23.3555 18.3627 23.4678 18.494 23.5305C18.6254 23.5931 18.7763 23.6012 18.9136 23.5527Z" fill="white"/>
<path d="M14.4772 25.1101L17.067 24.2004C17.2026 24.1518 17.3137 24.0519 17.3764 23.9222C17.4392 23.7925 17.4484 23.6434 17.4023 23.5069C17.3535 23.3706 17.253 23.2591 17.1225 23.1965C16.9919 23.1338 16.842 23.1253 16.7052 23.1726L14.1154 24.0822C13.9789 24.1308 13.8671 24.2313 13.8043 24.3618C13.7415 24.4924 13.7328 24.6425 13.7801 24.7794C13.8295 24.915 13.9304 25.0258 14.0609 25.0876C14.1913 25.1495 14.3409 25.1576 14.4772 25.1101Z" fill="white"/>
</g>
<path d="M29.1255 15.4693L26.8212 16.2786C26.6255 16.3473 26.5225 16.5617 26.5912 16.7574L27.0714 18.1248C27.1402 18.3205 27.3546 18.4235 27.5503 18.3547L29.8546 17.5455C30.0503 17.4768 30.1533 17.2624 30.0845 17.0667L29.6043 15.6993C29.5356 15.5036 29.3212 15.4006 29.1255 15.4693Z" fill="#235697"/>
<path opacity="0.3" d="M29.1255 15.4693L26.8212 16.2786C26.6255 16.3473 26.5225 16.5617 26.5912 16.7574L27.0714 18.1248C27.1402 18.3205 27.3546 18.4235 27.5503 18.3547L29.8546 17.5455C30.0503 17.4768 30.1533 17.2624 30.0845 17.0667L29.6043 15.6993C29.5356 15.5036 29.3212 15.4006 29.1255 15.4693Z" fill="black"/>
<path d="M15.22 18.0104C15.1625 17.8462 15.0732 17.6949 14.9573 17.5652C14.8413 17.4355 14.7009 17.3299 14.5441 17.2545C14.3872 17.1792 14.2171 17.1354 14.0434 17.1258C13.8697 17.1163 13.6958 17.141 13.5316 17.1987L11.6701 17.8977L11.6463 17.9041L11.5913 17.927L11.5574 17.9398C11.2569 18.0756 11.0201 18.3219 10.8964 18.6276C10.7727 18.9333 10.7715 19.2749 10.893 19.5815C11.0146 19.888 11.2496 20.136 11.5492 20.2739C11.8488 20.4117 12.19 20.4288 12.5019 20.3217L14.2645 19.7354C14.3153 19.724 14.3654 19.7099 14.4147 19.6932C14.4512 19.6805 14.487 19.6658 14.5219 19.6493C14.8215 19.5121 15.059 19.268 15.1882 18.9649C15.3173 18.6618 15.3286 18.3214 15.22 18.0104Z" fill="#235697"/>
<path opacity="0.8" d="M15.22 18.0104C15.1625 17.8462 15.0732 17.6949 14.9573 17.5652C14.8413 17.4355 14.7009 17.3299 14.5441 17.2545C14.3872 17.1792 14.2171 17.1354 14.0434 17.1258C13.8697 17.1163 13.6958 17.141 13.5316 17.1987L11.6701 17.8977L11.6463 17.9041L11.5913 17.927L11.5574 17.9398C11.2569 18.0756 11.0201 18.3219 10.8964 18.6276C10.7727 18.9333 10.7715 19.2749 10.893 19.5815C11.0146 19.888 11.2496 20.136 11.5492 20.2739C11.8488 20.4117 12.19 20.4288 12.5019 20.3217L14.2645 19.7354C14.3153 19.724 14.3654 19.7099 14.4147 19.6932C14.4512 19.6805 14.487 19.6658 14.5219 19.6493C14.8215 19.5121 15.059 19.268 15.1882 18.9649C15.3173 18.6618 15.3286 18.3214 15.22 18.0104Z" fill="white"/>
</svg>
