<svg width="54" height="54" viewBox="0 0 54 54" fill="none" xmlns="http://www.w3.org/2000/svg">
<rect width="54" height="54" rx="27" fill="#E9EAEB"/>
<path d="M36 35.6113C36 36.819 35.4962 37.9167 34.6854 38.7114C33.8746 39.5062 32.7547 40 31.5226 40H23.4774C22.2453 40 21.1254 39.5061 20.3146 38.7114C19.5038 37.9167 19 36.819 19 35.6113V18.3887C19 17.181 19.5038 16.0833 20.3146 15.2886C21.1254 14.4939 22.2453 14 23.4774 14H31.5226C32.7547 14 33.8746 14.4939 34.6854 15.2886C35.4962 16.0833 36 17.181 36 18.3887V35.6113ZM25.102 36.7661C24.578 36.7661 24.1536 36.349 24.1536 35.8365C24.1536 35.3229 24.5791 34.9069 25.102 34.9069H29.9011C30.425 34.9069 30.8495 35.3239 30.8495 35.8365C30.8495 36.35 30.424 36.7661 29.9011 36.7661H25.102ZM32.0837 15.9206C32.0827 16.7579 31.7323 17.5205 31.1671 18.0745C30.6008 18.6296 29.8218 18.973 28.9676 18.973H26.0346C25.1794 18.973 24.4014 18.6296 23.8351 18.0745C23.2699 17.5195 22.9196 16.7579 22.9185 15.9206C22.4337 16.0275 21.9987 16.2692 21.6579 16.6033C21.19 17.0619 20.9 17.6937 20.9 18.3889V35.6115C20.9 36.3056 21.1911 36.9385 21.6579 37.3971C22.1257 37.8556 22.7703 38.1399 23.4795 38.1399H31.5248C32.2329 38.1399 32.8786 37.8546 33.3464 37.3971C33.8143 36.9385 34.1043 36.3066 34.1043 35.6115V18.3889C34.1043 17.6948 33.8132 17.0619 33.3464 16.6033C33.0056 16.2692 32.5706 16.0275 32.0858 15.9206H32.0837Z" fill="black"/>
</svg>
