<svg width="54" height="54" viewBox="0 0 54 54" fill="none" xmlns="http://www.w3.org/2000/svg">
<rect width="54" height="54" rx="27" fill="#E9EAEB"/>
<path d="M17.0898 30.4147C15.9994 27.1857 16.5745 23.628 18.6251 20.9055C20.6758 18.1847 23.9383 16.6512 27.3411 16.8077C30.7442 16.9642 33.8519 18.7915 35.6424 21.6917C35.8675 22.04 36.2966 22.2 36.6959 22.0822C37.0933 21.9661 37.3677 21.6003 37.3694 21.1852V16.8518C37.3694 16.333 36.9491 15.9127 36.4303 15.9127C35.9133 15.9127 35.4929 16.333 35.4929 16.8518V18.5489C32.8848 15.9548 29.2442 14.6762 25.5861 15.0702C21.928 15.4659 18.6427 17.4902 16.6482 20.5819C14.6521 23.6737 14.1596 27.5005 15.308 30.9952C15.4329 31.3821 15.7934 31.6424 16.198 31.6424C16.2982 31.6459 16.3967 31.6301 16.4899 31.5967C16.9806 31.4349 17.2498 30.9054 17.0898 30.4147Z" fill="black"/>
<path d="M38.9615 25.3671C38.8824 24.8501 38.397 24.4948 37.8782 24.5757C37.3611 24.6548 37.0058 25.1402 37.0867 25.659C37.1764 26.1814 37.2222 26.7125 37.2274 27.2436C37.2274 30.1261 36.021 32.8769 33.9017 34.8309C31.7808 36.7848 28.9402 37.7626 26.0687 37.527C23.195 37.293 20.5516 35.8667 18.7772 33.5945C18.531 33.2779 18.1124 33.1513 17.7343 33.2814C17.3544 33.4098 17.0994 33.7651 17.0977 34.166V37.7028C17.0977 38.2198 17.518 38.6402 18.0368 38.6402C18.5538 38.6402 18.9742 38.2199 18.9742 37.7028V36.5104C21.3484 38.5452 24.4138 39.5917 27.5375 39.4299C30.6592 39.2698 33.6016 37.9156 35.7542 35.6469C37.9068 33.3799 39.1062 30.3707 39.1027 27.2439C39.1027 26.616 39.057 25.9881 38.962 25.3673L38.9615 25.3671Z" fill="black"/>
<path d="M26.9102 35.6854C27.1582 35.6854 27.3974 35.5869 27.5733 35.411C27.7492 35.2352 27.8476 34.996 27.8476 34.748V33.5661C29.5026 33.1739 30.6721 31.6966 30.6721 29.996C30.6721 28.2971 29.5025 26.8197 27.8476 26.4275C27.5434 26.3431 27.2268 26.3027 26.9103 26.3062C26.5814 26.3044 26.2578 26.2183 25.9729 26.0529C25.3925 25.7452 25.0302 25.1419 25.0302 24.4859C25.0302 23.8299 25.3925 23.2267 25.9729 22.9189C26.2578 22.7571 26.5814 22.6727 26.9103 22.6762C27.2409 22.6709 27.5645 22.7589 27.8476 22.9295C28.2187 23.137 28.5036 23.4694 28.6549 23.8668C28.785 24.2151 29.1086 24.456 29.4797 24.4771H29.5272C29.8438 24.4771 30.141 24.3188 30.3151 24.0533C30.4892 23.7895 30.5173 23.4536 30.3907 23.1633C29.9475 22.0536 29.0049 21.2217 27.8476 20.921V19.7391C27.8476 19.2221 27.4291 18.8018 26.9103 18.8018C26.3915 18.8018 25.9729 19.2221 25.9729 19.7391V20.921C24.318 21.3132 23.1484 22.7905 23.1484 24.4912C23.1484 26.19 24.318 27.6674 25.9729 28.0596C26.2772 28.144 26.5937 28.1844 26.9103 28.1809C27.2392 28.1827 27.5627 28.2689 27.8476 28.4342C28.428 28.7419 28.7903 29.3452 28.7903 30.0012C28.7903 30.6572 28.428 31.2604 27.8476 31.5682C27.5627 31.73 27.2391 31.8144 26.9103 31.8109C26.5796 31.8162 26.256 31.7283 25.9729 31.5577C25.6018 31.3501 25.3169 31.0177 25.1656 30.6203C25.0355 30.2721 24.7119 30.0311 24.3408 30.01H24.2933C23.9768 30.01 23.6795 30.1683 23.5054 30.4338C23.3313 30.6977 23.3032 31.0336 23.4298 31.3238C23.873 32.4335 24.8157 33.2654 25.9729 33.5661V34.748C25.9729 34.996 26.0714 35.2351 26.2472 35.411C26.4231 35.5869 26.6622 35.6854 26.9102 35.6854Z" fill="black"/>
</svg>
